<svg xmlns="http://www.w3.org/2000/svg" viewBox="0 0 43.1 55.9"><g fill="#2A2A36"><path d="M21.5 0C9.7 0 0 9.7 0 21.5 0 30 3.6 38.6 10.3 46.4c5 5.8 10 9.1 10.2 9.2.3.2.7.3 1.1.3.4 0 .7-.1 1.1-.3.2-.1 5.2-3.4 10.2-9.2 6.7-7.8 10.3-16.3 10.3-24.8C43.1 9.7 33.4 0 21.5 0zm0 51.6c-4-3-17.7-14.3-17.7-30 0-9.7 7.9-17.7 17.7-17.7 9.7 0 17.7 7.9 17.7 17.7 0 15.7-13.7 27-17.7 30zm0 0"/><path d="M21.5 13c-4.7 0-8.5 3.8-8.5 8.5s3.8 8.5 8.5 8.5 8.5-3.8 8.5-8.5c.1-4.7-3.8-8.5-8.5-8.5zm0 13.2c-2.6 0-4.7-2.1-4.7-4.7s2.1-4.7 4.7-4.7 4.7 2.1 4.7 4.7-2.1 4.7-4.7 4.7zm0 0"/></g></svg>