<svg xmlns="http://www.w3.org/2000/svg" viewBox="0 0 40.9 40.9"><g fill="#FFF" stroke="#C0924B" stroke-width="1.5" stroke-miterlimit="10"><path d="M20.1.8c-3.2.1-6.3.9-9 2.3-.1.1-.3.1-.4.2-.1.1-.2.1-.3.2C4.6 7 .6 13.4.8 20.8c.1 5.4 2.4 10.3 6 13.8s8.6 5.6 14 5.5c3.2-.1 6.3-.9 9-2.3.1-.1.3-.1.4-.2.1-.1.2-.1.3-.2 5.9-3.5 9.9-10 9.8-17.3-.1-5.4-2.4-10.3-6-13.8C30.5 2.8 25.6.7 20.1.8zm0 1.3c10.1-.2 18.5 7.9 18.7 18 .1 6.6-3.3 12.4-8.5 15.8-2.8 1.8-6 2.8-9.5 2.9-10.1.2-18.5-7.9-18.7-18C2 14.2 5.4 8.3 10.6 5c2.8-1.7 6-2.8 9.5-2.9z"/><path d="M20.1 2.1c-3.5.1-6.8 1.1-9.5 2.9C5.4 8.3 2 14.2 2.1 20.8c.2 10.1 8.5 18.2 18.7 18 3.5-.1 6.8-1.1 9.5-2.9 5.2-3.3 8.6-9.2 8.5-15.8-.2-10.1-8.5-18.2-18.7-18z"/><path d="M20.4 22.2l4.2-4.2c.3-.3.7-.3 1 0 .3.3.3.7 0 1l-4.7 4.7c-.3.3-.7.3-1 0L15.2 19c-.1-.1-.2-.3-.2-.5s.1-.4.2-.5c.3-.3.7-.3 1 0l4.2 4.2z"/></g></svg>