<svg xmlns="http://www.w3.org/2000/svg" viewBox="0 0 100.6 100.6"><g fill="#2A2A36"><path d="M50.3 99.9c-13.3 0-25.7-5.2-35.1-14.5C5.8 76 .6 63.5.6 50.3s5.2-25.7 14.5-35.1C24.6 5.8 37 .6 50.3.6S76 5.8 85.4 15.2c9.4 9.4 14.5 21.8 14.5 35.1S94.7 76 85.4 85.4C76 94.7 63.5 99.9 50.3 99.9zm0-98c-12.9 0-25.1 5-34.2 14.2C7 25.2 1.9 37.4 1.9 50.3s5 25.1 14.2 34.2c9.1 9.1 21.3 14.2 34.2 14.2s25.1-5 34.2-14.2c9.1-9.1 14.2-21.3 14.2-34.2s-5-25.1-14.2-34.2C75.3 7 63.2 1.9 50.3 1.9z"/><path d="M50.3 100.6c-13.4 0-26.1-5.2-35.6-14.7C5.2 76.3 0 63.7 0 50.3s5.2-26.1 14.7-35.6S36.9 0 50.3 0c13.4 0 26.1 5.2 35.6 14.7s14.7 22.1 14.7 35.6-5.2 26.1-14.7 35.6c-9.6 9.4-22.2 14.7-35.6 14.7zm0-98c-12.7 0-24.7 5-33.7 14-9 9-14 21-14 33.7s5 24.7 14 33.7c9 9 21 14 33.7 14C63 98 75 93 84 84c9-9 14-21 14-33.7 0-12.7-5-24.7-14-33.7-9-9.1-21-14-33.7-14z"/></g><g fill="#C0924B"><path d="M50.7 50h-.9c-3.4 0-11.9-.6-17.2-5.8-6.2-6.1-6.2-16.6-6.2-18.5h1.4c3.4 0 11.9.6 17.2 5.8 5.8 5.7 6.2 15.2 6.2 18 0-1 0-2.8.3-4.9-.6-4.2-2.1-9.7-6.1-13.6-5.5-5.4-14.2-6-17.7-6-1.1 0-1.7.1-1.7.1h-.3v.3c0 .1-.7 12.4 6.4 19.3 5.5 5.4 14.2 6 17.7 6h1.4v-.2l-.5-.5z"/><path d="M50.7 49c-6.8.1-13.7-1.4-18.4-6.6-2.6-2.8-3.7-6.8-4.4-10.5-.3-1.5-.4-3.1-.5-4.6-.1-1.7-.1-.7 1.1-.7 7.7.1 15 2.9 18.9 9.8 1.7 3 2.3 6.7 2.7 10 .1.9-.3 2.9.4 3.6.6.6 1.7.2 1.7-.7.1-7.4-.7-15.5-7.3-20.3-5.4-4-12.4-5.6-19.1-5-.6 0-.9.4-1 1-.4 6.2 1.2 12.8 4.7 18 4.6 6.9 14 8.7 21.7 8.5.5 0 1-.4 1-1 0-.7-.3-.9-.7-1.4-.9-.9-2.3.5-1.4 1.4.5.4 0-1-1-1-1.7 0-3.4-.2-5.1-.5-4.2-.7-8-2.4-11.1-5.2-4.8-4.2-6.1-11.8-6.1-17.9v-.7c-.9.6-.9.8-.2.6h2c3.1 0 6.1.6 9.1 1.5 4.8 1.5 8.4 4.8 10.7 9.2 2.2 4.2 2 8.2 1.9 12.8.6-.2 1.1-.5 1.7-.7 0 0-.3-5.8-.5-6.9-.7-3.7-2.4-7.1-4.7-10.1-4.6-5.9-13.3-7.3-20.3-7.1-.5 0-1 .4-1 1C25.4 32 27 38.4 31 43.6c4.5 5.7 13 7.2 19.8 7.1C52 51 52 49 50.7 49z"/></g><g fill="#C0924B"><path d="M51.2 49.5L34.3 33c-.1-.1-.4-.1-.5 0-.1.1-.1.4 0 .5L50.7 50l.5.4v-.9z"/><path d="M51.9 48.8c-3.1-3-6.1-6-9.2-9-2-2-4-3.9-6-5.9-.9-.9-1.6-1.9-2.9-1.9-.5 0-1 .4-1 1 0 1.3 1.1 2 2 2.8 2 2 4 3.9 6 5.9 3.2 3.1 6.4 6.3 9.6 9.4.6.6 1.7.2 1.7-.7.1-.5.3-1.1-.2-1.6-.9-.9-2.3.5-1.4 1.4-.4-.4-.3 0-.3.3.6-.2 1.1-.5 1.7-.7-2.7-2.7-5.4-5.3-8.2-8-2-2-4-4-6.1-5.9-.8-.7-1.5-1.5-2.3-2.2l-.6-.6c-.4-.4 0-.2 0-.1l-1 1c-.2 0-.1-.2.4.3l1.7 1.7c1.9 1.9 3.9 3.8 5.8 5.7 2.9 2.8 5.8 5.7 8.7 8.5 1.1.9 2.5-.5 1.6-1.4z"/></g><g fill="#C0924B"><path d="M51.2 49.5v.6c0-.1.1-.1.2-.2l.5-.5c0-2.8.4-12.3 6.2-18 5.4-5.2 13.8-5.8 17.2-5.8h1.4c.1 1.9 0 12.4-6.2 18.5-5.3 5.4-13.8 5.9-17.2 5.9h-.9l-.5.5v.2h1.4c3.5 0 12.2-.6 17.7-6 7.1-6.9 6.4-19.2 6.4-19.3v-.3h-.3s-.7-.1-1.7-.1c-3.5 0-12.2.6-17.7 6-4 3.9-5.5 9.4-6.1 13.6-.3 2.2-.4 4-.4 4.9z"/><path d="M50.3 49.5v.6c0 .9 1 1.2 1.7.7 1-.8.9-1.3 1-2.6.1-4.1 1-8.1 2.8-11.7 2.4-5.2 7.4-7.8 12.7-9.1 1.8-.4 3.6-.6 5.4-.7 1.6-.1 2-1 2 .6-.4 9.7-4.8 17.8-14.3 20.7-3 .9-6.1 1.1-9.2 1.1-.8 0-1.5.9-1.5 1.6 0 .5.4 1 1 1 8.1.2 16.4-1.8 21.6-8.4 3.8-4.8 5.2-12.1 4.8-18.2 0-.6-.4-.9-1-1-6.6-.6-13.7 1.1-19.1 5-6 4.6-7.9 13.3-7.9 20.4 0 1.3 1.9 1.3 1.9 0 .1-7.4 2.1-15 8.3-19.6 4.5-3.3 10.7-4 16.1-3.9.2 0-.2-1.2-.2.6 0 2.1-.3 4.1-.6 6.1-1.4 7.9-6.3 13.5-14 15.8-2.5.8-5.1 1-7.7 1.1-1.4.1-1.6 1.3 0 1.3 4.7-.1 9.3-1.2 13.4-3.3 7.8-4 10.3-13.8 10.2-21.9 0-.5-.4-1-1-1-7.4-.2-15 1.5-20.3 7.1-2.5 2.7-3.9 6.5-4.7 10.1-.4 1.8 0 6.4-1.2 7.5.6.2 1.1.5 1.7.7v-.6c0-1.2-2-1.2-1.9 0z"/></g><g fill="#C0924B"><path d="M69.3 33.5c.1-.1.1-.4 0-.5-.1-.1-.4-.1-.5 0L51.9 49.5l-.5.5h.1c.2 0 .3.2.3.3v.2l.5-.5 17-16.5z"/><path d="M70.3 33.5V33c0-.5-.4-1-1-1-1.3 0-2 1.1-2.9 2-2.1 2-4.1 4-6.2 6-3.1 3.1-6.3 6.1-9.4 9.2-.7.7 0 1.8.9 1.6-.3-.1-.5-.3-.8-.4 0 .9 1.1 1.3 1.7.7 5.8-5.7 11.6-11.3 17.4-17 .9-.9-.5-2.3-1.4-1.4-5.8 5.7-11.6 11.3-17.4 17 .6.2 1.1.5 1.7.7 0-.9-.8-1.6-1.7-1.5.3.5.6 1.1.9 1.6 2.8-2.7 5.6-5.5 8.4-8.2 2-2 4.1-4 6.1-6l1.9-1.9.6-.6c.5-.4.2 0 .1 0l-1-1v.5c.1 1.5 2 1.5 2.1.2z"/></g><g fill="#C0924B"><path d="M51.9 50.5v-.2c0-.2-.2-.3-.3-.3h-.1c-.1 0-.1.1-.2.2v18.9h.7V50.5z"/><path d="M52.9 50.5c0-1.3-1.7-2.1-2.5-.8-.5.9-.2 2.8-.2 3.8v15.7c0 .5.4 1 1 1h.7c.5 0 1-.5 1-1V50.5c0-1.3-1.9-1.3-1.9 0v18.6l1-1h-.7l1 1V51c0-.6-1.3-1.5-1.3-.5-.1 1.3 1.9 1.3 1.9 0z"/></g><g fill="#C0924B"><path d="M51.2 69.1c-8.6.3-16.4 3.8-20.6 9.1-.1.1-.1.4.1.5.1 0 .1.1.2.1s.2 0 .3-.1c4.1-5.3 11.9-8.6 20.4-8.9 8.5.2 16.3 3.6 20.4 8.9.1.1.3.2.5.1.1-.1.2-.3.1-.5-4.2-5.3-12-8.8-20.6-9.1h-.3c-.3-.1-.4-.1-.5-.1z"/><path d="M51.2 68.2c-5 .3-9.6 1.4-14.2 3.6-2.1 1-7.7 4.2-7.3 6.9.1.5.3.8.7.9 1.2.4 1.9-.8 2.5-1.6 4-4.6 10.7-6.5 16.5-7.2 5.8-.7 11.8 1.2 16.8 4 2.1 1.2 3.8 4.5 6.2 4.8.6.1.9-.5 1-1 .4-2.9-5.3-5.7-7.3-6.9-4.3-2.4-10-3.7-14.9-3.5-1.3 0-1.3 2 0 1.9 3.6-.1 7.2.8 10.6 1.9 2.8.9 5.4 2.6 7.7 4.4 1.8 1.5 2.7.9.9-.9-4.4-4.2-10.8-5.9-16.7-6.6-6.7-.8-13.8 1.6-19.3 5.3-1 .7-1.9 1.6-2.8 2.4.3.3.6.6.8.9 1.2-1.2 2.5-2.3 4-3.2 4.3-2.9 9.7-4 14.8-4.3 1.2 0 1.3-1.9 0-1.8z"/></g><g fill="#C0924B"><path d="M49.6 75.9c.2 0 .3-.2.3-.3 0-.2-.2-.3-.3-.3h-2.8c-.2 0-.3.2-.3.3 0 .2.2.3.3.3h2.8z"/><path d="M49.9 76.9c1.3-.5 1.4-2.6-.3-2.6h-2.8c-1.7 0-1.7 2.6 0 2.6h2.8c1.3 0 1.3-1.9 0-1.9-.8 0-2.1.2-2.8-.1l.7.7-.7.7c.5-.2 2.2-.2 2.8 0l-.7-.7.7-.7c-.1 0-.2.1-.2.1-1.2.5-.7 2.4.5 1.9z"/></g><g fill="#C0924B"><path d="M43.7 80.4c0 .2.2.3.3.3h2.8c.2 0 .3-.2.3-.3 0-.2-.2-.3-.3-.3H44c-.2 0-.3.2-.3.3z"/><path d="M42.7 80.7c.5 1.3 1.6 1.1 2.8 1.1 1 0 2.6.1 2.6-1.3 0-1.5-1.6-1.3-2.6-1.3-1.2 0-2.3-.2-2.8 1.1-.5 1.2 1.4 1.7 1.9.5 0-.1.1-.2.1-.2l-.7.7c.5-.2 2.2-.2 2.8 0l-.7-.7.7-.7c-.5.2-2.2.2-2.8 0l.7.7c0-.1-.1-.2-.1-.2-.5-1.4-2.4-.9-1.9.3z"/></g><g fill="#C0924B"><path d="M59.3 78.8c.2 0 .3-.2.3-.3 0-.2-.2-.3-.3-.3h-2.8c-.2 0-.3.2-.3.3 0 .2.2.3.3.3h2.8z"/><path d="M59.5 79.7c1.3-.5 1.4-2.6-.3-2.6h-2.8c-1.7 0-1.7 2.6 0 2.6h2.8c1.3 0 1.3-1.9 0-1.9-.8 0-2.1.2-2.8-.1l.7.7-.7.7c.5-.2 2.2-.2 2.8 0l-.7-.7.7-.7c-.1 0-.2.1-.2.1-1.1.5-.6 2.4.5 1.9z"/></g></svg>