<svg xmlns="http://www.w3.org/2000/svg" viewBox="0 0 100.6 100.6"><g fill="#C0924B"><path d="M52.8 73c-3.7 0-6.6-2.9-6.6-6.5v-2.4c0-2.8-2.2-5.1-4.9-5.3-.4 0-.6-.3-.6-.7 0-.4.3-.6.7-.6 3.4.2 6.1 3.1 6.1 6.5v2.4c0 2.9 2.4 5.3 5.3 5.3h.1c2.9 0 5.3-2.4 5.3-5.3 0-1 .8-1.8 1.8-1.8h2.3c.4 0 .6.3.6.6 0 .4-.3.6-.6.6H60c-.3 0-.5.2-.5.5-.1 3.8-3.1 6.7-6.7 6.7z"/><path d="M52.8 73.7c-4.1 0-7.3-3.2-7.3-7.2v-2.4c0-2.4-1.9-4.4-4.3-4.6-.3 0-.7-.2-.9-.4-.2-.3-.3-.6-.3-.9 0-.7.6-1.2 1.3-1.2 3.8.3 6.8 3.4 6.8 7.2v2.4c0 2.5 2.1 4.6 4.6 4.6 2.6 0 4.7-2.1 4.7-4.6 0-1.4 1.1-2.5 2.5-2.5h2.3c.7 0 1.3.6 1.3 1.3 0 .7-.6 1.3-1.3 1.3h-2.3c.1 3.7-3.1 7-7.1 7z"/></g><g fill="#C0924B"><path d="M67 82.3H32.9c-1 0-2-.5-2.5-1.4-.5-.9-.6-2-.1-2.9l14.9-28.4c.2-.3.5-.4.9-.3.3.2.4.5.3.9l-15 28.4c-.3.5-.2 1.1.1 1.6.3.5.8.8 1.4.8H67c.6 0 1.1-.3 1.4-.8.3-.5.3-1.1.1-1.6L53.6 50.2c-.2-.3 0-.7.3-.9.3-.2.7 0 .9.3L69.6 78c.5.9.4 2-.1 2.9-.5.9-1.5 1.4-2.5 1.4z"/><path d="M67 83H32.9c-1.2 0-2.4-.7-3.1-1.7-.6-1.1-.7-2.4-.1-3.5l14.9-28.4c.3-.6 1.1-.9 1.7-.5.6.3.9 1.1.5 1.7L32 78.9c-.2.3-.2.7 0 1 .2.3.5.5.9.5H67c.4 0 .7-.2.9-.5.2-.3.2-.7 0-1L53 50.5c-.3-.6-.1-1.4.5-1.7.6-.3 1.4-.1 1.7.5l14.9 28.4c.6 1.1.5 2.5-.1 3.5-.6 1.1-1.7 1.8-3 1.8z"/></g><g fill="#C0924B"><path d="M54.2 50.5c-.4 0-.6-.3-.6-.6V31.1h-7.2v18.8c0 .4-.3.6-.6.6-.4 0-.6-.3-.6-.6v-20H55v20c-.2.3-.5.6-.8.6z"/><path d="M54.2 51.2c-.7 0-1.3-.6-1.3-1.3V31.8H47v18.1c0 .7-.6 1.3-1.3 1.3-.7 0-1.3-.6-1.3-1.3V29.2h11.1v20.7c0 .7-.6 1.3-1.3 1.3z"/></g><g fill="#C0924B"><path d="M55.4 31.1h-11c-1.1 0-2-.7-2.4-1.8l-.8-2.8h17.4l-.8 2.8c-.3 1.1-1.3 1.8-2.4 1.8zM43 27.9l.3 1.1c.2.5.6.8 1.1.8h11c.5 0 1-.3 1.1-.8l.3-1.1H43z"/><path d="M55.4 31.8h-11c-1.4 0-2.6-.9-3-2.2L40.3 26h19.1l-1.1 3.6c-.3 1.3-1.5 2.2-2.9 2.2zm-11.6-3.3l.1.3c.1.2.3.4.5.4h11c.2 0 .4-.2.5-.4l.1-.3H43.8z"/></g><g fill="#C0924B"><path d="M52.1 68.8c-1.5 0-2.8-1.2-2.8-2.8 0-1.5 1.2-2.8 2.8-2.8 1.5 0 2.8 1.2 2.8 2.8-.1 1.6-1.3 2.8-2.8 2.8zm0-4.2c-.8 0-1.5.7-1.5 1.5s.7 1.5 1.5 1.5 1.5-.7 1.5-1.5c-.1-.9-.7-1.5-1.5-1.5z"/><path d="M52.1 69.4c-1.9 0-3.4-1.5-3.4-3.4s1.5-3.4 3.4-3.4 3.4 1.5 3.4 3.4-1.6 3.4-3.4 3.4zm0-4.2c-.5 0-.8.4-.8.8 0 .5.4.8.8.8.5 0 .8-.4.8-.8s-.4-.8-.8-.8z"/></g><g fill="#C0924B"><path d="M49.9 60.2c-1.5 0-2.8-1.2-2.8-2.8 0-1.5 1.2-2.8 2.8-2.8 1.5 0 2.8 1.2 2.8 2.8 0 1.6-1.2 2.8-2.8 2.8zm0-4.2c-.8 0-1.5.7-1.5 1.5s.7 1.5 1.5 1.5 1.5-.7 1.5-1.5c0-.9-.6-1.5-1.5-1.5z"/><path d="M49.9 60.8c-1.9 0-3.4-1.5-3.4-3.4S48 54 49.9 54s3.4 1.5 3.4 3.4-1.5 3.4-3.4 3.4zm0-4.2c-.5 0-.8.4-.8.8 0 .5.4.8.8.8.5 0 .8-.4.8-.8.1-.4-.3-.8-.8-.8z"/></g><g fill="#C0924B"><path d="M55.2 23.2c-1.5 0-2.8-1.2-2.8-2.8 0-1.5 1.2-2.8 2.8-2.8 1.5 0 2.8 1.2 2.8 2.8 0 1.5-1.2 2.8-2.8 2.8zm0-4.3c-.8 0-1.5.7-1.5 1.5s.7 1.5 1.5 1.5 1.5-.7 1.5-1.5-.6-1.5-1.5-1.5z"/><path d="M55.2 23.8c-1.9 0-3.4-1.5-3.4-3.4s1.5-3.4 3.4-3.4 3.4 1.5 3.4 3.4-1.5 3.4-3.4 3.4zm0-4.2c-.5 0-.8.4-.8.8 0 .5.4.8.8.8.5 0 .8-.4.8-.8.1-.4-.3-.8-.8-.8z"/></g><g fill="#C0924B"><path d="M49 16.4c-1.5 0-2.8-1.2-2.8-2.8 0-1.5 1.2-2.8 2.8-2.8 1.5 0 2.8 1.2 2.8 2.8-.1 1.5-1.3 2.8-2.8 2.8zm0-4.3c-.8 0-1.5.7-1.5 1.5s.7 1.5 1.5 1.5 1.5-.7 1.5-1.5c-.1-.8-.7-1.5-1.5-1.5z"/><path d="M49 17c-1.9 0-3.4-1.5-3.4-3.4s1.5-3.4 3.4-3.4 3.4 1.5 3.4 3.4S50.8 17 49 17zm0-4.2c-.5 0-.8.4-.8.8 0 .5.4.8.8.8.5 0 .8-.4.8-.8 0-.5-.4-.8-.8-.8z"/></g><g fill="#C0924B"><path d="M43.1 70.4H41c-.4 0-.6-.3-.6-.6 0-.4.3-.6.6-.6h2.1c.4 0 .6.3.6.6s-.3.6-.6.6z"/><path d="M43.1 71.1H41c-.7 0-1.3-.6-1.3-1.3 0-.7.6-1.3 1.3-1.3h2.1c.7 0 1.3.6 1.3 1.3 0 .7-.6 1.3-1.3 1.3z"/></g><g fill="#C0924B"><path d="M44.4 75.8h-7.5c-.4 0-.6-.3-.6-.6 0-.4.3-.6.6-.6h7.5c.4 0 .6.3.6.6s-.2.6-.6.6z"/><path d="M44.4 76.4h-7.5c-.7 0-1.3-.6-1.3-1.3 0-.7.6-1.3 1.3-1.3h7.5c.7 0 1.3.6 1.3 1.3 0 .8-.6 1.3-1.3 1.3z"/></g><g fill="#C0924B"><path d="M49 42.1c-.4 0-.6-.3-.6-.6V35c0-.4.3-.6.6-.6s.6.3.6.6v6.5c0 .3-.3.6-.6.6z"/><path d="M49 42.7c-.7 0-1.3-.6-1.3-1.3v-6.5c0-.7.6-1.3 1.3-1.3s1.3.6 1.3 1.3v6.5c0 .7-.6 1.3-1.3 1.3z"/></g><g fill="#2A2A36"><path d="M50.3 99.9c-13.3 0-25.7-5.2-35.1-14.5C5.8 76 .6 63.5.6 50.3.6 37 5.8 24.6 15.1 15.2 24.6 5.8 37 .6 50.3.6 63.6.6 76 5.8 85.4 15.1c9.4 9.4 14.5 21.8 14.5 35.1S94.7 76 85.4 85.4C76 94.7 63.5 99.9 50.3 99.9zm0-98c-12.9 0-25.1 5-34.2 14.2C7 25.2 1.9 37.4 1.9 50.3c0 12.9 5 25.1 14.2 34.2 9.1 9.1 21.3 14.2 34.2 14.2 12.9 0 25.1-5 34.2-14.2 9.1-9.1 14.2-21.3 14.2-34.2 0-12.9-5-25.1-14.2-34.2C75.3 7 63.2 1.9 50.3 1.9z"/><path d="M50.3 100.6c-13.4 0-26.1-5.2-35.6-14.7C5.2 76.3 0 63.7 0 50.3c0-13.4 5.2-26.1 14.7-35.6S36.9 0 50.3 0c13.4 0 26.1 5.2 35.6 14.7s14.7 22.1 14.7 35.6c0 13.4-5.2 26.1-14.7 35.6-9.6 9.4-22.2 14.7-35.6 14.7zm0-98c-12.7 0-24.7 5-33.7 14-9 9-14 21-14 33.7s5 24.7 14 33.7c9 9 21 14 33.7 14C63 98 75 93 84 84s14-21 14-33.7-5-24.7-14-33.7-21-14-33.7-14z"/><path d="M14.7 84.6c-.2 0-.3-.1-.5-.2-.2-.2-.2-.7 0-.9l17.6-17.6c.2-.2.7-.2.9 0 .2.2.2.7 0 .9L15.1 84.4c-.1.1-.2.2-.4.2z"/><path d="M14.7 85.2c-.3 0-.7-.1-.9-.4-.5-.5-.5-1.3 0-1.8l17.6-17.6c.5-.5 1.3-.5 1.8 0 .2.2.4.6.4.9s-.1.7-.4.9L15.6 84.9c-.2.2-.6.3-.9.3zm45.7-46.3c-.2 0-.3-.1-.5-.2-.2-.2-.2-.7 0-.9l23.6-23.6c.2-.2.7-.2.9 0 .2.2.2.7 0 .9L60.8 38.7c-.1.1-.3.2-.4.2z"/><path d="M60.4 39.6c-.3 0-.7-.1-.9-.4-.5-.5-.5-1.3 0-1.8L83 13.8c.5-.5 1.3-.5 1.8 0 .2.2.4.6.4.9s-.1.7-.4.9L61.3 39.2c-.3.2-.6.4-.9.4z"/></g></svg>