<svg xmlns="http://www.w3.org/2000/svg" viewBox="0 0 100.6 100.6"><path fill="#C0924B" d="M90 49.9l-1.2-1.2c-4.5-4.5-11.5-4.8-16.4-1-.2-1.4-.6-2.7-1.3-4-.4-.8-1.3-1.1-2.1-.7-.8.4-1.1 1.3-.7 2.1 2 4.1 1.4 8.9-1.2 12.5-.2-1.9-1-3.6-2.3-4.9-1.2-1.2-2.7-2-4.3-2.4L63.2 18c0-.4-.1-.9-.4-1.2-.3-.3-.7-.5-1.1-.5H26.1c-.4 0-.8.2-1.1.5-.3.3-.4.7-.4 1.2L30 82.8c.1.8.7 1.4 1.5 1.4H59c1.1 0 2.2-.1 3.3-.3 4.1-.8 7.2-2.3 9.1-4.3 2.7-2.7 4.5-5.9 5.1-9.1.7-3.4-.1-6.4-2.1-8.4-1.3-1.3-3.1-2.1-5.2-2.3 1.4-1.7 2.4-3.7 2.9-5.9 2.3 1.9 5.1 2.8 7.9 2.8 3.2 0 6.3-1.2 8.7-3.6l1.2-1.2c.3-.3.5-.7.5-1.1 0-.2-.2-.6-.4-.9zM63.8 61L48.7 76.1c-2.4-3-3.4-7-2.6-10.8.6-3 2.4-6.5 4.1-8.2 2.2-2.2 4.7-3.5 7-3.9.4-.1.7-.1 1.1-.1 1.7 0 3.2.6 4.3 1.7 1.5 1.4 1.9 3.6 1.2 6.2zM60 19.4l-.7 8.1h-2.4l.4-5c.1-.8-.6-1.6-1.4-1.7-.8-.1-1.6.6-1.7 1.4l-.4 5.2H28.5l-.7-8.1H60zM32.9 81.2l-4.2-50.6h24.8l-.5 6.1c-.1.8.6 1.6 1.4 1.7h.1c.8 0 1.5-.6 1.5-1.4l.5-6.3h2.4l-1.6 19.5c-.2 0-.4 0-.6.1-3 .4-6.2 2.1-8.8 4.7-2.2 2.2-4.2 6.2-5 9.8-1.1 5.4.6 10.9 4.5 14.8.6.6 1.3 1.2 2 1.7H32.9zm36.4-3.7c-1.6 1.6-4.1 2.7-7.6 3.4-3.8.8-7.8-.2-10.8-2.6L66 63.2c2.6-.6 4.8-.2 6.2 1.2 2.8 2.7 1.5 8.7-2.9 13.1zM86.6 51c-3.6 3.6-9.5 3.6-13.1 0h-.1l.1-.1c3.6-3.6 9.5-3.6 13.1 0v.1zm0 0"/><path fill="none" d="M24.6 16.3h65.9v68H24.6z"/><path fill="#C0924B" d="M61.6 68.4l-1.8 1.8c-.6.6-.6 1.6 0 2.2.3.3.7.5 1.1.5.4 0 .8-.2 1.1-.5l1.8-1.8c.6-.6.6-1.6 0-2.2-.6-.6-1.6-.6-2.2 0zm-5.1-5.1l-1.8 1.8c-.6.6-.6 1.6 0 2.2.3.3.7.5 1.1.5.4 0 .8-.2 1.1-.5l1.8-1.8c.6-.6.6-1.6 0-2.2s-1.6-.6-2.2 0zm-2.7-15.4h.1c.8 0 1.5-.6 1.5-1.4l.3-3.7c.1-.8-.6-1.6-1.4-1.7-.8-.1-1.6.6-1.7 1.4l-.3 3.7c0 .9.6 1.7 1.5 1.7zm0 0"/><g fill="#2A2A36"><path d="M50.3 99.9c-13.3 0-25.7-5.2-35.1-14.5C5.8 76 .6 63.5.6 50.3.6 37 5.8 24.6 15.1 15.2 24.6 5.8 37 .6 50.3.6 63.6.6 76 5.8 85.4 15.1c9.4 9.4 14.5 21.8 14.5 35.1s-5.2 25.7-14.5 35.1C76 94.7 63.5 99.9 50.3 99.9zm0-98c-12.9 0-25.1 5-34.2 14.2C7 25.2 1.9 37.4 1.9 50.3c0 12.9 5 25.1 14.2 34.2 9.1 9.1 21.3 14.2 34.2 14.2s25.1-5 34.2-14.2 14.2-21.3 14.2-34.2c0-12.9-5-25.1-14.2-34.2C75.3 7 63.2 1.9 50.3 1.9z"/><path d="M50.3 100.6c-13.4 0-26.1-5.2-35.6-14.7C5.2 76.3 0 63.7 0 50.3c0-13.4 5.2-26.1 14.7-35.6S36.9 0 50.3 0c13.4 0 26.1 5.2 35.6 14.7s14.7 22.1 14.7 35.6c0 13.4-5.2 26.1-14.7 35.6-9.6 9.4-22.2 14.7-35.6 14.7zm0-98c-12.7 0-24.7 5-33.7 14-9 9-14 21-14 33.7 0 12.7 5 24.7 14 33.7 9 9 21 14 33.7 14C63 98 75 93 84 84c9-9 14-21 14-33.7 0-12.7-5-24.7-14-33.7-9-9.1-21-14-33.7-14z"/></g></svg>