<svg xmlns="http://www.w3.org/2000/svg" viewBox="0 0 100.6 100.6"><g fill="#2A2A36"><path d="M50.3 99.9c-13.3 0-25.7-5.2-35.1-14.5C5.8 76 .6 63.5.6 50.3.6 37 5.8 24.6 15.1 15.2 24.6 5.8 37 .6 50.3.6 63.6.6 76 5.8 85.4 15.1c9.4 9.4 14.5 21.8 14.5 35.1s-5.2 25.7-14.5 35.1C76 94.7 63.5 99.9 50.3 99.9zm0-98c-12.9 0-25.1 5-34.2 14.2C7 25.2 1.9 37.4 1.9 50.3c0 12.9 5 25.1 14.2 34.2 9.1 9.1 21.3 14.2 34.2 14.2s25.1-5 34.2-14.2 14.2-21.3 14.2-34.2c0-12.9-5-25.1-14.2-34.2C75.3 7 63.2 1.9 50.3 1.9z"/><path d="M50.3 100.6c-13.4 0-26.1-5.2-35.6-14.7C5.2 76.3 0 63.7 0 50.3c0-13.4 5.2-26.1 14.7-35.6S36.9 0 50.3 0c13.4 0 26.1 5.2 35.6 14.7s14.7 22.1 14.7 35.6c0 13.4-5.2 26.1-14.7 35.6-9.6 9.4-22.2 14.7-35.6 14.7zm0-98c-12.7 0-24.7 5-33.7 14-9 9-14 21-14 33.7 0 12.7 5 24.7 14 33.7 9 9 21 14 33.7 14C63 98 75 93 84 84c9-9 14-21 14-33.7 0-12.7-5-24.7-14-33.7-9-9.1-21-14-33.7-14z"/></g><g fill="#C0924B"><path d="M50.3 69.8c-17.8 0-32.2-14.4-32.2-32.2 0-.7.5-1.2 1.2-1.2h62c.7 0 1.2.5 1.2 1.2 0 17.8-14.5 32.2-32.2 32.2zm-29.8-31c.6 15.9 13.7 28.6 29.7 28.6S79.3 54.7 80 38.8H20.5zm0 0"/><path d="M50.3 77.6c-22 0-40-17.9-40-40 0-.7.5-1.2 1.2-1.2H89c.7 0 1.2.5 1.2 1.2 0 22-17.9 40-39.9 40zM12.8 38.8C13.4 59 30 75.2 50.3 75.2S87.2 59 87.8 38.9h-75zm0 0"/><path d="M50.3 63.3c-1.8 0-3.2-1.5-3.2-3.2 0-1 .8-5.7 3.2-5.7 2.4 0 3.2 4.6 3.2 5.7 0 1.8-1.4 3.2-3.2 3.2zm0-6.1c-.4.8-.8 2.2-.8 2.9 0 .4.4.8.8.8.5 0 .8-.4.8-.8 0-.7-.4-2.1-.8-2.9zm12.4 2.4c-.2 0-.4 0-.6-.1-.8-.2-1.6-.7-2-1.4-.6-.8-2.4-5.2-.4-6.5 2-1.3 5.3 2.1 5.8 2.9.5.7.6 1.6.5 2.4-.2.9-.7 1.6-1.4 2.1-.6.4-1.2.6-1.9.6zm-1.6-5.7c.1.9.6 2.3.9 2.9.1.2.3.3.5.3s.4 0 .6-.1c.2-.1.3-.3.3-.5s0-.4-.1-.6c-.3-.6-1.4-1.6-2.2-2zm9.9-4.3c-.4 0-.8-.1-1.2-.2-.7-.3-1.8-1-2.6-1.8-1.3-1.3-1.8-2.4-1.4-3.4.1-.3.5-.8 1.1-1.1 1.5-.6 4.3-.1 5.3.3.8.3 1.4 1 1.7 1.7.3.8.3 1.7 0 2.5-.4 1.2-1.6 2-2.9 2zm-2.6-4.4c.5.7 1.7 1.6 2.4 1.9.4.2.9 0 1.1-.4.1-.2.1-.4 0-.6-.1-.2-.2-.4-.4-.4-.8-.4-2.3-.6-3.1-.5zM37.8 59.6c-.6 0-1.2-.2-1.8-.5-.7-.5-1.2-1.2-1.4-2-.2-.8 0-1.7.5-2.4.6-.8 3.8-4.2 5.8-2.9.3.2.7.6.8 1.3.3 1.6-.7 4.3-1.3 5.2-.5.7-1.2 1.2-2 1.4-.1-.1-.3-.1-.6-.1zm-.6-3.7c-.2.2-.2.4-.2.6 0 .2.2.4.3.5.2.1.4.2.6.1.2 0 .4-.2.5-.3.4-.6.8-2 .9-2.8-.6.3-1.8 1.3-2.1 1.9zm-7.6-6.3c-1.3 0-2.5-.7-3-2-.3-.8-.3-1.7 0-2.5s.9-1.4 1.7-1.7c.7-.3 2-.5 3.1-.6 1.8-.1 3 .4 3.4 1.4.9 2.2-3 4.8-4 5.2-.4.1-.8.2-1.2.2zm2.2-4.4c-.9 0-2.1.2-2.6.4-.2.1-.3.2-.4.4-.1.2-.1.4 0 .6.2.4.7.6 1.1.4.6-.3 1.8-1.2 2.3-1.9-.1.1-.2.1-.4.1zm0 0"/></g></svg>