<svg xmlns="http://www.w3.org/2000/svg" viewBox="0 0 100.6 100.6"><g fill="#C0924B"><path d="M50.3 54.6l-.6-1.1c-.5-1.1-1.8-2-3-3-1.2-.9-2.4-1.8-3.4-3-2.5-2.9-3.1-6.8-1.8-10.7l.5-1.6.7 1.5c.6 1.4 1.8 2.3 3.4 3.4.5.4 1 .7 1.5 1.1 1.2.9 2 2.1 2.6 3.5.6-1.5 1.5-2.7 2.6-3.5.5-.4 1-.8 1.5-1.1 1.6-1.1 2.8-2 3.4-3.4l.7-1.5.6 1.8c1.3 3.9.7 7.8-1.8 10.7-1 1.2-2.2 2.1-3.4 3-1.3 1-2.5 1.9-3 3l-.5.9zm-8-15.8c-.6 3 0 5.8 1.9 8 .9 1.1 2.1 1.9 3.2 2.8 1.1.8 2.1 1.6 2.8 2.5.7-.9 1.8-1.7 2.8-2.5 1.1-.8 2.3-1.7 3.2-2.8 1.9-2.2 2.6-5.1 1.9-8-.8 1-1.9 1.8-3.1 2.6-.5.3-1 .7-1.5 1.1-1.4 1.1-2.4 2.8-2.8 5l-.4 3.5-.6-3.5c-.4-2.2-1.3-3.9-2.8-5-.5-.4-1-.8-1.5-1.1-1.2-.9-2.3-1.6-3.1-2.6z"/><path d="M50.3 56l-1.1-2.2c-.5-.9-1.6-1.8-2.9-2.7-1.2-.9-2.4-1.9-3.5-3.1-2.6-3.1-3.3-7.2-1.9-11.3l1.1-3.2 1.3 3.1c.5 1.2 1.7 2.1 3.2 3.1l.2.1c.4.3.9.6 1.4 1 .9.7 1.6 1.5 2.2 2.6.6-1 1.3-1.9 2.2-2.6.5-.4.9-.7 1.4-1l.2-.1c1.5-1.1 2.7-1.9 3.2-3.2l1.3-3.1 1.1 3.2c1.4 4.1.7 8.2-1.9 11.3-1 1.2-2.3 2.2-3.4 3.1-1.3.9-2.4 1.8-2.9 2.7L50.3 56zm7.5-15.8c-.7.6-1.4 1.2-2.2 1.7-.5.4-1 .7-1.5 1.1-1.3 1-2.1 2.6-2.5 4.6l-.5 2.8c.5-.5 1.1-.9 1.7-1.3 1.1-.8 2.2-1.7 3.1-2.7 1.4-1.8 2.1-3.9 1.9-6.2zm-15 0c-.2 2.3.5 4.4 2 6.2.9 1 2 1.9 3 2.7.6.5 1.2.9 1.7 1.3l-.5-2.8c-.4-2.1-1.2-3.6-2.5-4.6-.5-.4-.9-.7-1.4-1l.2-.6-.3.5c-.8-.6-1.6-1.1-2.2-1.7zm7.1 5.6c.2.5.3 1 .4 1.5.1-.5.2-1 .4-1.5l-.4.9-.4-.9z"/></g><g fill="#C0924B"><path d="M50.3 66.1l-.6-1.1c-.5-1.1-1.8-2-3-3-1.2-.9-2.4-1.8-3.4-3-2.5-2.9-3.1-6.8-1.8-10.7l.5-1.6.7 1.5c.6 1.4 1.9 2.3 3.4 3.4.5.4 1 .7 1.5 1.1 1.2.9 2 2.1 2.6 3.5.6-1.5 1.5-2.7 2.6-3.5.5-.4 1-.8 1.5-1.1 1.6-1.1 2.8-2 3.4-3.4l.7-1.5.5 1.6c1.3 3.9.7 7.8-1.8 10.7-1 1.2-2.2 2.1-3.4 3-1.3 1-2.5 1.9-3 3l-.4 1.1zm-8-15.9c-.6 3 0 5.8 1.9 8 .9 1.1 2.1 1.9 3.2 2.8 1.1.8 2.1 1.6 2.8 2.5.7-.9 1.8-1.7 2.8-2.5 1.1-.8 2.3-1.7 3.2-2.8 1.9-2.2 2.6-5.1 1.9-8-.8 1-1.9 1.8-3.1 2.6-.5.3-1 .7-1.5 1.1-1.4 1.1-2.4 2.8-2.8 5l-.6 3.5-.4-3.4c-.4-2.2-1.3-3.9-2.8-5-.5-.4-1-.8-1.5-1.1-1.2-.9-2.3-1.7-3.1-2.7z"/><path d="M50.3 67.5l-1.1-2.2c-.5-.9-1.6-1.8-2.9-2.7-1.2-.9-2.4-1.8-3.5-3.1-2.6-3.1-3.3-7.2-1.9-11.3L42 45l1.3 3.1c.5 1.2 1.7 2.1 3.2 3.2.5.4 1 .7 1.6 1.1.9.7 1.6 1.5 2.2 2.6.6-1 1.3-1.9 2.2-2.6.5-.4 1-.8 1.5-1.1 1.6-1.1 2.7-2 3.3-3.2l1.3-3.1 1.1 3.2c1.4 4.1.7 8.2-1.9 11.3-1 1.2-2.3 2.2-3.5 3.1-1.2.9-2.4 1.8-2.9 2.7l-1.1 2.2zm7.5-15.8c-.7.6-1.4 1.2-2.2 1.7-.5.3-1 .7-1.5 1.1-1.3 1-2.1 2.6-2.5 4.6l-.5 2.8c.5-.5 1.1-.9 1.7-1.3 1.1-.8 2.2-1.7 3.1-2.7 1.4-1.8 2.1-3.9 1.9-6.2zm-15 0c-.2 2.3.5 4.4 2 6.2.9 1 2 1.9 3.1 2.7.6.4 1.2.9 1.7 1.3l-.6-2.8c-.4-2.1-1.2-3.6-2.5-4.6-.5-.4-1-.7-1.5-1.1-.8-.6-1.5-1.1-2.2-1.7zm7.1 5.6c.2.5.3 1 .4 1.5.1-.5.2-1 .4-1.5l-.4.9-.4-.9z"/></g><g fill="#C0924B"><path d="M50.3 77.6l-.6-1.1c-.5-1.1-1.8-2-3-3-1.2-.9-2.4-1.8-3.4-3-2.5-2.9-3.1-6.8-1.8-10.7l.5-1.6.7 1.5c.6 1.4 1.8 2.3 3.4 3.4.5.4 1 .7 1.5 1.1 1.2.9 2 2.1 2.6 3.5.6-1.5 1.5-2.7 2.6-3.5.5-.4 1-.8 1.5-1.1 1.6-1.1 2.8-2 3.4-3.4l.7-1.5.5 1.6c1.3 3.9.7 7.8-1.8 10.7-1 1.2-2.2 2.1-3.4 3-1.3 1-2.5 1.9-3 3l-.4 1.1zm-8-15.9c-.6 3 .1 5.8 1.9 8 .9 1.1 2.1 1.9 3.2 2.8 1.1.8 2.1 1.6 2.8 2.5.7-.9 1.8-1.7 2.8-2.5 1.1-.8 2.3-1.7 3.2-2.8 1.9-2.2 2.6-5.1 1.9-8-.8 1-1.9 1.8-3.1 2.6-.5.3-1 .7-1.5 1.1-1.4 1.1-2.4 2.8-2.8 5l-.4 3.6-.6-3.5c-.4-2.2-1.3-3.9-2.8-5-.5-.4-1-.8-1.5-1.1-1.2-.9-2.3-1.7-3.1-2.7z"/><path d="M50.3 79l-1.1-2.2c-.5-.9-1.6-1.8-2.9-2.7-1.2-.9-2.4-1.8-3.5-3.1-2.6-3.1-3.3-7.2-1.9-11.3l1.1-3.2 1.3 3.1c.5 1.2 1.7 2.1 3.2 3.2.5.4 1 .7 1.6 1.1.9.7 1.6 1.5 2.2 2.6.6-1 1.3-1.9 2.2-2.6.5-.4 1.1-.8 1.6-1.1 1.5-1.1 2.7-1.9 3.2-3.2l1.3-3.1 1.1 3.2c1.4 4.1.7 8.2-1.9 11.3-1 1.2-2.3 2.2-3.5 3.1-1.2.9-2.4 1.8-2.9 2.7L50.3 79zm-7.5-15.9c-.2 2.3.5 4.5 2 6.2.8 1 2 1.8 3 2.7.6.5 1.2.9 1.7 1.4l-.5-2.8c-.4-2.1-1.2-3.6-2.5-4.6-.5-.4-1-.7-1.5-1.1-.8-.6-1.5-1.1-2.2-1.8zm15 0c-.7.6-1.4 1.2-2.2 1.7-.5.3-1 .7-1.5 1.1-1.3 1-2.1 2.6-2.5 4.6l-.5 2.8c.5-.5 1.1-.9 1.7-1.3 1.1-.8 2.2-1.7 3.1-2.7 1.4-1.7 2-3.9 1.9-6.2zm-7.9 5.7c.2.5.3 1 .4 1.5.1-.5.2-1 .4-1.5l-.4.9-.4-.9z"/></g><g fill="#C0924B"><path d="M50.3 43.1l-.5-.9c-.5-.8-1.1-1.4-1.8-2-.7-.7-1.4-1.4-2.1-2.4-2.5-3.8-1-8.4 4-12.3l.4-.3.4.3c5 3.9 6.6 8.4 4 12.3-.7 1-1.4 1.7-2.1 2.4-.7.7-1.3 1.3-1.8 2.1l-.5.8zm0-16.3c-4.2 3.4-5.4 7.1-3.3 10.3.6.9 1.3 1.6 1.9 2.2.5.5 1 1 1.4 1.5.4-.6.9-1 1.4-1.5.7-.7 1.3-1.3 1.9-2.2 2.1-3.2.9-6.9-3.3-10.3z"/><path d="M50.3 44.3l-1.1-1.7c-.5-.7-1-1.3-1.7-1.9-.7-.7-1.5-1.5-2.2-2.5-2.7-4.1-1.2-9.1 4.2-13.1l.8-.6.8.6c5.4 4.1 6.9 9 4.2 13.1-.7 1.1-1.5 1.8-2.2 2.5-.6.6-1.2 1.2-1.7 1.9l-1.1 1.7zm0-16.7c-3.6 3.1-4.6 6.3-2.8 9.1.5.8 1.2 1.5 1.8 2.1l1 1c.3-.3.6-.7 1-1 .6-.6 1.3-1.3 1.8-2.1 1.8-2.8.8-6-2.8-9.1z"/></g><g fill="#C0924B"><path d="M42.1 37.8c-.4 0-.6-.3-.6-.6v-7.9c0-.4.3-.6.6-.6.4 0 .6.3.6.6v7.9c.1.3-.2.6-.6.6z"/><path d="M42.1 38.5c-.7 0-1.3-.6-1.3-1.3v-7.9c0-.7.6-1.3 1.3-1.3.7 0 1.3.6 1.3 1.3v7.9c0 .7-.6 1.3-1.3 1.3z"/></g><g fill="#C0924B"><path d="M58.4 37.8c-.4 0-.6-.3-.6-.6v-7.9c0-.4.3-.6.6-.6.4 0 .6.3.6.6v7.9c.1.3-.2.6-.6.6z"/><path d="M58.4 38.5c-.7 0-1.3-.6-1.3-1.3v-7.9c0-.7.6-1.3 1.3-1.3.7 0 1.3.6 1.3 1.3v7.9c0 .7-.5 1.3-1.3 1.3z"/></g><g fill="#C0924B"><path d="M50.3 26.6c-.4 0-.6-.3-.6-.6v-8.6c0-.4.3-.6.6-.6.4 0 .6.3.6.6V26c0 .3-.3.6-.6.6z"/><path d="M50.3 27.3c-.7 0-1.3-.6-1.3-1.3v-8.6c0-.7.6-1.3 1.3-1.3.7 0 1.3.6 1.3 1.3V26c0 .7-.6 1.3-1.3 1.3z"/></g><g fill="#C0924B"><path d="M50.3 38.3c-.4 0-.6-.3-.6-.6V29c0-.4.3-.6.6-.6.4 0 .6.3.6.6v8.7c0 .3-.3.6-.6.6z"/><path d="M50.3 38.9c-.7 0-1.3-.6-1.3-1.3V29c0-.7.6-1.3 1.3-1.3.7 0 1.3.6 1.3 1.3v8.7c0 .7-.6 1.2-1.3 1.2z"/></g><g fill="#C0924B"><path d="M50.3 83.8c-.4 0-.6-.3-.6-.6v-6.9c0-.4.3-.6.6-.6.4 0 .6.3.6.6v6.9c0 .3-.3.6-.6.6z"/><path d="M50.3 84.4c-.7 0-1.3-.6-1.3-1.3v-6.9c0-.7.6-1.3 1.3-1.3.7 0 1.3.6 1.3 1.3v6.9c0 .7-.6 1.3-1.3 1.3z"/></g><g fill="#C0924B"><path d="M71.4 59.8l-.6-1.1c-.4-.8-1.4-1.6-2.5-2.4-1-.7-2-1.5-2.8-2.5-2.1-2.4-2.6-5.7-1.5-8.9l.5-1.6.7 1.5c.5 1.1 1.5 1.9 2.8 2.8.4.3.8.6 1.3.9.9.7 1.6 1.6 2.1 2.7.5-1.1 1.2-2 2.1-2.7.4-.3.9-.6 1.3-.9 1.3-.9 2.3-1.7 2.8-2.8l.7-1.5.5 1.6c1.1 3.2.6 6.5-1.5 8.9-.8 1-1.8 1.7-2.8 2.5-1.1.8-2.1 1.6-2.5 2.4l-.6 1.1zm-6.5-13.1c-.4 2.3.1 4.6 1.6 6.3.7.9 1.7 1.6 2.6 2.3.9.7 1.7 1.3 2.3 2 .6-.7 1.4-1.3 2.3-2 .9-.7 1.9-1.4 2.6-2.3 1.5-1.8 2.1-4 1.6-6.3-.6.7-1.5 1.4-2.4 2l-1.2.9c-1.2.9-1.9 2.3-2.2 4.1l-.6 3.5-.6-3.5c-.3-1.8-1.1-3.2-2.2-4.1l-1.2-.9c-1.1-.7-1.9-1.3-2.6-2z"/><path d="M71.4 61.2L70.3 59c-.4-.7-1.3-1.4-2.3-2.2-1-.8-2.1-1.6-2.9-2.6-2.2-2.6-2.8-6.1-1.6-9.6l1.1-3.2 1.3 3.1c.4 1 1.3 1.6 2.6 2.5.4.3.8.6 1.3 1 .7.5 1.2 1.1 1.7 1.9.5-.7 1-1.3 1.7-1.9l1.2-.9.1-.1c1.3-.9 2.2-1.6 2.6-2.5l1.3-3.1 1.1 3.2c1.2 3.5.6 6.9-1.6 9.6-.9 1-1.9 1.8-2.9 2.6s-2 1.5-2.3 2.2l-1.3 2.2zm-6-13.1c0 1.7.5 3.2 1.6 4.5.7.8 1.6 1.5 2.5 2.2.3.2.6.5.9.7l-.3-1.7c-.3-1.6-1-2.9-2-3.7l-1.2-.9c-.5-.4-1-.7-1.5-1.1zm12 0c-.5.4-1 .8-1.5 1.1-.5.3-.8.6-1.2.9-1 .8-1.7 2-2 3.7l-.3 1.7c.3-.2.6-.5.9-.7.9-.7 1.8-1.4 2.5-2.2 1.1-1.3 1.7-2.8 1.6-4.5zm-6.3 4c.2.4.3.9.4 1.4.1-.5.2-1 .4-1.4l-.4.9-.4-.9z"/><path d="M71.4 69.3l-.6-1.1c-.4-.8-1.4-1.6-2.5-2.4-1-.7-2-1.5-2.8-2.5-2.1-2.4-2.6-5.7-1.5-8.9l.5-1.6.7 1.5c.5 1.1 1.5 1.9 2.8 2.8.4.3.8.6 1.3.9.9.7 1.6 1.6 2.1 2.7.5-1.1 1.2-2 2.1-2.7.4-.3.9-.6 1.3-.9 1.3-.9 2.3-1.7 2.8-2.8l.7-1.5.5 1.6c1.1 3.2.6 6.5-1.5 8.9-.8 1-1.8 1.7-2.8 2.5-1.1.8-2.1 1.6-2.5 2.4l-.6 1.1zm-6.5-13.1c-.4 2.3.1 4.6 1.6 6.3.7.9 1.7 1.6 2.6 2.3.9.7 1.7 1.3 2.3 2 .6-.7 1.4-1.3 2.3-2 .9-.7 1.9-1.4 2.6-2.3 1.5-1.8 2.1-4 1.6-6.3-.6.7-1.5 1.3-2.4 2l-1.2.9c-1.2.9-1.9 2.3-2.2 4.1l-.6 3.5-.6-3.5c-.3-1.8-1.1-3.2-2.2-4.1l-1.2-.9c-1.1-.7-1.9-1.3-2.6-2z"/><path d="M71.4 70.7l-1.1-2.2c-.4-.7-1.3-1.4-2.3-2.2-1-.8-2-1.5-2.9-2.6-2.2-2.6-2.8-6.1-1.6-9.6l1.1-3.2 1.3 3.1c.4 1 1.3 1.6 2.6 2.5.4.3.8.6 1.3.9.7.5 1.2 1.1 1.7 1.9.5-.7 1-1.4 1.7-1.9.4-.3.9-.6 1.3-.9 1.2-.9 2.2-1.6 2.6-2.5l1.3-3.1 1.1 3.2c1.2 3.5.6 6.9-1.6 9.6-.9 1-1.9 1.8-2.9 2.6s-1.9 1.5-2.3 2.2l-1.3 2.2zm-6-13.1c0 1.7.5 3.2 1.6 4.5.7.8 1.6 1.5 2.5 2.2.3.2.7.5 1 .7l-.3-1.7c-.3-1.7-1-2.9-2-3.7l-1.2-.9c-.6-.4-1.1-.7-1.6-1.1zm12 0c-.5.4-1 .8-1.5 1.1l-1.2.9c-1 .8-1.7 2-2 3.7l-.3 1.7c.3-.2.6-.5.9-.7.9-.7 1.8-1.4 2.5-2.2 1.1-1.3 1.7-2.9 1.6-4.5zm-6.3 4c.2.4.3.9.4 1.4.1-.5.2-1 .4-1.4l-.4.9-.4-.9z"/><path d="M71.4 78.8l-.6-1.1c-.4-.8-1.4-1.6-2.5-2.4-1-.7-2-1.5-2.8-2.5-2.1-2.4-2.6-5.7-1.5-8.9l.5-1.6.7 1.5c.5 1.1 1.5 1.9 2.8 2.8.4.3.8.6 1.3.9.9.7 1.6 1.6 2.1 2.7.5-1.1 1.2-2 2.1-2.7.4-.3.9-.6 1.3-.9 1.3-.9 2.3-1.7 2.8-2.8l.7-1.5.5 1.6c1.1 3.2.6 6.5-1.5 8.9-.8 1-1.8 1.7-2.8 2.5-1.1.8-2.1 1.6-2.5 2.4l-.6 1.1zm-6.5-13.1c-.4 2.3.1 4.6 1.6 6.3.7.9 1.7 1.6 2.6 2.3.9.7 1.7 1.3 2.3 2 .6-.7 1.4-1.3 2.3-2 .9-.7 1.9-1.4 2.6-2.3 1.5-1.8 2.1-4 1.6-6.3-.6.7-1.5 1.3-2.4 2l-1.2.9c-1.2.9-1.9 2.3-2.2 4.1l-.6 3.5-.6-3.5c-.3-1.8-1.1-3.2-2.2-4.1l-1.2-.9c-1.1-.7-1.9-1.3-2.6-2z"/><path d="M71.4 80.2L70.3 78c-.4-.7-1.3-1.4-2.3-2.2-1-.8-2-1.5-2.9-2.6-2.2-2.6-2.8-6.1-1.6-9.6l1.1-3.2 1.3 3.1c.4 1 1.4 1.7 2.6 2.5.5.3.9.6 1.3.9.7.5 1.2 1.1 1.7 1.9.5-.7 1-1.3 1.7-1.9.4-.3.8-.6 1.1-.8l.2-.1c1.2-.9 2.2-1.6 2.6-2.5l1.3-3.1 1.1 3.2c1.2 3.5.6 6.9-1.6 9.6-.9 1-1.9 1.8-2.9 2.6s-1.9 1.5-2.3 2.2l-1.3 2.2zm-6-13.1c0 1.7.5 3.2 1.6 4.5.7.8 1.6 1.5 2.5 2.2.3.2.6.5.9.7l-.3-1.7c-.3-1.6-1-2.9-2-3.7l-1.2-.9c-.5-.4-1-.8-1.5-1.1zm12 0c-.5.4-1 .8-1.5 1.1l-1.2.9c-1 .8-1.7 2-2 3.7l-.3 1.7c.3-.2.6-.5.9-.7.9-.7 1.8-1.4 2.5-2.2 1.1-1.3 1.7-2.9 1.6-4.5zm-6.3 4c.2.4.3.9.4 1.4.1-.5.2-1 .4-1.4l-.4.9-.4-.9zm.3-20.9l-.5-.9c-.4-.6-.9-1.1-1.5-1.7-.6-.6-1.2-1.2-1.7-2-2.1-3.2-.9-7.1 3.3-10.3l.4-.3.4.3c4.2 3.2 5.5 7.1 3.3 10.3-.5.8-1.2 1.4-1.7 2-.5.5-1.1 1-1.5 1.7l-.5.9zm0-13.5C68 39.4 67 42.4 68.7 45c.5.7 1 1.3 1.6 1.8.4.4.7.7 1.1 1.2.3-.4.7-.8 1.1-1.2.5-.5 1.1-1.1 1.6-1.8 1.7-2.6.7-5.6-2.7-8.3z"/><path d="M71.4 51.4l-1.1-1.7c-.4-.6-.8-1.1-1.4-1.6-.6-.6-1.2-1.2-1.8-2.1-2.3-3.5-1-7.7 3.5-11.2l.8-.6.8.6c4.5 3.5 5.8 7.6 3.5 11.2-.6.9-1.2 1.5-1.8 2.1-.5.5-1 1-1.4 1.6l-1.1 1.7zm0-13.9c-1.8 1.6-4 4.3-2.1 7.1.4.7 1 1.2 1.5 1.7l.7.7.6-.6c.5-.5 1-1 1.5-1.7 1.8-2.9-.4-5.6-2.2-7.2zm-6.7 8.2c-.4 0-.6-.3-.6-.6v-6.5c0-.4.3-.6.6-.6.4 0 .6.3.6.6v6.5c0 .4-.3.6-.6.6z"/><path d="M64.7 46.4c-.7 0-1.3-.6-1.3-1.3v-6.5c0-.7.6-1.3 1.3-1.3.7 0 1.3.6 1.3 1.3v6.5c0 .7-.6 1.3-1.3 1.3zm13.5-.7c-.4 0-.6-.3-.6-.6v-6.5c0-.4.3-.6.6-.6.4 0 .6.3.6.6v6.5c0 .4-.3.6-.6.6z"/><path d="M78.2 46.4c-.7 0-1.3-.6-1.3-1.3v-6.5c0-.7.6-1.3 1.3-1.3.7 0 1.3.6 1.3 1.3v6.5c0 .7-.6 1.3-1.3 1.3zm-6.8-9.9c-.4 0-.6-.3-.6-.6v-7.1c0-.4.3-.6.6-.6.4 0 .6.3.6.6v7.1c.1.3-.2.6-.6.6z"/><path d="M71.4 37.1c-.7 0-1.3-.6-1.3-1.3v-7.1c0-.7.6-1.3 1.3-1.3.7 0 1.3.6 1.3 1.3v7.1c0 .8-.6 1.3-1.3 1.3zm0 9c-.4 0-.6-.3-.6-.6v-7.2c0-.4.3-.6.6-.6.4 0 .6.3.6.6v7.2c.1.4-.2.6-.6.6z"/><path d="M71.4 46.8c-.7 0-1.3-.6-1.3-1.3v-7.2c0-.7.6-1.3 1.3-1.3.7 0 1.3.6 1.3 1.3v7.2c0 .7-.6 1.3-1.3 1.3zm0 37c-.4 0-.6-.3-.6-.6v-5.7c0-.4.3-.6.6-.6.4 0 .6.3.6.6v5.7c.1.3-.2.6-.6.6z"/><path d="M71.4 84.4c-.7 0-1.3-.6-1.3-1.3v-5.7c0-.7.6-1.3 1.3-1.3.7 0 1.3.6 1.3 1.3v5.7c0 .7-.6 1.3-1.3 1.3z"/></g><g fill="#C0924B"><path d="M29.1 59.8l-.6-1.1c-.4-.8-1.4-1.6-2.5-2.4-1-.7-2-1.5-2.8-2.5-2.1-2.4-2.6-5.7-1.5-8.9l.5-1.6.7 1.5c.5 1.1 1.5 1.9 2.8 2.8.4.3.8.6 1.3.9.9.7 1.6 1.6 2.1 2.7.5-1.1 1.2-2 2.1-2.7.4-.3.9-.6 1.3-.9 1.3-.9 2.3-1.7 2.8-2.8l.7-1.5.5 1.6c1.1 3.2.6 6.5-1.5 8.9-.8 1-1.8 1.7-2.8 2.5-1.1.8-2.1 1.6-2.5 2.4l-.6 1.1zm-6.5-13.1c-.4 2.3.1 4.6 1.6 6.3.7.9 1.7 1.6 2.6 2.3.9.7 1.7 1.3 2.3 2 .6-.7 1.4-1.3 2.3-2 .9-.7 1.9-1.4 2.6-2.3 1.5-1.8 2.1-4 1.6-6.3-.6.7-1.5 1.3-2.4 2l-1.2.9c-1.2.9-1.9 2.3-2.2 4.1l-.6 3.5-.6-3.5c-.3-1.8-1.1-3.2-2.2-4.1l-1.2-.9c-1.1-.7-1.9-1.3-2.6-2z"/><path d="M29.1 61.2L28 59c-.4-.7-1.3-1.4-2.3-2.2-1-.8-2-1.6-2.9-2.6-2.2-2.6-2.8-6.1-1.6-9.6l1.1-3.2 1.3 3.1c.4 1 1.3 1.6 2.6 2.5.4.3.8.6 1.3 1 .7.5 1.2 1.1 1.7 1.9.5-.7 1-1.3 1.7-1.9.5-.3.9-.7 1.3-.9 1.3-.9 2.2-1.6 2.6-2.5l1.3-3.1 1.1 3.2c1.2 3.5.6 6.9-1.6 9.6-.9 1-1.9 1.8-2.9 2.6s-2 1.5-2.3 2.2l-1.3 2.1zm6-13.1c-.5.4-1 .8-1.5 1.1l-1.2.9c-1 .8-1.7 2-2 3.7l-.3 1.7c.3-.2.6-.5.9-.7.9-.7 1.8-1.4 2.5-2.2 1.1-1.3 1.7-2.8 1.6-4.5zm-12 0c0 1.7.5 3.2 1.6 4.5.7.8 1.6 1.5 2.5 2.2.3.2.6.5.9.7l-.3-1.7c-.3-1.6-1-2.9-2-3.7l-1.2-.9c-.5-.4-1-.7-1.5-1.1zm5.6 4c.2.4.3.9.4 1.4.1-.5.2-1 .4-1.4l-.4.9-.4-.9z"/><path d="M29.1 69.3l-.6-1.1c-.4-.8-1.4-1.6-2.5-2.4-1-.7-2-1.5-2.8-2.5-2.1-2.4-2.6-5.7-1.5-8.9l.5-1.6.7 1.5c.5 1.1 1.5 1.9 2.8 2.8.4.3.8.6 1.3.9.9.7 1.6 1.6 2.1 2.7.5-1.1 1.2-2 2.1-2.7.4-.3.9-.6 1.3-.9 1.3-.9 2.3-1.7 2.8-2.8l.7-1.5.5 1.6c1.1 3.2.6 6.5-1.5 8.9-.8 1-1.8 1.7-2.8 2.5-1.1.8-2.1 1.6-2.5 2.4l-.6 1.1zm-6.5-13.1c-.4 2.3.1 4.6 1.6 6.3.7.9 1.7 1.6 2.6 2.3.9.7 1.7 1.3 2.3 2 .6-.7 1.4-1.3 2.3-2 .9-.7 1.9-1.4 2.6-2.3 1.5-1.8 2.1-4 1.6-6.3-.6.7-1.5 1.3-2.4 2l-1.2.9c-1.2.9-1.9 2.3-2.2 4.1l-.6 3.5-.6-3.5c-.3-1.8-1.1-3.2-2.2-4.1l-1.2-.9c-1.1-.7-1.9-1.3-2.6-2z"/><path d="M29.1 70.7L28 68.5c-.4-.7-1.3-1.4-2.3-2.2-1-.8-2-1.5-2.9-2.6-2.2-2.6-2.8-6.1-1.6-9.6l1.1-3.2 1.3 3.1c.4 1 1.4 1.7 2.6 2.5l.1.1c.4.3.7.5 1.1.8.7.5 1.2 1.1 1.7 1.9.5-.7 1-1.4 1.7-1.9.5-.3.9-.7 1.3-.9 1.3-.9 2.2-1.6 2.6-2.5l1.3-3 1.1 3.2c1.2 3.5.6 6.9-1.6 9.6-.9 1-1.9 1.8-2.9 2.6s-1.9 1.5-2.3 2.2l-1.2 2.1zm6-13.1c-.5.4-1 .8-1.5 1.1l-1.2.9c-1 .8-1.7 2-2 3.7l-.3 1.7c.3-.2.6-.5.9-.7.9-.7 1.8-1.4 2.5-2.2 1.1-1.3 1.7-2.9 1.6-4.5zm-12 0c0 1.7.5 3.2 1.6 4.5.7.8 1.6 1.5 2.5 2.2.3.2.6.5.9.7l-.3-1.7c-.3-1.7-1-2.9-2-3.7l-1.2-.9c-.5-.4-1-.7-1.5-1.1zm5.6 4c.2.4.3.9.4 1.4.1-.5.2-1 .4-1.4l-.4.9-.4-.9z"/><path d="M29.1 78.8l-.6-1.1c-.4-.8-1.4-1.6-2.5-2.4-1-.7-2-1.5-2.8-2.5-2.1-2.4-2.6-5.7-1.5-8.9l.5-1.6.7 1.5c.5 1.1 1.5 1.9 2.8 2.8.4.3.8.6 1.3.9.9.7 1.6 1.6 2.1 2.7.5-1.1 1.2-2 2.1-2.7.4-.3.9-.6 1.3-.9 1.3-.9 2.3-1.7 2.8-2.8l.7-1.5.5 1.6c1.1 3.2.6 6.5-1.5 8.9-.8 1-1.8 1.7-2.8 2.5-1.1.8-2.1 1.6-2.5 2.4l-.6 1.1zm-6.5-13.1c-.4 2.3.1 4.6 1.6 6.3.7.9 1.7 1.6 2.6 2.3.9.7 1.7 1.3 2.3 2 .6-.7 1.4-1.3 2.3-2 .9-.7 1.9-1.4 2.6-2.3 1.5-1.8 2.1-4 1.6-6.3-.6.7-1.5 1.3-2.4 2l-1.2.9c-1.2.9-1.9 2.3-2.2 4.1l-.6 3.5-.6-3.5c-.3-1.8-1.1-3.2-2.2-4.1l-1.2-.9c-1.1-.7-1.9-1.3-2.6-2z"/><path d="M29.1 80.2L28 78c-.4-.7-1.3-1.4-2.3-2.2-1-.8-2-1.5-2.9-2.6-2.2-2.6-2.8-6.1-1.6-9.6l1.1-3.2 1.3 3.1c.4 1 1.4 1.7 2.6 2.5l.2.1c.4.3.7.5 1.1.8.7.5 1.2 1.1 1.7 1.9.5-.7 1-1.3 1.7-1.9l1.2-.9c1.3-.9 2.3-1.6 2.7-2.6l1.3-3.1 1.1 3.2c1.2 3.5.6 6.9-1.6 9.6-.9 1-1.9 1.8-2.9 2.6s-1.9 1.5-2.3 2.2l-1.3 2.3zm6-13.1c-.5.4-1 .8-1.5 1.1l-1.2.9c-1 .8-1.7 2-2 3.7l-.3 1.7c.3-.2.6-.5.9-.7.9-.7 1.8-1.4 2.5-2.2 1.1-1.3 1.7-2.9 1.6-4.5zm-12 0c0 1.7.5 3.2 1.6 4.5.7.8 1.6 1.5 2.5 2.2.3.2.6.5.9.7l-.3-1.7c-.3-1.6-1-2.9-2-3.7l-1.2-.9c-.5-.4-1-.8-1.5-1.1zm5.7 4c.2.4.3.9.4 1.4.1-.5.2-1 .4-1.4l-.4.9-.4-.9zm.3-20.9l-.5-.9c-.4-.6-.9-1.1-1.5-1.7-.6-.6-1.2-1.2-1.7-2-2.1-3.2-.9-7.1 3.3-10.3l.4-.3.4.3c4.2 3.2 5.5 7.1 3.3 10.3-.5.8-1.2 1.4-1.7 2-.5.5-1.1 1-1.5 1.7l-.5.9zm0-13.5c-3.4 2.7-4.4 5.7-2.7 8.3.5.7 1 1.3 1.6 1.8.4.4.7.7 1.1 1.2.3-.4.7-.8 1.1-1.2.5-.5 1.1-1.1 1.6-1.8 1.7-2.6.7-5.6-2.7-8.3z"/><path d="M29.1 51.4L28 49.7c-.4-.6-.8-1.1-1.4-1.6-.6-.6-1.2-1.2-1.8-2.1-2.3-3.5-1-7.7 3.5-11.2l.8-.6.8.6c4.5 3.5 5.8 7.6 3.5 11.2-.6.9-1.2 1.5-1.8 2.1-.5.5-1 1-1.4 1.6l-1.1 1.7zm0-13.9c-1.8 1.6-4 4.3-2.1 7.1.4.7 1 1.2 1.5 1.7l.6.6.6-.6c.5-.5 1.1-1.1 1.5-1.7 1.9-2.8-.3-5.5-2.1-7.1zm-6.7 8.2c-.4 0-.6-.3-.6-.6v-6.5c0-.4.3-.6.6-.6.4 0 .6.3.6.6v6.5c0 .4-.3.6-.6.6z"/><path d="M22.4 46.4c-.7 0-1.3-.6-1.3-1.3v-6.5c0-.7.6-1.3 1.3-1.3.7 0 1.3.6 1.3 1.3v6.5c0 .7-.6 1.3-1.3 1.3zm13.5-.7c-.4 0-.6-.3-.6-.6v-6.5c0-.4.3-.6.6-.6.4 0 .6.3.6.6v6.5c0 .4-.3.6-.6.6z"/><path d="M35.9 46.4c-.7 0-1.3-.6-1.3-1.3v-6.5c0-.7.6-1.3 1.3-1.3.7 0 1.3.6 1.3 1.3v6.5c0 .7-.6 1.3-1.3 1.3zm-6.8-9.9c-.4 0-.6-.3-.6-.6v-7.1c0-.4.3-.6.6-.6s.6.3.6.6v7.1c.1.3-.2.6-.6.6z"/><path d="M29.1 37.1c-.7 0-1.3-.6-1.3-1.3v-7.1c0-.7.6-1.3 1.3-1.3.7 0 1.3.6 1.3 1.3v7.1c0 .8-.6 1.3-1.3 1.3zm0 9c-.4 0-.6-.3-.6-.6v-7.2c0-.4.3-.6.6-.6s.6.3.6.6v7.2c.1.4-.2.6-.6.6z"/><path d="M29.1 46.8c-.7 0-1.3-.6-1.3-1.3v-7.2c0-.7.6-1.3 1.3-1.3.7 0 1.3.6 1.3 1.3v7.2c0 .7-.6 1.3-1.3 1.3zm0 37c-.4 0-.6-.3-.6-.6v-5.7c0-.4.3-.6.6-.6s.6.3.6.6v5.7c.1.3-.2.6-.6.6z"/><path d="M29.1 84.4c-.7 0-1.3-.6-1.3-1.3v-5.7c0-.7.6-1.3 1.3-1.3.7 0 1.3.6 1.3 1.3v5.7c0 .7-.6 1.3-1.3 1.3z"/></g><g fill="#2A2A36"><path d="M50.3 99.9c-13.3 0-25.7-5.2-35.1-14.5C5.8 76 .6 63.5.6 50.3s5.2-25.7 14.5-35.1C24.6 5.8 37 .6 50.3.6 63.6.6 76 5.8 85.4 15.1S99.9 37 99.9 50.3 94.7 76 85.4 85.4 63.5 99.9 50.3 99.9zm0-98c-12.9 0-25.1 5-34.2 14.2C7 25.2 1.9 37.4 1.9 50.3s5 25.1 14.2 34.2c9.1 9.1 21.3 14.2 34.2 14.2 12.9 0 25.1-5 34.2-14.2 9.1-9.1 14.2-21.3 14.2-34.2s-5-25.1-14.2-34.2C75.3 7 63.2 1.9 50.3 1.9z"/><path d="M50.3 100.6c-13.4 0-26.1-5.2-35.6-14.7C5.2 76.3 0 63.7 0 50.3s5.2-26.1 14.7-35.6S36.8 0 50.3 0s26.1 5.2 35.6 14.7 14.7 22.1 14.7 35.6-5.2 26.1-14.7 35.6c-9.6 9.4-22.2 14.7-35.6 14.7zm0-98c-12.7 0-24.7 5-33.7 14-9 9-14 21-14 33.7 0 12.7 5 24.7 14 33.7 9 9 21 14 33.7 14C63 98 75 93 84 84c9-9 14-21 14-33.7s-5-24.7-14-33.7c-9-9.1-21-14-33.7-14z"/><path d="M14.7 84.6c-.2 0-.3-.1-.5-.2-.2-.2-.2-.7 0-.9l6.6-6.6c.2-.2.7-.2.9 0 .2.2.2.7 0 .9l-6.6 6.6c-.1.1-.2.2-.4.2z"/><path d="M14.7 85.2c-.3 0-.7-.1-.9-.4-.5-.5-.5-1.3 0-1.8l6.6-6.6c.5-.5 1.3-.5 1.8 0 .2.2.4.6.4.9s-.1.7-.4.9l-6.6 6.6c-.2.3-.6.4-.9.4zm60.4-61c-.2 0-.3-.1-.5-.2-.2-.2-.2-.7 0-.9l8.8-8.8c.2-.2.7-.2.9 0 .2.2.2.7 0 .9L75.6 24c-.2.1-.3.2-.5.2z"/><path d="M75.1 24.8c-.3 0-.7-.1-.9-.4-.2-.2-.4-.6-.4-.9s.1-.7.4-.9l8.8-8.8c.5-.5 1.3-.5 1.8 0 .2.2.4.6.4.9s-.1.7-.4.9L76 24.4c-.2.3-.6.4-.9.4z"/></g></svg>