<svg xmlns="http://www.w3.org/2000/svg" viewBox="0 0 100.6 100.6"><path fill="#C0924B" d="M47.7 57.5c0-2.2-.3-7.3 2.9-7.3 1.7 0 1.1 5.5 1.1 6.5l1.3-1.3c-.9.1-1.8.3-2.7.4-1.2.2-2.5 0-3.8 0l1.3 1.3v-.4c-.1-1.7-2.7-1.7-2.6 0v.4c0 .7.6 1.3 1.3 1.3 1 0 1.9.1 2.9.1 1.2 0 2.4-.4 3.5-.5.7-.1 1.3-.5 1.3-1.3.2-3.2.6-8.6-3.7-9.1-2.1-.3-4 1.6-4.7 3.4-.8 2-.8 4.3-.8 6.5.1 1.6 2.7 1.6 2.7 0zm-18.7.9v-.5c-.1-.8-.6-1.2-1.3-1.3-1.3-.1-2.9.8-2.9 2.2-.1 1.4 1.1 2.4 2.4 2.4 2.4 0 3.5-4.1.6-4.2-1.7-.1-1.7 2.5 0 2.6-.8 0-.8-1-.8-1-.5.6.5.5.7.6l-1.3-1.3v.5c0 1.7 2.5 1.6 2.6 0zm43.5-2c-2.9-.1-2.9 4.9-.2 4.7 1.2-.1 3-1.4 2.5-2.9-.5-1.4-1.9-1.7-3.2-1.8-1.7-.1-1.7 2.5 0 2.6.2 0 .4 0 .6.1 1.1.2-.8 0 0-.6.6-.5.9.5.3.4 1.7.1 1.7-2.5 0-2.5zm-31-19.1c-3.4 0-4.6-2.9-4.8-5.8-.3-3.7 2.9-6 5.4-8 3.2-2.5 8.4-5 9.2-9.5.3-1.6-2.2-2.3-2.5-.7-.7 4.1-6.7 6.9-9.7 9.3-2.6 2-4.4 4.3-4.9 7.5-.6 4.8 2.2 9.7 7.3 9.7 1.6.1 1.6-2.5 0-2.5z"/><path fill="#C0924B" d="M58.5 40.1c5.2-.1 7.5-4.7 7.3-9.4-.1-2.9-1.8-4.9-3.6-6.8-3.1-3.2-10.2-5.6-11-10.3-.3-1.6-2.8-.9-2.5.7.6 3.5 4.2 5.9 7 7.8 2.9 1.9 6.6 4.6 7.5 8.1.8 3.2-1 7.4-4.7 7.4-1.7-.1-1.7 2.5 0 2.5z"/><g fill="#C0924B"><path d="M22.4 48.4c-1.6 0-2.2-1.5-2.3-2.9-.1-2 1.6-3.2 3-4.3 2-1.6 5-3 5.5-5.8.3-1.6-2.2-2.3-2.5-.7-.4 2.2-3.9 3.9-5.6 5.2-1.6 1.2-2.7 2.7-3 4.6-.4 3.1 1.4 6.3 4.8 6.4 1.8.1 1.8-2.5.1-2.5z"/><path d="M32.4 51.1c3.3 0 4.9-3 4.8-6-.1-1.8-1.1-3.1-2.3-4.4-1.7-1.8-5.8-3.2-6.3-5.8-.3-1.6-2.8-.9-2.5.7.4 2.2 2.6 3.7 4.3 4.9 1.6 1 3.7 2.5 4.1 4.4.4 1.5-.5 3.6-2.2 3.6-1.6 0-1.6 2.6.1 2.6z"/></g><g fill="#C0924B"><path d="M67.4 48.4c-1.6 0-2.2-1.5-2.3-2.9-.1-2 1.6-3.2 3-4.3 2-1.6 5-3 5.5-5.8.3-1.6-2.2-2.3-2.5-.7-.4 2.2-3.9 3.9-5.6 5.2-1.6 1.2-2.7 2.7-3 4.6-.3 3.3 1.5 6.5 4.9 6.5 1.7 0 1.7-2.6 0-2.6z"/><path d="M77.3 51.1c3.3 0 4.9-3 4.8-6-.1-1.8-1.1-3.1-2.3-4.4-1.7-1.8-5.8-3.2-6.3-5.8-.3-1.6-2.8-.9-2.5.7.4 2.2 2.6 3.7 4.3 4.9 1.6 1 3.7 2.5 4.1 4.4.4 1.5-.5 3.6-2.2 3.6-1.5 0-1.5 2.6.1 2.6z"/></g><path fill="#C0924B" d="M41.2 39.9h17.4c1.7 0 1.7-2.6 0-2.6H41.2c-1.6 0-1.6 2.6 0 2.6zm.2 5h17.4c1.7 0 1.7-2.6 0-2.6H41.4c-1.7 0-1.7 2.6 0 2.6zm-8.9 26.5h8.9c1.7 0 1.7-2.6 0-2.6h-8.9c-1.7 0-1.7 2.6 0 2.6zm26.2 0h8.9c1.7 0 1.7-2.6 0-2.6h-8.9c-1.7 0-1.7 2.6 0 2.6zM22.3 51h10.2c1.7 0 1.7-2.6 0-2.6H22.3c-1.7 0-1.7 2.6 0 2.6zm44.8 0h10.2c1.7 0 1.7-2.6 0-2.6H67.1c-1.7 0-1.7 2.6 0 2.6z"/><path fill="#C0924B" d="M21 49.7v39.8c0 1.7 2.6 1.7 2.6 0V49.7c0-1.6-2.6-1.6-2.6 0zm56 0v39.8c0 1.7 2.6 1.7 2.6 0V49.7c0-1.6-2.6-1.6-2.6 0zM40.1 38.8V60c0 1.7 2.6 1.7 2.6 0V38.8c0-1.7-2.6-1.7-2.6 0zm-8.9 10.6v10.7c0 1.7 2.6 1.7 2.6 0V49.4c0-1.7-2.6-1.7-2.6 0zm34.6 0v10.7c0 1.7 2.6 1.7 2.6 0V49.4c0-1.7-2.6-1.7-2.6 0zm-8.3-10.6V60c0 1.7 2.6 1.7 2.6 0V38.8c0-1.7-2.6-1.7-2.6 0z"/><path fill="none" d="M50.3 99.9c-13.3 0-25.7-5.2-35.1-14.5C5.8 76 .6 63.5.6 50.3s5.2-25.7 14.5-35.1C24.6 5.8 37 .6 50.3.6 63.6.6 76 5.8 85.4 15.1c9.4 9.4 14.5 21.8 14.5 35.1S94.7 76 85.4 85.4C76 94.7 63.5 99.9 50.3 99.9z"/><g fill="#2A2A36"><path d="M50.3 99.9c-13.3 0-25.7-5.2-35.1-14.5C5.8 76 .6 63.5.6 50.3.6 37 5.8 24.6 15.1 15.2 24.6 5.8 37 .6 50.3.6 63.6.6 76 5.8 85.4 15.1c9.4 9.4 14.5 21.8 14.5 35.1s-5.2 25.7-14.5 35.1C76 94.7 63.5 99.9 50.3 99.9zm0-98c-12.9 0-25.1 5-34.2 14.2C7 25.2 1.9 37.4 1.9 50.3c0 12.9 5 25.1 14.2 34.2 9.1 9.1 21.3 14.2 34.2 14.2s25.1-5 34.2-14.2 14.2-21.3 14.2-34.2c0-12.9-5-25.1-14.2-34.2C75.3 7 63.2 1.9 50.3 1.9z"/><path d="M50.3 100.6c-13.4 0-26.1-5.2-35.6-14.7C5.2 76.3 0 63.7 0 50.3c0-13.4 5.2-26.1 14.7-35.6S36.9 0 50.3 0c13.4 0 26.1 5.2 35.6 14.7s14.7 22.1 14.7 35.6c0 13.4-5.2 26.1-14.7 35.6-9.6 9.4-22.2 14.7-35.6 14.7zm0-98c-12.7 0-24.7 5-33.7 14-9 9-14 21-14 33.7 0 12.7 5 24.7 14 33.7 9 9 21 14 33.7 14C63 98 75 93 84 84c9-9 14-21 14-33.7 0-12.7-5-24.7-14-33.7-9-9.1-21-14-33.7-14z"/></g></svg>