<svg xmlns="http://www.w3.org/2000/svg" viewBox="0 0 100.6 100.6"><g fill="#2A2A36"><path d="M50.3 99.9c-13.3 0-25.7-5.2-35.1-14.5C5.8 76 .6 63.5.6 50.3.6 37 5.8 24.6 15.1 15.2 24.6 5.8 37 .6 50.3.6 63.6.6 76 5.8 85.4 15.1c9.4 9.4 14.5 21.8 14.5 35.1s-5.2 25.7-14.5 35.1C76 94.7 63.5 99.9 50.3 99.9zm0-98c-12.9 0-25.1 5-34.2 14.2C7 25.2 1.9 37.4 1.9 50.3c0 12.9 5 25.1 14.2 34.2 9.1 9.1 21.3 14.2 34.2 14.2s25.1-5 34.2-14.2 14.2-21.3 14.2-34.2c0-12.9-5-25.1-14.2-34.2C75.3 7 63.2 1.9 50.3 1.9z"/><path d="M50.3 100.6c-13.4 0-26.1-5.2-35.6-14.7C5.2 76.3 0 63.7 0 50.3c0-13.4 5.2-26.1 14.7-35.6S36.9 0 50.3 0c13.4 0 26.1 5.2 35.6 14.7s14.7 22.1 14.7 35.6c0 13.4-5.2 26.1-14.7 35.6-9.6 9.4-22.2 14.7-35.6 14.7zm0-98c-12.7 0-24.7 5-33.7 14-9 9-14 21-14 33.7 0 12.7 5 24.7 14 33.7 9 9 21 14 33.7 14C63 98 75 93 84 84c9-9 14-21 14-33.7 0-12.7-5-24.7-14-33.7-9-9.1-21-14-33.7-14z"/></g><path fill="#C0924B" d="M71.8 16.4h-43c-.8 0-1.4.6-1.4 1.4v65.5c0 .8.6 1.4 1.4 1.4h43c.8 0 1.4-.6 1.4-1.4V17.8c0-.8-.6-1.4-1.4-1.4zm-1.4 65.5H30.2V19.2h40.2v62.7zm-37-41.5h14.8c.8 0 1.4-.6 1.4-1.4V24.1c0-.8-.6-1.4-1.4-1.4H33.4c-.8 0-1.4.6-1.4 1.4v14.8c0 .8.6 1.5 1.4 1.5zm1.4-14.8h1.4v9.1c0 .8.6 1.4 1.4 1.4h6.3c.8 0 1.4-.6 1.4-1.4 0-.8-.6-1.4-1.4-1.4H39v-7.7h7.7v11.9H34.8V25.6zm17.6 14.8h14.8c.8 0 1.4-.6 1.4-1.4V24.1c0-.8-.6-1.4-1.4-1.4H52.4c-.8 0-1.4.6-1.4 1.4v14.8c0 .8.6 1.5 1.4 1.5zm1.4-14.8h1.4v9.1c0 .8.6 1.4 1.4 1.4H63c.8 0 1.4-.6 1.4-1.4 0-.8-.6-1.4-1.4-1.4h-5v-7.7h7.7v11.9H53.8V25.6zM33.4 59.4h14.8c.8 0 1.4-.6 1.4-1.4V43.2c0-.8-.6-1.4-1.4-1.4H33.4c-.8 0-1.4.6-1.4 1.4V58c0 .7.6 1.4 1.4 1.4zm1.4-14.8h1.4v9.1c0 .8.6 1.4 1.4 1.4h6.3c.8 0 1.4-.6 1.4-1.4 0-.8-.6-1.4-1.4-1.4H39v-7.7h7.7v11.9H34.8V44.6zm17.6 14.8h14.8c.8 0 1.4-.6 1.4-1.4V43.2c0-.8-.6-1.4-1.4-1.4H52.4c-.8 0-1.4.6-1.4 1.4V58c0 .7.6 1.4 1.4 1.4zm1.4-14.8h1.4v9.1c0 .8.6 1.4 1.4 1.4H63c.8 0 1.4-.6 1.4-1.4 0-.8-.6-1.4-1.4-1.4h-5v-7.7h7.7v11.9H53.8V44.6zM33.4 78.4h14.8c.8 0 1.4-.6 1.4-1.4V62.2c0-.8-.6-1.4-1.4-1.4H33.4c-.8 0-1.4.6-1.4 1.4V77c0 .8.6 1.4 1.4 1.4zm1.4-14.8h1.4v9.1c0 .8.6 1.4 1.4 1.4h6.3c.8 0 1.4-.6 1.4-1.4s-.6-1.4-1.4-1.4H39v-7.7h7.7v11.9H34.8V63.6zm17.6 14.8h14.8c.8 0 1.4-.6 1.4-1.4V62.2c0-.8-.6-1.4-1.4-1.4H52.4c-.8 0-1.4.6-1.4 1.4V77c0 .8.6 1.4 1.4 1.4zm1.4-14.8h1.4v9.1c0 .8.6 1.4 1.4 1.4H63c.8 0 1.4-.6 1.4-1.4s-.6-1.4-1.4-1.4h-5v-7.7h7.7v11.9H53.8V63.6zm0 0"/></svg>