<svg xmlns="http://www.w3.org/2000/svg" viewBox="0 0 100.6 100.6"><path fill="#C0924B" d="M70.5 40.9c0 5.4-1.7 9.5-5 12.3-3.4 2.8-8.1 4.3-14.3 4.3h-1.3c-1.8 0-3.2 1.5-3.2 3.2V72c0 1.8-1.5 3.2-3.2 3.2h-4.1c-1.8 0-3.2-1.5-3.2-3.2V28.5c0-1.8 1.5-3.2 3.2-3.2H52c6.1 0 10.7 1.3 13.8 3.9 3.2 2.6 4.7 6.5 4.7 11.7zm-23.9 4.7c0 1.8 1.5 3.2 3.2 3.2h.2c3.3 0 5.7-.6 7.3-1.9 1.6-1.3 2.4-3.2 2.4-5.6 0-2.5-.7-4.3-2-5.5-1.4-1.2-3.5-1.8-6.4-1.8h-1.6c-1.8 0-3.2 1.5-3.2 3.2v8.4z"/><g fill="#2A2A36"><path d="M50.3 99.9c-13.3 0-25.7-5.2-35.1-14.5C5.8 76 .6 63.5.6 50.3.6 37 5.8 24.6 15.1 15.2 24.6 5.8 37 .6 50.3.6 63.6.6 76 5.8 85.4 15.1c9.4 9.4 14.5 21.8 14.5 35.1s-5.2 25.7-14.5 35.1C76 94.7 63.5 99.9 50.3 99.9zm0-98c-12.9 0-25.1 5-34.2 14.2C7 25.2 1.9 37.4 1.9 50.3c0 12.9 5 25.1 14.2 34.2 9.1 9.1 21.3 14.2 34.2 14.2s25.1-5 34.2-14.2 14.2-21.3 14.2-34.2c0-12.9-5-25.1-14.2-34.2C75.3 7 63.2 1.9 50.3 1.9z"/><path d="M50.3 100.6c-13.4 0-26.1-5.2-35.6-14.7C5.2 76.3 0 63.7 0 50.3c0-13.4 5.2-26.1 14.7-35.6S36.9 0 50.3 0c13.4 0 26.1 5.2 35.6 14.7s14.7 22.1 14.7 35.6c0 13.4-5.2 26.1-14.7 35.6-9.6 9.4-22.2 14.7-35.6 14.7zm0-98c-12.7 0-24.7 5-33.7 14-9 9-14 21-14 33.7 0 12.7 5 24.7 14 33.7 9 9 21 14 33.7 14C63 98 75 93 84 84c9-9 14-21 14-33.7 0-12.7-5-24.7-14-33.7-9-9.1-21-14-33.7-14z"/></g></svg>