<svg xmlns="http://www.w3.org/2000/svg" viewBox="0 0 36 46.4"><g fill="#C0924B"><path d="M35.6 9.8L26.3.5c-.3-.3-.7-.5-1.1-.5H2C1 0 0 .7 0 2.3v42.5c0 .7.7 1.3 1.5 1.5h33c.8-.2 1.5-.9 1.5-1.5V11.2c0-.6-.1-1.1-.4-1.4zm-2.5-.2h-6.8V2.9l6.8 6.7zM2 44.8h-.2c-.1-.1-.2-.2-.2-.3V32.8h32.8v11.6c0 .1-.1.3-.2.3H2zm-.4-13.6V2.3c0-.2 0-.7.4-.7h22.9v9.6h9.6v20H1.6zm0 0"/><path d="M13.4 36.3c-.3-.4-.8-.6-1.3-.9-.5-.2-1.1-.3-1.8-.3H7.9v8.1h3.5c.2 0 .4-.1.7-.2.3-.1.5-.2.8-.4.3-.2.5-.4.7-.7.2-.3.4-.7.5-1.2.1-.5.2-1 .2-1.7 0-.5-.1-1-.3-1.4 0-.5-.3-.9-.6-1.3zm-1 5.1c-.4.6-1 .9-1.9.9H9.2v-6.1h.8c.6 0 1.1.1 1.5.2.4.2.7.4.9.6.2.3.4.6.5.9.1.3.1.7.1 1 0 1.1-.2 1.9-.6 2.5zm9-5.3c-.3-.3-.7-.6-1.1-.8-.4-.2-.8-.3-1.3-.3s-.9.1-1.3.3c-.4.2-.8.4-1.1.8-.3.3-.5.8-.7 1.3-.2.5-.3 1.1-.3 1.8s.1 1.3.3 1.8c.2.5.4.9.7 1.3.3.3.7.6 1.1.8.4.2.8.3 1.3.3s.9-.1 1.3-.3c.4-.2.8-.4 1.1-.8.3-.3.5-.8.7-1.3.2-.5.3-1.1.3-1.8s-.1-1.3-.3-1.8c-.1-.6-.4-1-.7-1.3zm-.5 4.5c-.1.4-.3.7-.5.9-.2.2-.4.4-.7.5-.2.1-.5.2-.8.2-.3 0-.5-.1-.8-.2-.2-.1-.4-.3-.6-.5-.2-.2-.3-.6-.4-.9-.1-.4-.2-.9-.2-1.4 0-.6.1-1 .2-1.4.1-.4.3-.7.5-.9.2-.2.4-.4.7-.5.2-.1.5-.2.8-.2.3 0 .5.1.8.2.2.1.4.3.6.5.2.2.3.6.4.9.1.4.2.8.2 1.4-.1.5-.1 1-.2 1.4zm5.2-3.8c.2-.2.4-.4.7-.5.2-.1.5-.2.8-.2.2 0 .5.1.7.1.2.1.4.2.6.5l.9-.8c-.3-.3-.6-.5-1-.7-.4-.1-.8-.2-1.2-.2-.5 0-.9.1-1.3.3-.4.2-.8.4-1.1.8-.3.3-.5.8-.7 1.3-.2.5-.3 1.1-.3 1.8s.1 1.3.3 1.8c.2.5.4.9.7 1.3.3.3.7.6 1.1.8.4.2.8.3 1.3.3.4 0 .8-.1 1.2-.2.4-.1.7-.4 1-.7l-.9-.8c-.2.2-.4.4-.6.5-.2.1-.5.1-.7.1s-.5-.1-.8-.2c-.2-.1-.4-.3-.6-.5-.2-.2-.3-.6-.4-.9-.1-.4-.2-.9-.2-1.4 0-.6.1-1 .2-1.4-.1-.6.1-.9.3-1.1zM5.6 11.2h4.8c.4 0 .8-.4.8-.8s-.4-.8-.8-.8H5.6c-.4 0-.8.4-.8.8s.4.8.8.8zm0 4h7.2c.4 0 .8-.4.8-.8s-.4-.8-.8-.8H5.6c-.4 0-.8.4-.8.8s.4.8.8.8zm10.4 0c.2 0 .4-.1.6-.2.1-.2.2-.4.2-.6 0-.2-.1-.4-.2-.6-.3-.3-.8-.3-1.1 0-.1.2-.2.4-.2.6 0 .2.1.4.2.6.1.1.3.2.5.2zm3.2 0h6.4c.4 0 .8-.4.8-.8s-.4-.8-.8-.8h-6.4c-.4 0-.8.4-.8.8s.4.8.8.8zM5 25.8c-.1.2-.2.4-.2.6 0 .2.1.4.2.6.2.1.4.2.6.2.2 0 .4-.1.6-.2.1-.2.2-.4.2-.6 0-.2-.1-.4-.2-.6-.3-.3-.9-.3-1.2 0zm10.2-.2H8.8c-.4 0-.8.4-.8.8s.4.8.8.8h6.4c.4 0 .8-.4.8-.8s-.4-.8-.8-.8zm15.2-12h-1.6c-.4 0-.8.4-.8.8s.4.8.8.8h1.6c.4 0 .8-.4.8-.8s-.4-.8-.8-.8zM5.6 19.2h17.6c.4 0 .8-.4.8-.8s-.4-.8-.8-.8H5.6c-.4 0-.8.4-.8.8s.4.8.8.8zm24.8-1.6h-4.8c-.4 0-.8.4-.8.8s.4.8.8.8h4.8c.4 0 .8-.4.8-.8s-.4-.8-.8-.8zM5.6 23.2h3.2c.4 0 .8-.4.8-.8s-.4-.8-.8-.8H5.6c-.4 0-.8.4-.8.8s.4.8.8.8zM20 21.6h-8c-.4 0-.8.4-.8.8s.4.8.8.8h8c.4 0 .8-.4.8-.8s-.4-.8-.8-.8zm10.4 0h-7.2c-.4 0-.8.4-.8.8s.4.8.8.8h7.2c.4 0 .8-.4.8-.8s-.4-.8-.8-.8zm0 0"/></g></svg>