<svg xmlns="http://www.w3.org/2000/svg" viewBox="0 0 36 46.4"><g fill="#2A2A36"><path d="M35.6 9.8L26.3.5c-.3-.3-.7-.5-1.1-.5H2C.9 0 0 .9 0 2v42.5c0 1.1.9 2 2 2h32c1.1 0 2-.9 2-2V10.8c0-.4-.2-.8-.4-1zm-2.5-.2h-6.7V2.9l6.7 6.7zm1.3 34.8c0 .2-.2.4-.4.4H2c-.2 0-.4-.2-.4-.4V32.8h32.8v11.6zM1.6 31.2V2c0-.2.2-.4.4-.4h22.9v9.6h9.6v20H1.6zm0 0"/><path d="M10.4 41.6c1.8 0 3.2-1.4 3.2-3.2 0-1.8-1.4-3.2-3.2-3.2-1.8 0-3.2 1.4-3.2 3.2 0 1.8 1.4 3.2 3.2 3.2zm0-4.8c.9 0 1.6.7 1.6 1.6 0 .9-.7 1.6-1.6 1.6-.9 0-1.6-.7-1.6-1.6 0-.9.7-1.6 1.6-1.6zm8 4.8c1.8 0 3.2-1.4 3.2-3.2 0-1.8-1.4-3.2-3.2-3.2-1.8 0-3.2 1.4-3.2 3.2 0 1.8 1.4 3.2 3.2 3.2zm0-4.8c.9 0 1.6.7 1.6 1.6 0 .9-.7 1.6-1.6 1.6-.9 0-1.6-.7-1.6-1.6 0-.9.7-1.6 1.6-1.6zm8 4.8c1.8 0 3.2-1.4 3.2-3.2 0-1.8-1.4-3.2-3.2-3.2-1.8 0-3.2 1.4-3.2 3.2 0 1.8 1.4 3.2 3.2 3.2zm0-4.8c.9 0 1.6.7 1.6 1.6 0 .9-.7 1.6-1.6 1.6-.9 0-1.6-.7-1.6-1.6 0-.9.7-1.6 1.6-1.6zm0 0"/></g></svg>