<svg xmlns="http://www.w3.org/2000/svg" viewBox="0 0 28.6 26.2"><path fill="#A65367" d="M14.3 18.4c-.8 0-1.5.7-1.5 1.5s.7 1.5 1.5 1.5 1.5-.7 1.4-1.4c.1-.9-.6-1.6-1.4-1.6z"/><path fill="#A65367" d="M27.9 23.6c.9-1.6.9-3.5 0-5.1l-9.2-16C17.8 1 16.2 0 14.3 0s-3.5 1-4.4 2.6l-9.2 16c-.9 1.6-.9 3.5 0 5.1.9 1.6 2.6 2.5 4.4 2.5h18.4c1.8 0 3.5-1 4.4-2.6zm-2-1.1c-.5.9-1.4 1.4-2.4 1.4H5.1c-1 0-1.9-.5-2.4-1.4-.5-.9-.5-1.9 0-2.8l9.2-16c.5-.9 1.4-1.4 2.4-1.4s1.9.5 2.4 1.4l9.2 16c.5.8.5 1.9 0 2.8zm0 0"/><path fill="#A65367" d="M13.9 8.1c-.7.2-1.1.8-1.1 1.6 0 .5.1.9.1 1.4.1 1.8.2 3.5.3 5.3 0 .6.5 1 1.1 1s1.1-.5 1.1-1.1v-1.1c.1-1.1.1-2.3.2-3.4 0-.7.1-1.5.1-2.2 0-.3 0-.5-.1-.7-.3-.7-1-1-1.7-.8z"/></svg>