<svg xmlns="http://www.w3.org/2000/svg" viewBox="0 0 40.9 40.9"><g fill="#3D3E5A" stroke="#3D3E5A" stroke-width="1.5" stroke-miterlimit="10"><path d="M20.5.8C13.1.8 6.7 4.9 3.3 10.9c-.1.1-.1.2-.2.3-.1.1-.1.3-.2.4-1.4 2.7-2.2 5.7-2.2 9 0 10.9 8.8 19.7 19.7 19.7 7.4 0 13.8-4.1 17.2-10.1.1-.1.1-.2.2-.3.1-.1.1-.3.2-.4 1.4-2.7 2.2-5.7 2.2-9C40.2 9.6 31.3.8 20.5.8zM36.1 30c-3.2 5.2-9 8.8-15.6 8.8-10.1 0-18.3-8.2-18.3-18.3 0-3.5 1-6.8 2.7-9.6 3.2-5.2 9-8.8 15.6-8.8 10.1 0 18.3 8.2 18.3 18.3 0 3.6-1 6.8-2.7 9.6z"/><path d="M18.7 20.5l4.2-4.3c.3-.3.3-.7 0-1-.3-.3-.7-.3-1 0L17.2 20c-.3.3-.3.7 0 1l4.8 4.7c.1.1.3.2.5.2s.4-.1.5-.2c.3-.3.3-.7 0-1l-4.3-4.2z"/></g></svg>