<svg xmlns="http://www.w3.org/2000/svg" viewBox="0 0 136.2 128.5"><path fill="#FFF" d="M1 125.2l-.3.6v1.9H0V122h.6v2.7l1.5-2.7h.6l-1.4 2.6 1.5 3.1h-.6L1 125.2zm5.9-1.8c0-.9.4-1.4 1.3-1.4s1.3.6 1.3 1.4v2.9c0 .9-.4 1.4-1.3 1.4s-1.3-.6-1.3-1.4v-2.9zm.7 3c0 .5.2.8.7.8.5 0 .7-.3.7-.8v-3c0-.5-.2-.8-.7-.8-.5 0-.7.3-.7.8v3zm6.8-1.3v2.6h-.6V122h.6v2.6h1.4V122h.6v5.7h-.6v-2.6h-1.4zm9.2 3.4v-.8h-2.3v.8h-.6v-1.3h.3c.2-.2.2-.5.3-.8l.2-4.3h2.3v5.1h.4v1.3h-.6zm-1.7-2.2c0 .4-.1.6-.3.8h1.5v-4.5H22l-.1 3.7zm8-1.2l-.8 2.6h-.7V122h.6v4.2l.6-1.8.8-2.4h.7v5.7h-.6v-4.5l-.6 1.9zm6.3 2.6v-5.1h-1v-.6h2.7v.6h-1v5.1h-.7zm7.9-3.2v.6h-1.4v2h1.7v.6H42V122h2.3v.6h-1.7v1.9h1.5zm5.8-2.5c.9 0 1.3.5 1.3 1.4v.7c0 .9-.4 1.4-1.3 1.4h-.6v2.2h-.6V122h1.2zm-.1 2.9c.5 0 .7-.2.7-.8v-.8c0-.5-.2-.8-.7-.8h-.6v2.3h.6zm8-1.5v.5h-.6v-.5c0-.5-.2-.8-.7-.8-.5 0-.7.3-.7.8v3c0 .5.2.8.7.8.5 0 .7-.3.7-.8v-.7h.6v.7c0 .9-.4 1.4-1.3 1.4s-1.3-.6-1.3-1.4v-2.9c0-.9.4-1.4 1.3-1.4.9-.1 1.3.4 1.3 1.3zm5.2 1.8l-.3.6v1.9H62V122h.6v2.7l1.5-2.7h.6l-1.4 2.6 1.5 3.1h-.6l-1.2-2.5zm6.6 1.4l-.2 1.1h-.6l1.1-5.7h.9l1.1 5.7h-.6l-.2-1.1h-1.5zm.1-.6H71l-.6-3.3-.7 3.3zm7.9-.7c-.5 0-.8.2-.8.8v.9c0 .4 0 .5-.1.7H76c.1-.2.1-.4.1-.7v-.9c0-.6.2-1 .7-1.2-.5-.2-.7-.5-.7-1.2v-.5c0-.8.4-1.3 1.3-1.3h1.3v5.7H78v-2.4h-.4zm-.2-2.7c-.5 0-.7.3-.7.8v.5c0 .6.3.8.8.8h.5v-2.1h-.6zm13.1.1c.9 0 1.3.5 1.3 1.4v1.5c0 .9-.4 1.4-1.3 1.4h-.4v.6h-.6v-.6h-.4c-.9 0-1.3-.5-1.3-1.4v-1.5c0-.9.4-1.4 1.3-1.4h.4v-.7h.6v.7h.4zm-1.4.5c-.5 0-.7.3-.7.8v1.6c0 .5.2.8.7.8h.4v-3.3h-.4zm1.4 3.3c.5 0 .7-.3.7-.8v-1.6c0-.5-.2-.8-.7-.8h-.4v3.3h.4zm6.3.1l-.2 1.1H96l1.1-5.7h.9l1.1 5.7h-.6l-.2-1.1h-1.5zm.1-.6h1.3l-.6-3.3-.7 3.3zm7.6-1.6c.9 0 1.3.4 1.3 1.3v.6c0 .9-.4 1.4-1.3 1.4h-1.3V122h2.4v.6h-1.8v1.8h.7zm0 2.7c.5 0 .7-.2.7-.8v-.7c0-.6-.2-.7-.7-.7h-.7v2.2h.7zm6.9-5.1c.9 0 1.3.5 1.3 1.4v.7c0 .9-.4 1.4-1.3 1.4h-.6v2.2h-.6V122h1.2zm-.1 2.9c.5 0 .7-.2.7-.8v-.8c0-.5-.2-.8-.6-.8h-.6v2.3h.5zm7 .2l-.8 2.6h-.7V122h.6v4.2l.6-1.8.8-2.4h.7v5.7h-.6v-4.5l-.6 1.9zm6.4.1l-.3.6v1.9h-.6V122h.6v2.7l1.5-2.7h.6l-1.4 2.6 1.5 3.1h-.6l-1.3-2.5zm6.7 1.4l-.2 1.1h-.6l1.1-5.7h.9l1.1 5.7h-.7l-.2-1.1h-1.4zm.1-.6h1.3l-.6-3.3-.7 3.3z"/><path d="M8.4 97.3c.7-.1 1.5-.2 2.2-.2H15c1.3-.6 2.2-1.7 2.7-3l-.4-.1c-.5-.1-1-.1-1.5-.2s-1-.1-1.5-.1c-.6 0-1.1-.1-1.7-.1h-2.1c-1.5 0-3 .1-4.4.4-1.1.2-2.1.6-3 1.2-.8.6-1.4 1.4-1.7 2.3-.4 1-.5 2.2-.5 3.3 0 1.1.1 2.3.5 3.3.4.9.9 1.7 1.7 2.3.9.6 2 1 3 1.2 1.4.3 2.9.4 4.4.4h2.2c.6 0 1.2 0 1.8-.1.5 0 1.1-.1 1.6-.2l1.5-.3.4-.1c-.4-1.3-1.4-2.3-2.6-3h-4.9c-.7 0-1.5 0-2.2-.2-.5-.1-.9-.3-1.3-.6-.3-.3-.5-.7-.7-1.1-.2-.6-.2-1.2-.2-1.9 0-.6 0-1.3.2-1.9.1-.4.3-.8.7-1.1.5.1 1-.1 1.4-.2zm15.2-3.5v13.9c.6.1 1.3.2 2 .3h1c.7 0 1.3-.1 2-.3l8.2-7.6c.3-.3.5-.5.7-.8v8.4c.6.1 1.3.2 2 .3h1c.7 0 1.3-.1 2-.3V93.8c-.6-.1-1.3-.2-2-.3h-1c-.7 0-1.3.1-2 .3l-8.2 7.5c-.3.3-.6.6-.8.9v-8.4c-.6-.1-1.3-.2-2-.3h-1c-.7.1-1.3.2-1.9.3zm34.1 10h.8c1.2 0 2.3 0 3.5-.2.8-.1 1.7-.3 2.4-.7.6-.4 1.1-.9 1.4-1.5.3-.7.4-1.9.4-2.6 0-.8-.1-1.9-.4-2.6-.3-.7-.8-1.2-1.5-1.5-.8-.4-1.7-.6-2.6-.7-1.2-.2-2.5-.2-3.8-.2h-.2v3.5h.1c.7 0 1.4 0 2.1.2.3.1.7.2.9.5.2.3.2.6.2.9 0 .3 0 .7-.2.9-.2.3-.6.4-.9.4-.7.1-1.4.2-2.1.2h-.1v3.4zm-8.5-9.9h.4c.5 0 1-.1 1.5-.1s1 0 1.4-.1h5.2v3.5h-3.4v3.1h3.4v3.5h-1.6c-.6 0-1.2-.1-1.8-.1v4.1c-.7.1-1.3.2-2 .3h-1c-.7 0-1.4-.1-2-.3V93.9h-.1zm22.7-.1v13.9c.6.1 1.3.2 2 .3h1c.7 0 1.3-.1 2-.3l8.2-7.6c.3-.3.5-.5.7-.8v8.4c.6.1 1.3.2 2 .3h1c.7 0 1.3-.1 2-.3V93.8c-.6-.1-1.3-.2-2-.3h-1c-.7 0-1.3.1-2 .3l-8.1 7.5c-.3.3-.6.6-.8.9v-8.4c-.6-.1-1.3-.2-2-.3h-1c-.7.1-1.4.2-2 .3zm23.5 0l4.9 8.2.6.9c.3.3.6.5 1 .6.8.3 1.6.2 2.4.1l-.2.2c-.1.2-.3.3-.5.5-.2.1-.4.2-.5.3-.3.1-.6.1-.9.1h-1.9c-1.2.6-2 1.7-2.5 2.9l.4.1c.4.1.8.1 1.1.1.4 0 .9.1 1.4.1.5 0 .9.1 1.4.1h1.2c.7 0 1.4-.1 2.1-.3.6-.2 1.1-.4 1.6-.8.5-.3.9-.7 1.2-1.2.4-.5.6-1 .9-1.5l6-10.3-2.1-.3h-1.1c-.7 0-1.4.1-2.1.3l-3.5 5.9h-2.5l-3.3-5.8-2.1-.3h-1.1c-.5-.1-1.2 0-1.9.1zm24.2 3.7c-.4 1-.5 2.2-.5 3.3 0 1.1.1 2.3.5 3.3.4.9.9 1.7 1.7 2.3.9.6 2 1 3 1.2 1.4.3 2.9.4 4.4.4h2.2c.6 0 1.2 0 1.8-.1.5 0 1.1-.1 1.6-.2l1.5-.3.4-.1c-.4-1.3-1.4-2.3-2.6-3h-4.9c-.7 0-1.5 0-2.2-.2-.5-.1-.9-.3-1.3-.6-.3-.3-.5-.7-.6-1.1-.2-.6-.2-1.2-.2-1.9 0-.6 0-1.3.2-1.9.1-.4.3-.8.6-1.1.4-.3.8-.5 1.3-.6.7-.1 1.5-.2 2.2-.2h4.4c1.3-.6 2.2-1.7 2.7-3l-.4-.1c-.5-.1-1-.1-1.5-.2s-1-.1-1.5-.1c-.6 0-1.1-.1-1.7-.1h-2.1c-1.5 0-3 .1-4.4.4-1.1.2-2.1.6-3 1.2-.7 1-1.3 1.8-1.6 2.7z" fill-rule="evenodd" clip-rule="evenodd" fill="#FFF"/><path fill-rule="evenodd" clip-rule="evenodd" fill="#2A2A36" d="M58.8 55.5c-2.9-7.5-7.7-13.6-13.6-17.3 5.9-3.7 10.7-9.8 13.6-17.3 2.9 7.5 7.7 13.6 13.6 17.3 8.1 4 14.2 10.9 17.2 19.2-6.2 4.8-14.6 7.8-24 7.8-18.8 0-34.1-12.1-34.1-26.9s15.3-26.9 34.1-26.9c9.3 0 17.8 3 24 7.8-3 8.2-9 15.2-17.2 19.2-5.9 3.5-10.7 9.6-13.6 17.1z"/><radialGradient id="a" cx="66.658" cy="28.321" r="21.08" fx="65.868" fy="28.323" gradientUnits="userSpaceOnUse"><stop offset="0" stop-color="#fff"/><stop offset=".216" stop-color="#f8f9fc"/><stop offset=".441" stop-color="#ebedf3"/><stop offset=".668" stop-color="#d6dde8"/><stop offset=".897" stop-color="#bac7da"/><stop offset="1" stop-color="#adbcd3"/></radialGradient><path fill-rule="evenodd" clip-rule="evenodd" fill="url(#a)" d="M58.8 55.5c-2.9-7.5-7.7-13.6-13.6-17.3 5.9-3.7 10.7-9.8 13.6-17.3 2.9 7.5 7.7 13.6 13.6 17.3-5.9 3.7-10.7 9.8-13.6 17.3z"/><radialGradient id="b" cx="30.071" cy="73.245" r="34.959" gradientUnits="userSpaceOnUse"><stop offset="0" stop-color="#ecc573"/><stop offset="1" stop-color="#b6884a"/></radialGradient><path fill-rule="evenodd" clip-rule="evenodd" fill="url(#b)" d="M100.5 61.3c-19.2 16.4-56.3 15-70.9-6.5l-10.3 4.4C28.6 70 44.6 77 62.7 76.4c15.3-.5 28.8-6.4 37.8-15.1z"/><radialGradient id="c" cx="87.265" cy="-1.867" r="31.413" gradientUnits="userSpaceOnUse"><stop offset="0" stop-color="#ecc573"/><stop offset="1" stop-color="#b6884a"/></radialGradient><path fill-rule="evenodd" clip-rule="evenodd" fill="url(#c)" d="M68.6 4.2c15.9 0 30.5 6.9 38 17.9l11.5-4.9C108.8 6.4 92.7-.6 74.7 0 59.4.5 45.9 6.4 36.9 15.1 44.8 8.4 56.1 4.2 68.6 4.2z"/><radialGradient id="d" cx="83.964" cy="27.736" r="22.318" gradientUnits="userSpaceOnUse"><stop offset="0" stop-color="#ecc573"/><stop offset="1" stop-color="#b6884a"/></radialGradient><path fill-rule="evenodd" clip-rule="evenodd" fill="url(#d)" d="M80.9 38.2c5.4 3.3 9.8 8.9 12.4 15.7 2.6-6.8 7-12.4 12.4-15.7-5.4-3.3-9.8-8.9-12.4-15.7-2.6 6.9-7 12.4-12.4 15.7z"/><radialGradient id="e" cx="113.636" cy="31.046" r="11.382" gradientUnits="userSpaceOnUse"><stop offset="0" stop-color="#ecc573"/><stop offset="1" stop-color="#b6884a"/></radialGradient><path fill-rule="evenodd" clip-rule="evenodd" fill="url(#e)" d="M111.7 38.2c3.2 2 5.9 5.3 7.4 9.4 1.6-4.1 4.2-7.4 7.4-9.4-3.2-2-5.9-5.3-7.4-9.4-1.5 4.1-4.2 7.4-7.4 9.4z"/><radialGradient id="f" cx="101.25" cy="370.309" r="12.586" fx="101.018" fy="370.303" gradientTransform="matrix(1 0 0 .9629 0 -304.67)" gradientUnits="userSpaceOnUse"><stop offset="0" stop-color="#ecc573"/><stop offset="1" stop-color="#b6884a"/></radialGradient><path fill-rule="evenodd" clip-rule="evenodd" fill="url(#f)" d="M103.3 57.4c2.3 1.4 4.2 3.8 5.4 6.8 1.1-3 3-5.3 5.4-6.8-2.3-1.4-4.2-3.8-5.4-6.8-1.1 3-3 5.4-5.4 6.8z"/><radialGradient id="g" cx="30.71" cy="23.838" r="19.007" gradientUnits="userSpaceOnUse"><stop offset="0" stop-color="#ecc573"/><stop offset="1" stop-color="#b6884a"/></radialGradient><path fill-rule="evenodd" clip-rule="evenodd" fill="url(#g)" d="M32.9 19.1c-1.9-1.2-3.5-3.2-4.5-5.7-.9 2.5-2.5 4.5-4.5 5.7 1.9 1.2 3.5 3.2 4.5 5.7 1-2.5 2.6-4.5 4.5-5.7z"/><radialGradient id="h" cx="22.461" cy="43.969" r="12.789" gradientUnits="userSpaceOnUse"><stop offset="0" stop-color="#ecc573"/><stop offset="1" stop-color="#b6884a"/></radialGradient><path fill-rule="evenodd" clip-rule="evenodd" fill="url(#h)" d="M25.5 38.2c-3.2 2-5.9 5.3-7.4 9.4-1.6-4.1-4.2-7.4-7.4-9.4 3.2-2 5.9-5.3 7.4-9.4 1.5 4.1 4.1 7.4 7.4 9.4z"/></svg>