<svg xmlns="http://www.w3.org/2000/svg" viewBox="0 0 55.9 51.1"><path fill="#CFCFCE" d="M.6 20.7c6.5 4.3 11 10.4 13.9 17.6.5 1.2 1.9 1.2 2.4 0 2.9-7.2 7.4-13.4 13.9-17.6.8-.5.8-1.6 0-2.2-6.5-4.3-11-10.4-13.9-17.6-.5-1.2-1.9-1.2-2.4 0C11.6 8.1 7.1 14.3.6 18.5c-1.3.9-.1 3 1.3 2.2C9 16 13.7 9.4 16.9 1.6h-2.4c3.2 7.8 7.9 14.5 15.1 19.1v-2.2c-7.1 4.6-11.9 11.3-15.1 19.1h2.4C13.7 29.8 9 23.1 1.8 18.5.5 17.6-.8 19.8.6 20.7zm36 0c3.8 2.5 6.4 6.1 8.1 10.3.5 1.2 1.9 1.2 2.4 0 1.7-4.2 4.3-7.7 8.1-10.3.8-.5.8-1.6 0-2.2-3.8-2.5-6.4-6.1-8.1-10.3-.5-1.2-1.9-1.2-2.4 0-1.7 4.2-4.3 7.7-8.1 10.3-1.3.9-.1 3.1 1.3 2.2 4.4-2.9 7.3-6.9 9.3-11.8h-2.4c2 4.8 4.9 8.8 9.3 11.8v-2.2c-4.4 2.9-7.3 6.9-9.3 11.8h2.4c-2-4.8-4.9-8.8-9.3-11.8-1.4-.9-2.6 1.3-1.3 2.2zm-9.8 22.4c2.7 1.8 4.5 4.2 5.7 7.2.5 1.2 1.9 1.2 2.4 0 1.2-2.9 3-5.4 5.7-7.2.8-.5.8-1.6 0-2.2-2.7-1.8-4.5-4.2-5.7-7.2-.5-1.2-1.9-1.2-2.4 0-1.2 2.9-3 5.4-5.7 7.2-1.3.9-.1 3.1 1.3 2.2 3.3-2.2 5.4-5.1 6.8-8.7h-2.4c1.5 3.6 3.6 6.5 6.8 8.7v-2.2c-3.2 2.2-5.4 5.1-6.8 8.7h2.4c-1.5-3.6-3.6-6.5-6.8-8.7-1.4-.9-2.6 1.3-1.3 2.2z"/></svg>