<svg xmlns="http://www.w3.org/2000/svg" viewBox="0 0 36 46.4"><g fill="#C0924B"><path d="M35.6 9.8L26.3.5c-.3-.3-.7-.5-1.1-.5H2C1 0 0 .7 0 2.3v42.5c0 .7.7 1.3 1.5 1.5h33c.8-.2 1.5-.9 1.5-1.5V11.2c0-.6-.1-1.1-.4-1.4zm-2.5-.2h-6.8V2.9l6.8 6.7zM2 44.8h-.2c-.1-.1-.2-.2-.2-.3V32.8h32.8v11.6c0 .1-.1.3-.2.3H2zm-.4-13.6V2.3c0-.2 0-.7.4-.7h22.9v9.6h9.6v20H1.6zm0 0"/><path d="M12.4 35.8c-.3-.2-.6-.4-.9-.5-.3-.1-.7-.2-1-.2H8.2v8.1h1.3v-2.9h1c.4 0 .8-.1 1.2-.2.4-.1.6-.3.9-.5.2-.2.4-.5.6-.8.1-.3.2-.7.2-1.1 0-.4-.1-.7-.2-1-.3-.4-.5-.7-.8-.9zm-.5 2.7c-.1.2-.2.4-.3.5-.1.1-.3.2-.4.3-.2.1-.3.1-.5.1H9.5v-3.2h1c.3 0 .6.1.8.2.2.1.4.2.5.4.1.2.2.3.2.5s.1.3.1.5-.1.4-.2.7zm8.5-2.2c-.3-.4-.8-.6-1.3-.9-.5-.2-1.1-.3-1.8-.3h-2.4v8.1h3.6c.2 0 .4-.1.7-.2.3-.1.5-.2.8-.4.3-.2.5-.4.7-.7.2-.3.4-.7.5-1.2.1-.5.2-1 .2-1.7 0-.5-.1-1-.2-1.4-.2-.5-.5-.9-.8-1.3zm-1 5.1c-.4.6-1 .9-1.9.9h-1.3v-6.1h.8c.6 0 1.1.1 1.5.2.4.2.7.4.9.6.2.3.4.6.5.9.1.3.1.7.1 1 0 1.1-.2 1.9-.6 2.5zm3.9 1.8h1.3v-3.6H28v-.9h-3.4v-2.5h3.7v-1h-5v8zm2.2-24.8c-.7 0-1.6.1-2.7.3-1.5-1.6-3-3.8-4.1-6.1 1.1-4.5.5-5.1.3-5.4-.3-.3-.6-.8-1-.8-.2 0-.6.1-.8.1-.5.2-.7.5-.9 1-.6 1.3.2 3.6 1 5.3-.7 2.7-1.8 6-3 8.6-3 1.4-4.6 2.8-4.8 4.1-.1.5.1 1.2.9 1.8.2.2.5.3.8.3.7 0 1.4-.5 2.2-1.7.6-.8 1.2-2 1.9-3.4 2.1-.9 4.8-1.8 7.1-2.3 1.3 1.2 2.4 1.8 3.4 1.8.7 0 1.3-.3 1.8-1 .5-.6.6-1.2.3-1.7-.3-.6-1.1-.9-2.4-.9zm-14.3 7.7c-.4-.3-.4-.5-.3-.5.1-.4.7-1.2 2.5-2.2-1.4 2.4-2.1 2.7-2.2 2.7zm6.6-18.3s.8.9.1 2.6c-1.2-1.2-.2-2.6-.1-2.6zm-1.7 12.8c.8-1.9 1.6-4.1 2.1-6.1.9 1.6 2 3.2 3.1 4.4-1.7.5-3.5 1-5.2 1.7zm10.4-.4c-.2.3-.8.4-1 .4-.4 0-.6-.3-1.2-.8.5-.1 1-.1 1.4-.1.7 0 .8.1.9.2 0 0 0 .1-.1.3zm0 0"/></g></svg>