<svg xmlns="http://www.w3.org/2000/svg" viewBox="0 0 52.8 54.3"><g fill="#2A2A36"><path d="M45.7 7.1C41.1 2.5 35 0 28.5 0c-1.1 0-1.9.9-1.9 1.9 0 1.1.9 1.9 1.9 1.9C34 3.9 39.1 6 43 9.8c3.9 3.9 6 9 6 14.5 0 1.1.9 1.9 1.9 1.9 1.1 0 1.9-.9 1.9-1.9 0-6.5-2.5-12.6-7.1-17.2zm0 0"/><path d="M37.8 24.3c0 1.1.9 1.9 1.9 1.9 1.1 0 1.9-.9 1.9-1.9 0-7.2-5.9-13.1-13.1-13.1-1.1 0-1.9.9-1.9 1.9 0 1.1.9 1.9 1.9 1.9 5.1 0 9.3 4.2 9.3 9.3zm-4.3 9.8c-2.9-.2-4.4 2-5.1 3.1-.6.9-.4 2.1.5 2.7.9.6 2.1.4 2.7-.5.8-1.2 1.2-1.4 1.8-1.4 1.7.2 8.2 5 8.9 6.5.2.4.2.9 0 1.4-.7 2-1.8 3.5-3.3 4.2-1.4.6-3.1.6-5-.2-6.9-2.8-12.9-6.7-17.9-11.6-4.9-5-8.8-11-11.6-17.8-.7-1.8-.8-3.6-.2-5 .7-1.5 2.1-2.6 4.2-3.3.5-.2 1-.2 1.4 0 1.5.7 6.3 7.2 6.5 8.9 0 .5-.2.9-1.4 1.8-.9.6-1.1 1.8-.5 2.7.6.9 1.8 1.1 2.7.5 1-.7 3.2-2.2 3.1-5.2-.2-3.1-6.2-11.2-9-12.3-1.3-.5-2.6-.5-4 0-3.1 1-5.3 2.9-6.4 5.3-1.1 2.4-1.1 5.2.1 8C4 29.2 8.2 35.7 13.5 41c5.3 5.3 11.7 9.4 19.1 12.4 1.5.6 2.9.9 4.3.9 1.3 0 2.6-.3 3.7-.8 2.5-1.1 4.3-3.4 5.3-6.4.5-1.4.5-2.7 0-4-1.1-2.8-9.3-8.8-12.4-9zm0 0"/></g></svg>