<svg xmlns="http://www.w3.org/2000/svg" viewBox="0 0 36 46.4"><g fill="#C0924B"><path d="M35.6 9.8l-.6-.6-8.1-8.1-.6-.6c-.3-.3-.7-.5-1.1-.5H2C.9 0 0 .9 0 2v42.5c0 1.1.9 2 2 2h32c1.1 0 2-.9 2-2V10.8c0-.4-.2-.8-.4-1zm-2.5-.2h-6.8V2.9l6.8 6.7zm1.3 34.8c0 .2-.2.4-.4.4H2c-.2 0-.4-.2-.4-.4V32.8h32.8v11.6zM1.6 31.2V2c0-.2.2-.4.4-.4h22.9v9.6h9.6v20H1.6zm0 0"/><path d="M9.7 40.3h1c.4 0 .8-.1 1.2-.2.4-.1.6-.3.9-.5.2-.2.4-.5.6-.8.1-.3.2-.7.2-1.1 0-.4-.1-.7-.2-1-.2-.3-.4-.6-.6-.8-.3-.2-.6-.4-.9-.5-.3-.1-.7-.2-1-.2H8.4v8.1h1.3v-3zm0-4.2h1c.3 0 .6.1.8.2.2.1.4.2.5.4.1.2.2.3.2.5s.1.3.1.5c0 .3 0 .6-.1.8-.1.2-.2.4-.3.5-.1.1-.3.2-.4.3-.2.1-.3.1-.5.1H9.7v-3.3zm6.6 4.2h1c.4 0 .8-.1 1.2-.2.4-.1.6-.3.9-.5.2-.2.4-.5.6-.8.1-.3.2-.7.2-1.1 0-.4-.1-.7-.2-1-.2-.3-.4-.6-.6-.8-.3-.2-.6-.4-.9-.5-.3-.1-.7-.2-1-.2H15v8.1h1.3v-3zm0-4.2h1c.3 0 .6.1.8.2.2.1.4.2.5.4.1.2.2.3.2.5s.1.3.1.5c0 .3 0 .6-.1.8-.1.2-.2.4-.3.5-.1.1-.3.2-.4.3s-.3.1-.5.1h-1.2v-3.3zm7.3 7.1h1.3V36h2.4v-.9h-6.1v.9h2.4v7.2zM12 15.2c0 .4-.4.8-.8.8s-.8-.4-.8-.8.4-.8.8-.8.8.4.8.8zm0 6.4c0 .4-.4.8-.8.8s-.8-.4-.8-.8.4-.8.8-.8.8.4.8.8zm0-3.2c0 .4-.4.8-.8.8s-.8-.4-.8-.8.4-.8.8-.8.8.4.8.8zm1.6-1.6c0 .4-.4.8-.8.8s-.8-.4-.8-.8.4-.8.8-.8.8.4.8.8zm1.6-1.6c0 .4-.4.8-.8.8s-.8-.4-.8-.8.4-.8.8-.8.8.4.8.8zM13.6 20c0 .4-.4.8-.8.8s-.8-.4-.8-.8.4-.8.8-.8.8.4.8.8zm1.6 1.6c0 .4-.4.8-.8.8s-.8-.4-.8-.8.4-.8.8-.8.8.4.8.8zm0-3.2c0 .4-.4.8-.8.8s-.8-.4-.8-.8.4-.8.8-.8.8.4.8.8zm1.6-1.6c0 .4-.4.8-.8.8s-.8-.4-.8-.8.4-.8.8-.8.8.4.8.8zm1.6-1.6c0 .4-.4.8-.8.8s-.8-.4-.8-.8.4-.8.8-.8.8.4.8.8zM16.8 20c0 .4-.4.8-.8.8s-.8-.4-.8-.8.4-.8.8-.8.8.4.8.8zm1.6 1.6c0 .4-.4.8-.8.8s-.8-.4-.8-.8.4-.8.8-.8.8.4.8.8zm0-3.2c0 .4-.4.8-.8.8s-.8-.4-.8-.8.4-.8.8-.8.8.4.8.8zm1.6-1.6c0 .4-.4.8-.8.8s-.8-.4-.8-.8.4-.8.8-.8.8.4.8.8zm1.6-1.6c0 .4-.4.8-.8.8s-.8-.4-.8-.8.4-.8.8-.8.8.4.8.8zM20 20c0 .4-.4.8-.8.8s-.8-.4-.8-.8.4-.8.8-.8.8.4.8.8zm1.6 1.6c0 .4-.4.8-.8.8s-.8-.4-.8-.8.4-.8.8-.8.8.4.8.8zm0-3.2c0 .4-.4.8-.8.8s-.8-.4-.8-.8.4-.8.8-.8.8.4.8.8zm1.6-1.6c0 .4-.4.8-.8.8s-.8-.4-.8-.8.4-.8.8-.8.8.4.8.8zm1.6-1.6c0 .4-.4.8-.8.8s-.8-.4-.8-.8.4-.8.8-.8.8.4.8.8zM23.2 20c0 .4-.4.8-.8.8s-.8-.4-.8-.8.4-.8.8-.8.8.4.8.8zm1.6 1.6c0 .4-.4.8-.8.8s-.8-.4-.8-.8.4-.8.8-.8.8.4.8.8zm0-3.2c0 .4-.4.8-.8.8s-.8-.4-.8-.8.4-.8.8-.8.8.4.8.8zm0 0"/><path d="M18.4 10.4c0-.4-.4-.8-.8-.8s-.8.4-.8.8V12H8v12.8h5l-1.7 2.8c-.2.4-.1.9.3 1.1.1.1.3.1.4.1.3 0 .5-.1.7-.4l2.2-3.6h5.5l2.2 3.6c.1.2.4.4.7.4.1 0 .3 0 .4-.1.4-.2.5-.7.3-1.1l-1.7-2.8h5V12h-8.8v-1.6zm3.2 3.2c0 .4.4.8.8.8s.8-.4.8-.8h1.6c0 .4.4.8.8.8V16c-.4 0-.8.4-.8.8s.4.8.8.8v1.6c-.4 0-.8.4-.8.8s.4.8.8.8v1.6c-.4 0-.8.4-.8.8h-1.6c0-.4-.4-.8-.8-.8s-.8.4-.8.8H20c0-.4-.4-.8-.8-.8s-.8.4-.8.8h-1.6c0-.4-.4-.8-.8-.8s-.8.4-.8.8h-1.6c0-.4-.4-.8-.8-.8s-.8.4-.8.8h-1.6c0-.4-.4-.8-.8-.8v-1.6c.4 0 .8-.4.8-.8s-.4-.8-.8-.8v-1.6c.4 0 .8-.4.8-.8s-.4-.8-.8-.8v-1.6c.4 0 .8-.4.8-.8H12c0 .4.4.8.8.8s.8-.4.8-.8h1.6c0 .4.4.8.8.8s.8-.4.8-.8h1.6c0 .4.4.8.8.8s.8-.4.8-.8h1.6zm0 0"/></g></svg>