<svg xmlns="http://www.w3.org/2000/svg" viewBox="0 0 40.9 40.9"><path fill="none" stroke="#3C3E59" stroke-width="1.5" stroke-miterlimit="10" d="M40.1 18.9v-.5c-.3-3-1.3-5.8-2.8-8.3C33.8 4.5 27.6.7 20.5.7c-.5 0-1 0-1.5.1h-.5c-3 .3-5.8 1.3-8.3 2.8C4.6 7.1.8 13.3.8 20.4c0 .5 0 1 .1 1.6v.5c.3 3 1.3 5.8 2.8 8.3 3.5 5.6 9.7 9.4 16.8 9.4.5 0 1 0 1.6-.1h.5c3-.3 5.8-1.3 8.3-2.8 5.6-3.5 9.4-9.7 9.4-16.8-.1-.6-.2-1.1-.2-1.6z"/><path fill="none" stroke="#3C3E59" stroke-width="1.5" stroke-miterlimit="10" d="M28.1 37.1c-.2.1-.4.2-.5.2-.1 0-.1.1-.2.1-1 .4-2.1.8-3.2 1-1.2.2-2.4.4-3.7.4-7.4 0-13.7-4.4-16.6-10.7-.1-.2-.2-.4-.2-.5 0-.1 0-.1-.1-.2-.4-1-.8-2.1-1-3.2-.2-1.2-.4-2.4-.4-3.7 0-7.4 4.4-13.7 10.7-16.7.2-.1.3-.2.5-.2.1 0 .1 0 .2-.1 1-.4 2.1-.8 3.2-1 1.2-.2 2.4-.4 3.7-.4 7.4 0 13.7 4.4 16.7 10.7.1.2.2.4.2.5 0 .1 0 .1.1.2.4 1 .8 2.1 1 3.2.2 1.2.4 2.4.4 3.7-.1 7.4-4.5 13.8-10.8 16.7z"/><path fill="#3D3E5A" stroke="#3C3E59" stroke-width="1.5" stroke-miterlimit="10" d="M23.7 20.9L19 25.6c-.1.1-.3.2-.5.2s-.4-.1-.5-.2c-.3-.3-.3-.7 0-1l4.2-4.3-4.2-4.1c-.3-.3-.3-.7 0-1 .3-.3.7-.3 1 0l4.8 4.6c.2.4.2.8-.1 1.1z"/></svg>