<svg xmlns="http://www.w3.org/2000/svg" viewBox="0 0 40.9 40.9"><g fill="#FFF" stroke="#C0924B" stroke-width="1.5" stroke-miterlimit="10"><path d="M34.1 34.6c3.6-3.5 5.9-8.4 6-13.8.1-7.4-3.8-13.8-9.8-17.3-.1-.1-.2-.1-.3-.2-.1-.1-.3-.1-.4-.2-2.7-1.4-5.7-2.3-9-2.3-5.4-.1-10.4 2-14 5.5C3 9.8.7 14.7.6 20.1c0 7.4 4 13.9 9.9 17.4.1.1.2.1.3.2.1.1.3.1.4.2 2.7 1.4 5.7 2.3 9 2.3 5.4.1 10.3-2.1 13.9-5.6zm-23.5 1.3C5.4 32.6 2 26.8 2.1 20.2 2.3 10 10.7 1.9 20.8 2.1c3.5.1 6.8 1.1 9.5 2.9 5.2 3.3 8.6 9.2 8.5 15.8-.2 10.1-8.5 18.2-18.7 18-3.5-.1-6.7-1.1-9.5-2.9z"/><path d="M20.1 38.8c-3.5-.1-6.8-1.1-9.5-2.9-5.2-3.3-8.6-9.1-8.5-15.7C2.3 10 10.7 1.9 20.8 2.1c3.5.1 6.8 1.1 9.5 2.9 5.2 3.3 8.6 9.2 8.5 15.8-.2 10.1-8.5 18.2-18.7 18z"/><path d="M20.4 18.7l4.2 4.2c.3.3.7.3 1 0 .3-.3.3-.7 0-1l-4.7-4.7c-.3-.3-.7-.3-1 0l-4.7 4.7c-.1.1-.2.3-.2.5s.1.4.2.5c.3.3.7.3 1 0l4.2-4.2z"/></g></svg>