<svg xmlns="http://www.w3.org/2000/svg" viewBox="0 0 36 46.4"><g fill="#212735"><path d="M35.6 9.8l-8.7-8.7-.6-.6c-.3-.3-.7-.5-1.1-.5H2C1 0 0 .7 0 2.3v42.5c0 .7.7 1.3 1.5 1.5h33c.8-.2 1.5-.9 1.5-1.5V11.2c0-.6-.1-1.1-.4-1.4zm-9.2-6.9l6.8 6.8h-6.8V2.9zM2 44.8h-.2c-.1-.1-.2-.2-.2-.3V32.8h32.8v11.6c0 .1-.1.3-.2.3H2zm-.4-13.6V2.3c0-.2 0-.7.4-.7h22.9v9.6h9.6v20H1.6zm0 0"/><path d="M7 36h2.4v7.2h1.3V36h2.4v-.9H7v.9zm12-.9l-1.5 3.3h-.1L16 35.1h-1.5l2.2 4.1-2 3.9h1.5l1.4-3h.1l1.3 3h1.5l-2-3.9 2.2-4.1H19zm2.9.9h2.4v7.2h1.3V36H28v-.9h-6.1v.9zM5.6 11.2h4.8c.4 0 .8-.4.8-.8s-.4-.8-.8-.8H5.6c-.4 0-.8.4-.8.8s.4.8.8.8zm0 4h7.2c.4 0 .8-.4.8-.8s-.4-.8-.8-.8H5.6c-.4 0-.8.4-.8.8s.4.8.8.8zm10.4 0c.2 0 .4-.1.6-.2.1-.2.2-.4.2-.6 0-.2-.1-.4-.2-.6-.3-.3-.8-.3-1.1 0-.2.2-.2.4-.2.6 0 .2.1.4.2.6.1.1.3.2.5.2zm3.2 0h6.4c.4 0 .8-.4.8-.8s-.4-.8-.8-.8h-6.4c-.4 0-.8.4-.8.8s.4.8.8.8zM5 25.8c-.1.2-.2.4-.2.6 0 .2.1.4.2.6.2.1.4.2.6.2.2 0 .4-.1.6-.2.1-.2.2-.4.2-.6 0-.2-.1-.4-.2-.6-.3-.3-.9-.3-1.2 0zm10.2-.2H8.8c-.4 0-.8.4-.8.8s.4.8.8.8h6.4c.4 0 .8-.4.8-.8s-.4-.8-.8-.8zm15.2-12h-1.6c-.4 0-.8.4-.8.8s.4.8.8.8h1.6c.4 0 .8-.4.8-.8s-.4-.8-.8-.8zM5.6 19.2h17.6c.4 0 .8-.4.8-.8s-.4-.8-.8-.8H5.6c-.4 0-.8.4-.8.8s.4.8.8.8zm24.8-1.6h-4.8c-.4 0-.8.4-.8.8s.4.8.8.8h4.8c.4 0 .8-.4.8-.8s-.4-.8-.8-.8zM5.6 23.2h3.2c.4 0 .8-.4.8-.8s-.4-.8-.8-.8H5.6c-.4 0-.8.4-.8.8s.4.8.8.8zM20 21.6h-8c-.4 0-.8.4-.8.8s.4.8.8.8h8c.4 0 .8-.4.8-.8s-.4-.8-.8-.8zm10.4 0h-7.2c-.4 0-.8.4-.8.8s.4.8.8.8h7.2c.4 0 .8-.4.8-.8s-.4-.8-.8-.8zm0 0"/></g></svg>