<svg xmlns="http://www.w3.org/2000/svg" viewBox="0 0 36 44.9"><g fill="#C0924B"><path d="M35.6 9.8L26.3.5c-.3-.3-.7-.5-1.1-.5H2C1 0 0 .7 0 2.3v42.5c0 .7.7-3.7 1.5-3.5h33c.8-.2 1.5 4.1 1.5 3.5V11.2c0-.6-.1-1.1-.4-1.4zm-2.5-.2h-6.8V2.9l6.8 6.7zM2 44.8h-.2c-.1-.1-.2-.2-.2-.3V32.8h32.8v11.6c0 .1-.1.3-.2.3H2zm-.4-13.6V2.3c0-.2 0-.7.4-.7h22.9v9.6h9.6v20H1.6zm0 0"/><path d="M12.6 35.1L11 38.4h-.1l-1.4-3.3H8l2.2 4.1-2 3.9h1.5l1.4-3h.1l1.3 3H14l-2-3.9 2.2-4.1h-1.6zm4.6 0h-1.3v8.1h5v-1h-3.7v-7.1zm8.8 4.2c-.3-.2-.5-.3-.8-.5-.3-.1-.6-.3-.8-.4-.3-.1-.5-.3-.6-.5-.2-.2-.2-.4-.2-.7 0-.1 0-.2.1-.4.1-.1.1-.2.2-.3.1-.1.2-.2.4-.3.1-.1.3-.1.4-.1h.6c.2 0 .3 0 .4.1.1 0 .2.1.2.1.1 0 .1.1.1.1l.1-.1c0-.1.1-.1.1-.2.1-.1.1-.2.2-.3.1-.1.1-.2.2-.3-.2-.1-.5-.2-.8-.3-.5-.2-.8-.2-1.2-.2-.3 0-.6.1-.9.2-.3.1-.6.3-.8.4-.2.2-.4.4-.5.7-.1.3-.2.6-.2 1s.1.7.2 1c.2.3.4.5.6.7.3.2.5.4.8.5.3.1.6.3.8.4.3.1.5.3.6.5.2.2.3.4.3.6 0 .4-.1.7-.4.9-.2.2-.6.3-1 .3h-.5c-.2 0-.3-.1-.5-.1s-.3-.1-.5-.2-.3-.1-.4-.2l-.2.9c.1.1.3.2.4.3.2.1.3.1.5.2.2 0 .4.1.6.1h.5c.4 0 .8-.1 1.1-.2.3-.1.6-.3.8-.5.2-.2.4-.5.5-.7.1-.3.2-.6.2-.8 0-.4-.1-.8-.2-1.1 0-.2-.2-.5-.4-.6zM14.4 10.4H4.8V28h26.4V13.6H14.4v-3.2zm-8 4.8h6.4v1.6H6.4v-1.6zm0 3.2h6.4V20H6.4v-1.6zm0 3.2h6.4v1.6H6.4v-1.6zm6.4 4.8H6.4v-1.6h6.4v1.6zm16.8 0H14.4v-1.6h15.2v1.6zm0-3.2H14.4v-1.6h15.2v1.6zm0-3.2H14.4v-1.6h15.2V20zm0-4.8v1.6H14.4v-1.6h15.2zM6.4 13.6V12h6.4v1.6H6.4zm0 0"/></g></svg>