<?xml version="1.0" encoding="utf-8"?>
<!-- Generator: Adobe Illustrator 18.0.0, SVG Export Plug-In . SVG Version: 6.00 Build 0)  -->
<!DOCTYPE svg PUBLIC "-//W3C//DTD SVG 1.1//EN" "http://www.w3.org/Graphics/SVG/1.1/DTD/svg11.dtd">
<svg version="1.1" id="Слой_1" xmlns="http://www.w3.org/2000/svg" xmlns:xlink="http://www.w3.org/1999/xlink" x="0px" y="0px"
	 viewBox="0 0 43.1 55.9" enable-background="new 0 0 43.1 55.9" xml:space="preserve">
<g>
	<g>
		<path fill="#2A2A36" d="M21.5,0C9.7,0,0,9.7,0,21.5C0,30,3.6,38.6,10.3,46.4c5,5.8,10,9.1,10.2,9.2c0.3,0.2,0.7,0.3,1.1,0.3
			c0.4,0,0.7-0.1,1.1-0.3c0.2-0.1,5.2-3.4,10.2-9.2c6.7-7.8,10.3-16.3,10.3-24.8C43.1,9.7,33.4,0,21.5,0L21.5,0z M21.5,51.6
			c-4-3-17.7-14.3-17.7-30c0-9.7,7.9-17.7,17.7-17.7c9.7,0,17.7,7.9,17.7,17.7C39.2,37.3,25.5,48.6,21.5,51.6L21.5,51.6z M21.5,51.6
			"/>
		<path fill="#2A2A36" d="M21.5,13c-4.7,0-8.5,3.8-8.5,8.5c0,4.7,3.8,8.5,8.5,8.5c4.7,0,8.5-3.8,8.5-8.5C30.1,16.8,26.2,13,21.5,13
			L21.5,13z M21.5,26.2c-2.6,0-4.7-2.1-4.7-4.7c0-2.6,2.1-4.7,4.7-4.7c2.6,0,4.7,2.1,4.7,4.7C26.2,24.1,24.1,26.2,21.5,26.2
			L21.5,26.2z M21.5,26.2"/>
	</g>
</g>
</svg>
