<?xml version="1.0" encoding="utf-8"?>
<!-- Generator: Adobe Illustrator 18.0.0, SVG Export Plug-In . SVG Version: 6.00 Build 0)  -->
<!DOCTYPE svg PUBLIC "-//W3C//DTD SVG 1.1//EN" "http://www.w3.org/Graphics/SVG/1.1/DTD/svg11.dtd">
<svg version="1.1" id="Слой_1" xmlns="http://www.w3.org/2000/svg" xmlns:xlink="http://www.w3.org/1999/xlink" x="0px" y="0px"
	 viewBox="0 0 40.9 40.9" enable-background="new 0 0 40.9 40.9" xml:space="preserve">
<g>
	<path fill="#FFFFFF" stroke="#3C3E59" stroke-width="1.5" stroke-miterlimit="10" d="M20.1,0.8c-3.2,0.1-6.3,0.9-9,2.3
		c-0.1,0.1-0.3,0.1-0.4,0.2c-0.1,0.1-0.2,0.1-0.3,0.2C4.6,7,0.6,13.4,0.8,20.8l0,0c0.1,5.4,2.4,10.3,6,13.8c3.6,3.5,8.6,5.6,14,5.5
		c3.2-0.1,6.3-0.9,9-2.3c0.1-0.1,0.3-0.1,0.4-0.2c0.1-0.1,0.2-0.1,0.3-0.2c5.9-3.5,9.9-10,9.8-17.3l0,0c-0.1-5.4-2.4-10.3-6-13.8
		C30.5,2.8,25.6,0.7,20.1,0.8z M20.1,2.1c10.1-0.2,18.5,7.9,18.7,18c0.1,6.6-3.3,12.4-8.5,15.8c-2.8,1.8-6,2.8-9.5,2.9
		C10.7,39,2.3,30.9,2.1,20.8C2,14.2,5.4,8.3,10.6,5C13.4,3.3,16.6,2.2,20.1,2.1z"/>
	<path fill="#FFFFFF" stroke="#3C3E59" stroke-width="1.5" stroke-miterlimit="10" d="M20.1,2.1c-3.5,0.1-6.8,1.1-9.5,2.9
		C5.4,8.3,2,14.2,2.1,20.8c0.2,10.1,8.5,18.2,18.7,18c3.5-0.1,6.8-1.1,9.5-2.9c5.2-3.3,8.6-9.2,8.5-15.8C38.6,10,30.3,1.9,20.1,2.1z
		"/>
	<path fill="#FFFFFF" stroke="#3C3E59" stroke-width="1.5" stroke-miterlimit="10" d="M20.4,22.2l4.2-4.2c0.3-0.3,0.7-0.3,1,0
		c0.3,0.3,0.3,0.7,0,1l-4.7,4.7c-0.3,0.3-0.7,0.3-1,0L15.2,19c-0.1-0.1-0.2-0.3-0.2-0.5c0-0.2,0.1-0.4,0.2-0.5c0.3-0.3,0.7-0.3,1,0
		L20.4,22.2z"/>
</g>
</svg>
