<?xml version="1.0" encoding="utf-8"?>
<!-- Generator: Adobe Illustrator 18.0.0, SVG Export Plug-In . SVG Version: 6.00 Build 0)  -->
<!DOCTYPE svg PUBLIC "-//W3C//DTD SVG 1.1//EN" "http://www.w3.org/Graphics/SVG/1.1/DTD/svg11.dtd">
<svg version="1.1" id="Слой_1" xmlns="http://www.w3.org/2000/svg" xmlns:xlink="http://www.w3.org/1999/xlink" x="0px" y="0px"
	 viewBox="0 0 100.6 100.6" enable-background="new 0 0 100.6 100.6" xml:space="preserve">
<g>
	<path fill="#C0924B" d="M47.7,57.5c0-2.2-0.3-7.3,2.9-7.3c1.7,0,1.1,5.5,1.1,6.5c0.4-0.4,0.9-0.9,1.3-1.3c-0.9,0.1-1.8,0.3-2.7,0.4
		c-1.2,0.2-2.5,0-3.8,0c0.4,0.4,0.9,0.9,1.3,1.3c0-0.1,0-0.3,0-0.4c-0.1-1.7-2.7-1.7-2.6,0c0,0.1,0,0.3,0,0.4c0,0.7,0.6,1.3,1.3,1.3
		c1,0,1.9,0.1,2.9,0.1c1.2,0,2.4-0.4,3.5-0.5c0.7-0.1,1.3-0.5,1.3-1.3c0.2-3.2,0.6-8.6-3.7-9.1c-2.1-0.3-4,1.6-4.7,3.4
		c-0.8,2-0.8,4.3-0.8,6.5C45.1,59.1,47.7,59.1,47.7,57.5L47.7,57.5z"/>
	<path fill="#C0924B" d="M29,58.4c0-0.2,0-0.3,0-0.5c-0.1-0.8-0.6-1.2-1.3-1.3c-1.3-0.1-2.9,0.8-2.9,2.2c-0.1,1.4,1.1,2.4,2.4,2.4
		c2.4,0,3.5-4.1,0.6-4.2c-1.7-0.1-1.7,2.5,0,2.6c-0.8,0-0.8-1-0.8-1c-0.5,0.6,0.5,0.5,0.7,0.6c-0.4-0.4-0.9-0.9-1.3-1.3
		c0,0.2,0,0.3,0,0.5C26.4,60.1,28.9,60,29,58.4L29,58.4z"/>
	<path fill="#C0924B" d="M72.5,56.4c-2.9-0.1-2.9,4.9-0.2,4.7c1.2-0.1,3-1.4,2.5-2.9c-0.5-1.4-1.9-1.7-3.2-1.8
		c-1.7-0.1-1.7,2.5,0,2.6c0.2,0,0.4,0,0.6,0.1c1.1,0.2-0.8,0,0-0.6c0.6-0.5,0.9,0.5,0.3,0.4C74.2,59,74.2,56.4,72.5,56.4L72.5,56.4z
		"/>
	<path fill="#C0924B" d="M41.5,37.3c-3.4,0-4.6-2.9-4.8-5.8c-0.3-3.7,2.9-6,5.4-8c3.2-2.5,8.4-5,9.2-9.5c0.3-1.6-2.2-2.3-2.5-0.7
		c-0.7,4.1-6.7,6.9-9.7,9.3c-2.6,2-4.4,4.3-4.9,7.5c-0.6,4.8,2.2,9.7,7.3,9.7C43.1,39.9,43.1,37.3,41.5,37.3L41.5,37.3z"/>
	<path fill="#C0924B" d="M58.5,40.1c5.2-0.1,7.5-4.7,7.3-9.4c-0.1-2.9-1.8-4.9-3.6-6.8c-3.1-3.2-10.2-5.6-11-10.3
		c-0.3-1.6-2.8-0.9-2.5,0.7c0.6,3.5,4.2,5.9,7,7.8c2.9,1.9,6.6,4.6,7.5,8.1c0.8,3.2-1,7.4-4.7,7.4C56.8,37.5,56.8,40.1,58.5,40.1
		L58.5,40.1z"/>
	<g>
		<path fill="#C0924B" d="M22.4,48.4c-1.6,0-2.2-1.5-2.3-2.9c-0.1-2,1.6-3.2,3-4.3c2-1.6,5-3,5.5-5.8c0.3-1.6-2.2-2.3-2.5-0.7
			c-0.4,2.2-3.9,3.9-5.6,5.2c-1.6,1.2-2.7,2.7-3,4.6c-0.4,3.1,1.4,6.3,4.8,6.4C24.1,51,24.1,48.4,22.4,48.4L22.4,48.4z"/>
		<path fill="#C0924B" d="M32.4,51.1c3.3,0,4.9-3,4.8-6c-0.1-1.8-1.1-3.1-2.3-4.4c-1.7-1.8-5.8-3.2-6.3-5.8
			c-0.3-1.6-2.8-0.9-2.5,0.7c0.4,2.2,2.6,3.7,4.3,4.9c1.6,1,3.7,2.5,4.1,4.4c0.4,1.5-0.5,3.6-2.2,3.6C30.7,48.5,30.7,51.1,32.4,51.1
			L32.4,51.1z"/>
	</g>
	<g>
		<path fill="#C0924B" d="M67.4,48.4c-1.6,0-2.2-1.5-2.3-2.9c-0.1-2,1.6-3.2,3-4.3c2-1.6,5-3,5.5-5.8c0.3-1.6-2.2-2.3-2.5-0.7
			c-0.4,2.2-3.9,3.9-5.6,5.2c-1.6,1.2-2.7,2.7-3,4.6C62.2,47.8,64,51,67.4,51C69.1,51,69.1,48.4,67.4,48.4L67.4,48.4z"/>
		<path fill="#C0924B" d="M77.3,51.1c3.3,0,4.9-3,4.8-6c-0.1-1.8-1.1-3.1-2.3-4.4c-1.7-1.8-5.8-3.2-6.3-5.8
			c-0.3-1.6-2.8-0.9-2.5,0.7c0.4,2.2,2.6,3.7,4.3,4.9c1.6,1,3.7,2.5,4.1,4.4c0.4,1.5-0.5,3.6-2.2,3.6C75.7,48.5,75.7,51.1,77.3,51.1
			L77.3,51.1z"/>
	</g>
	<path fill="#C0924B" d="M41.2,39.9c5.8,0,11.6,0,17.4,0c1.7,0,1.7-2.6,0-2.6c-5.8,0-11.6,0-17.4,0C39.6,37.3,39.6,39.9,41.2,39.9
		L41.2,39.9z"/>
	<path fill="#C0924B" d="M41.4,44.9c5.8,0,11.6,0,17.4,0c1.7,0,1.7-2.6,0-2.6c-5.8,0-11.6,0-17.4,0C39.7,42.3,39.7,44.9,41.4,44.9
		L41.4,44.9z"/>
	<path fill="#C0924B" d="M32.5,71.4c3,0,5.9,0,8.9,0c1.7,0,1.7-2.6,0-2.6c-3,0-5.9,0-8.9,0C30.8,68.8,30.8,71.4,32.5,71.4L32.5,71.4
		z"/>
	<path fill="#C0924B" d="M58.7,71.4c3,0,5.9,0,8.9,0c1.7,0,1.7-2.6,0-2.6c-3,0-5.9,0-8.9,0C57,68.8,57,71.4,58.7,71.4L58.7,71.4z"/>
	<path fill="#C0924B" d="M22.3,51c3.4,0,6.8,0,10.2,0c1.7,0,1.7-2.6,0-2.6c-3.4,0-6.8,0-10.2,0C20.6,48.4,20.6,51,22.3,51L22.3,51z"
		/>
	<path fill="#C0924B" d="M67.1,51c3.4,0,6.8,0,10.2,0c1.7,0,1.7-2.6,0-2.6c-3.4,0-6.8,0-10.2,0C65.4,48.4,65.4,51,67.1,51L67.1,51z"
		/>
	<path fill="#C0924B" d="M21,49.7c0,13.3,0,26.5,0,39.8c0,1.7,2.6,1.7,2.6,0c0-13.3,0-26.5,0-39.8C23.6,48.1,21,48.1,21,49.7
		L21,49.7z"/>
	<path fill="#C0924B" d="M77,49.7c0,13.3,0,26.5,0,39.8c0,1.7,2.6,1.7,2.6,0c0-13.3,0-26.5,0-39.8C79.6,48.1,77,48.1,77,49.7
		L77,49.7z"/>
	<path fill="#C0924B" d="M40.1,38.8c0,7.1,0,14.1,0,21.2c0,1.7,2.6,1.7,2.6,0c0-7.1,0-14.1,0-21.2C42.7,37.1,40.1,37.1,40.1,38.8
		L40.1,38.8z"/>
	<path fill="#C0924B" d="M31.2,49.4c0,3.6,0,7.2,0,10.7c0,1.7,2.6,1.7,2.6,0c0-3.6,0-7.2,0-10.7C33.8,47.7,31.2,47.7,31.2,49.4
		L31.2,49.4z"/>
	<path fill="#C0924B" d="M65.8,49.4c0,3.6,0,7.2,0,10.7c0,1.7,2.6,1.7,2.6,0c0-3.6,0-7.2,0-10.7C68.4,47.7,65.8,47.7,65.8,49.4
		L65.8,49.4z"/>
	<path fill="#C0924B" d="M57.5,38.8c0,7.1,0,14.1,0,21.2c0,1.7,2.6,1.7,2.6,0c0-7.1,0-14.1,0-21.2C60.1,37.1,57.5,37.1,57.5,38.8
		L57.5,38.8z"/>
	<path fill="none" d="M50.3,99.9c-13.3,0-25.7-5.2-35.1-14.5C5.8,76,0.6,63.5,0.6,50.3s5.2-25.7,14.5-35.1C24.6,5.8,37,0.6,50.3,0.6
		c13.3,0,25.7,5.2,35.1,14.5c9.4,9.4,14.5,21.8,14.5,35.1S94.7,76,85.4,85.4C76,94.7,63.5,99.9,50.3,99.9z"/>
	<g>
		<g>
			<g>
				<g>
					<g>
						<path fill="#2A2A36" d="M50.3,99.9c-13.3,0-25.7-5.2-35.1-14.5C5.8,76,0.6,63.5,0.6,50.3c0-13.3,5.2-25.7,14.5-35.1
							C24.6,5.8,37,0.6,50.3,0.6c13.3,0,25.7,5.2,35.1,14.5c9.4,9.4,14.5,21.8,14.5,35.1c0,13.3-5.2,25.7-14.5,35.1
							C76,94.7,63.5,99.9,50.3,99.9z M50.3,1.9c-12.9,0-25.1,5-34.2,14.2C7,25.2,1.9,37.4,1.9,50.3c0,12.9,5,25.1,14.2,34.2
							c9.1,9.1,21.3,14.2,34.2,14.2s25.1-5,34.2-14.2s14.2-21.3,14.2-34.2c0-12.9-5-25.1-14.2-34.2C75.3,7,63.2,1.9,50.3,1.9z"/>
						<path fill="#2A2A36" d="M50.3,100.6c-13.4,0-26.1-5.2-35.6-14.7C5.2,76.3,0,63.7,0,50.3c0-13.4,5.2-26.1,14.7-35.6
							C24.2,5.2,36.9,0,50.3,0c13.4,0,26.1,5.2,35.6,14.7c9.5,9.5,14.7,22.1,14.7,35.6c0,13.4-5.2,26.1-14.7,35.6
							C76.3,95.3,63.7,100.6,50.3,100.6z M50.3,2.6c-12.7,0-24.7,5-33.7,14c-9,9-14,21-14,33.7c0,12.7,5,24.7,14,33.7
							c9,9,21,14,33.7,14C63,98,75,93,84,84c9-9,14-21,14-33.7c0-12.7-5-24.7-14-33.7C75,7.5,63,2.6,50.3,2.6z"/>
					</g>
				</g>
			</g>
		</g>
	</g>
</g>
</svg>
