<?xml version="1.0" encoding="utf-8"?>
<!-- Generator: Adobe Illustrator 18.0.0, SVG Export Plug-In . SVG Version: 6.00 Build 0)  -->
<!DOCTYPE svg PUBLIC "-//W3C//DTD SVG 1.1//EN" "http://www.w3.org/Graphics/SVG/1.1/DTD/svg11.dtd">
<svg version="1.1" id="Слой_1" xmlns="http://www.w3.org/2000/svg" xmlns:xlink="http://www.w3.org/1999/xlink" x="0px" y="0px"
	 viewBox="0 0 100.6 100.6" enable-background="new 0 0 100.6 100.6" xml:space="preserve">
<g>
	<path fill="#C0924B" d="M90,49.9l-1.2-1.2c-4.5-4.5-11.5-4.8-16.4-1c-0.2-1.4-0.6-2.7-1.3-4c-0.4-0.8-1.3-1.1-2.1-0.7
		c-0.8,0.4-1.1,1.3-0.7,2.1c2,4.1,1.4,8.9-1.2,12.5c-0.2-1.9-1-3.6-2.3-4.9c-1.2-1.2-2.7-2-4.3-2.4L63.2,18c0-0.4-0.1-0.9-0.4-1.2
		c-0.3-0.3-0.7-0.5-1.1-0.5H26.1c-0.4,0-0.8,0.2-1.1,0.5c-0.3,0.3-0.4,0.7-0.4,1.2L30,82.8c0.1,0.8,0.7,1.4,1.5,1.4h27.4
		c0,0,0.1,0,0.1,0c1.1,0,2.2-0.1,3.3-0.3c4.1-0.8,7.2-2.3,9.1-4.3c2.7-2.7,4.5-5.9,5.1-9.1c0.7-3.4-0.1-6.4-2.1-8.4
		c-1.3-1.3-3.1-2.1-5.2-2.3c1.4-1.7,2.4-3.7,2.9-5.9c2.3,1.9,5.1,2.8,7.9,2.8c3.2,0,6.3-1.2,8.7-3.6l1.2-1.2
		c0.3-0.3,0.5-0.7,0.5-1.1C90.4,50.6,90.2,50.2,90,49.9L90,49.9z M63.8,61L48.7,76.1c-2.4-3-3.4-7-2.6-10.8c0.6-3,2.4-6.5,4.1-8.2
		c2.2-2.2,4.7-3.5,7-3.9c0.4-0.1,0.7-0.1,1.1-0.1c1.7,0,3.2,0.6,4.3,1.7C64.1,56.2,64.5,58.4,63.8,61L63.8,61z M60,19.4l-0.7,8.1
		h-2.4l0.4-5c0.1-0.8-0.6-1.6-1.4-1.7c-0.8-0.1-1.6,0.6-1.7,1.4l-0.4,5.2H28.5l-0.7-8.1H60z M32.9,81.2l-4.2-50.6h24.8l-0.5,6.1
		c-0.1,0.8,0.6,1.6,1.4,1.7c0,0,0.1,0,0.1,0c0.8,0,1.5-0.6,1.5-1.4l0.5-6.3h2.4l-1.6,19.5c-0.2,0-0.4,0-0.6,0.1
		c-3,0.4-6.2,2.1-8.8,4.7c-2.2,2.2-4.2,6.2-5,9.8c-1.1,5.4,0.6,10.9,4.5,14.8l0,0c0,0,0,0,0,0c0.6,0.6,1.3,1.2,2,1.7H32.9z
		 M69.3,77.5c-1.6,1.6-4.1,2.7-7.6,3.4c-3.8,0.8-7.8-0.2-10.8-2.6L66,63.2c2.6-0.6,4.8-0.2,6.2,1.2C75,67.1,73.7,73.1,69.3,77.5
		L69.3,77.5z M86.6,51c-3.6,3.6-9.5,3.6-13.1,0L73.4,51l0.1-0.1c3.6-3.6,9.5-3.6,13.1,0V51L86.6,51z M86.6,51"/>
	<rect x="24.6" y="16.3" fill="none" width="65.9" height="68"/>
	<path fill="#C0924B" d="M61.6,68.4l-1.8,1.8c-0.6,0.6-0.6,1.6,0,2.2c0.3,0.3,0.7,0.5,1.1,0.5c0.4,0,0.8-0.2,1.1-0.5l1.8-1.8
		c0.6-0.6,0.6-1.6,0-2.2C63.2,67.8,62.2,67.8,61.6,68.4L61.6,68.4z M61.6,68.4"/>
	<path fill="#C0924B" d="M56.5,63.3l-1.8,1.8c-0.6,0.6-0.6,1.6,0,2.2c0.3,0.3,0.7,0.5,1.1,0.5c0.4,0,0.8-0.2,1.1-0.5l1.8-1.8
		c0.6-0.6,0.6-1.6,0-2.2S57.1,62.7,56.5,63.3L56.5,63.3z M56.5,63.3"/>
	<path fill="#C0924B" d="M53.8,47.9c0,0,0.1,0,0.1,0c0.8,0,1.5-0.6,1.5-1.4l0.3-3.7c0.1-0.8-0.6-1.6-1.4-1.7
		c-0.8-0.1-1.6,0.6-1.7,1.4l-0.3,3.7C52.3,47.1,52.9,47.9,53.8,47.9L53.8,47.9z M53.8,47.9"/>
	<g>
		<g>
			<g>
				<g>
					<g>
						<g>
							<path fill="#2A2A36" d="M50.3,99.9c-13.3,0-25.7-5.2-35.1-14.5C5.8,76,0.6,63.5,0.6,50.3c0-13.3,5.2-25.7,14.5-35.1
								C24.6,5.8,37,0.6,50.3,0.6c13.3,0,25.7,5.2,35.1,14.5c9.4,9.4,14.5,21.8,14.5,35.1c0,13.3-5.2,25.7-14.5,35.1
								C76,94.7,63.5,99.9,50.3,99.9z M50.3,1.9c-12.9,0-25.1,5-34.2,14.2C7,25.2,1.9,37.4,1.9,50.3c0,12.9,5,25.1,14.2,34.2
								c9.1,9.1,21.3,14.2,34.2,14.2s25.1-5,34.2-14.2s14.2-21.3,14.2-34.2c0-12.9-5-25.1-14.2-34.2C75.3,7,63.2,1.9,50.3,1.9z"/>
							<path fill="#2A2A36" d="M50.3,100.6c-13.4,0-26.1-5.2-35.6-14.7C5.2,76.3,0,63.7,0,50.3c0-13.4,5.2-26.1,14.7-35.6
								C24.2,5.2,36.9,0,50.3,0c13.4,0,26.1,5.2,35.6,14.7c9.5,9.5,14.7,22.1,14.7,35.6c0,13.4-5.2,26.1-14.7,35.6
								C76.3,95.3,63.7,100.6,50.3,100.6z M50.3,2.6c-12.7,0-24.7,5-33.7,14c-9,9-14,21-14,33.7c0,12.7,5,24.7,14,33.7
								c9,9,21,14,33.7,14C63,98,75,93,84,84c9-9,14-21,14-33.7c0-12.7-5-24.7-14-33.7C75,7.5,63,2.6,50.3,2.6z"/>
						</g>
					</g>
				</g>
			</g>
		</g>
	</g>
</g>
</svg>
