<?xml version="1.0" encoding="utf-8"?>
<!-- Generator: Adobe Illustrator 18.0.0, SVG Export Plug-In . SVG Version: 6.00 Build 0)  -->
<!DOCTYPE svg PUBLIC "-//W3C//DTD SVG 1.1//EN" "http://www.w3.org/Graphics/SVG/1.1/DTD/svg11.dtd">
<svg version="1.1" id="Слой_1" xmlns="http://www.w3.org/2000/svg" xmlns:xlink="http://www.w3.org/1999/xlink" x="0px" y="0px"
	 viewBox="0 0 100.6 100.6" enable-background="new 0 0 100.6 100.6" xml:space="preserve">
<g>
	<g>
		<g>
			<g>
				<path fill="#2A2A36" d="M50.3,99.9c-13.3,0-25.7-5.2-35.1-14.5C5.8,76,0.6,63.5,0.6,50.3s5.2-25.7,14.5-35.1
					C24.6,5.8,37,0.6,50.3,0.6S76,5.8,85.4,15.2c9.4,9.4,14.5,21.8,14.5,35.1S94.7,76,85.4,85.4C76,94.7,63.5,99.9,50.3,99.9z
					 M50.3,1.9c-12.9,0-25.1,5-34.2,14.2C7,25.2,1.9,37.4,1.9,50.3s5,25.1,14.2,34.2c9.1,9.1,21.3,14.2,34.2,14.2s25.1-5,34.2-14.2
					c9.1-9.1,14.2-21.3,14.2-34.2s-5-25.1-14.2-34.2C75.3,7,63.2,1.9,50.3,1.9z"/>
				<path fill="#2A2A36" d="M50.3,100.6c-13.4,0-26.1-5.2-35.6-14.7C5.2,76.3,0,63.7,0,50.3s5.2-26.1,14.7-35.6
					C24.2,5.2,36.9,0,50.3,0c13.4,0,26.1,5.2,35.6,14.7c9.5,9.5,14.7,22.1,14.7,35.6s-5.2,26.1-14.7,35.6
					C76.3,95.3,63.7,100.6,50.3,100.6z M50.3,2.6c-12.7,0-24.7,5-33.7,14c-9,9-14,21-14,33.7s5,24.7,14,33.7c9,9,21,14,33.7,14
					C63,98,75,93,84,84c9-9,14-21,14-33.7c0-12.7-5-24.7-14-33.7C75,7.5,63,2.6,50.3,2.6z"/>
			</g>
		</g>
	</g>
</g>
<g>
	<g>
		<g>
			<path fill="#C0924B" d="M50.7,50c-0.3,0-0.6,0-0.9,0c-3.4,0-11.9-0.6-17.2-5.8c-6.2-6.1-6.2-16.6-6.2-18.5c0.3,0,0.8,0,1.4,0
				c3.4,0,11.9,0.6,17.2,5.8c5.8,5.7,6.2,15.2,6.2,18l0,0c0-1,0-2.8,0.3-4.9c-0.6-4.2-2.1-9.7-6.1-13.6c-5.5-5.4-14.2-6-17.7-6
				c-1.1,0-1.7,0.1-1.7,0.1l-0.3,0l0,0.3c0,0.1-0.7,12.4,6.4,19.3c5.5,5.4,14.2,6,17.7,6c0.6,0,1.1,0,1.4,0v-0.2L50.7,50z"/>
			<path fill="#C0924B" d="M50.7,49c-6.8,0.1-13.7-1.4-18.4-6.6c-2.6-2.8-3.7-6.8-4.4-10.5c-0.3-1.5-0.4-3.1-0.5-4.6
				c-0.1-1.7-0.1-0.7,1.1-0.7c7.7,0.1,15,2.9,18.9,9.8c1.7,3,2.3,6.7,2.7,10c0.1,0.9-0.3,2.9,0.4,3.6c0.6,0.6,1.7,0.2,1.7-0.7
				c0.1-7.4-0.7-15.5-7.3-20.3c-5.4-4-12.4-5.6-19.1-5c-0.6,0-0.9,0.4-1,1c-0.4,6.2,1.2,12.8,4.7,18c4.6,6.9,14,8.7,21.7,8.5
				c0.5,0,1-0.4,1-1c0-0.7-0.3-0.9-0.7-1.4c-0.9-0.9-2.3,0.5-1.4,1.4c0.5,0.4,0-1-1-1c-1.7,0-3.4-0.2-5.1-0.5
				c-4.2-0.7-8-2.4-11.1-5.2c-4.8-4.2-6.1-11.8-6.1-17.9c0-0.2,0-0.5,0-0.7c-0.9,0.6-0.9,0.8-0.2,0.6c0.7,0,1.4,0,2,0
				c3.1,0,6.1,0.6,9.1,1.5c4.8,1.5,8.4,4.8,10.7,9.2c2.2,4.2,2,8.2,1.9,12.8c0.6-0.2,1.1-0.5,1.7-0.7c0,0-0.3-5.8-0.5-6.9
				c-0.7-3.7-2.4-7.1-4.7-10.1c-4.6-5.9-13.3-7.3-20.3-7.1c-0.5,0-1,0.4-1,1c-0.1,6.5,1.5,12.9,5.5,18.1c4.5,5.7,13,7.2,19.8,7.1
				C52,51,52,49,50.7,49z"/>
		</g>
	</g>
	<g>
		<g>
			<path fill="#C0924B" d="M51.2,49.5L34.3,33c-0.1-0.1-0.4-0.1-0.5,0c-0.1,0.1-0.1,0.4,0,0.5L50.7,50l0.5,0.4v-0.1
				c0-0.1,0-0.1,0-0.2C51.2,50,51.2,49.8,51.2,49.5L51.2,49.5z"/>
			<path fill="#C0924B" d="M51.9,48.8c-3.1-3-6.1-6-9.2-9c-2-2-4-3.9-6-5.9c-0.9-0.9-1.6-1.9-2.9-1.9c-0.5,0-1,0.4-1,1
				c0,1.3,1.1,2,2,2.8c2,2,4,3.9,6,5.9c3.2,3.1,6.4,6.3,9.6,9.4c0.6,0.6,1.7,0.2,1.7-0.7C52.2,49.9,52.4,49.3,51.9,48.8
				c-0.9-0.9-2.3,0.5-1.4,1.4c-0.4-0.4-0.3,0-0.3,0.3c0.6-0.2,1.1-0.5,1.7-0.7c-2.7-2.7-5.4-5.3-8.2-8c-2-2-4-4-6.1-5.9
				c-0.8-0.7-1.5-1.5-2.3-2.2c-0.2-0.2-0.4-0.4-0.6-0.6c-0.4-0.4,0-0.2,0-0.1c-0.3,0.3-0.6,0.6-1,1c-0.2,0-0.1-0.2,0.4,0.3
				c0.6,0.6,1.1,1.1,1.7,1.7c1.9,1.9,3.9,3.8,5.8,5.7c2.9,2.8,5.8,5.7,8.7,8.5C51.4,51.1,52.8,49.7,51.9,48.8z"/>
		</g>
	</g>
	<g>
		<g>
			<path fill="#C0924B" d="M51.2,49.5c0,0.3,0,0.5,0,0.6c0-0.1,0.1-0.1,0.2-0.2l0.5-0.5c0-2.8,0.4-12.3,6.2-18
				c5.4-5.2,13.8-5.8,17.2-5.8c0.6,0,1.1,0,1.4,0c0.1,1.9,0,12.4-6.2,18.5C65.2,49.5,56.7,50,53.3,50h0c-0.4,0-0.7,0-0.9,0l-0.5,0.5
				v0.2c0.3,0,0.8,0,1.4,0h0c3.5,0,12.2-0.6,17.7-6c7.1-6.9,6.4-19.2,6.4-19.3l0-0.3l-0.3,0c0,0-0.7-0.1-1.7-0.1
				c-3.5,0-12.2,0.6-17.7,6c-4,3.9-5.5,9.4-6.1,13.6C51.3,46.8,51.2,48.6,51.2,49.5z"/>
			<path fill="#C0924B" d="M50.3,49.5c0,0.2,0,0.4,0,0.6c0,0.9,1,1.2,1.7,0.7c1-0.8,0.9-1.3,1-2.6c0.1-4.1,1-8.1,2.8-11.7
				c2.4-5.2,7.4-7.8,12.7-9.1c1.8-0.4,3.6-0.6,5.4-0.7c1.6-0.1,2-1,2,0.6C75.5,37,71.1,45.1,61.6,48c-3,0.9-6.1,1.1-9.2,1.1
				c-0.8,0-1.5,0.9-1.5,1.6c0,0.5,0.4,1,1,1c8.1,0.2,16.4-1.8,21.6-8.4c3.8-4.8,5.2-12.1,4.8-18.2c0-0.6-0.4-0.9-1-1
				c-6.6-0.6-13.7,1.1-19.1,5C52.2,33.7,50.3,42.4,50.3,49.5c0,1.3,1.9,1.3,1.9,0c0.1-7.4,2.1-15,8.3-19.6c4.5-3.3,10.7-4,16.1-3.9
				c0.2,0-0.2-1.2-0.2,0.6c0,2.1-0.3,4.1-0.6,6.1c-1.4,7.9-6.3,13.5-14,15.8c-2.5,0.8-5.1,1-7.7,1.1c-1.4,0.1-1.6,1.3,0,1.3
				c4.7-0.1,9.3-1.2,13.4-3.3c7.8-4,10.3-13.8,10.2-21.9c0-0.5-0.4-1-1-1c-7.4-0.2-15,1.5-20.3,7.1c-2.5,2.7-3.9,6.5-4.7,10.1
				c-0.4,1.8,0,6.4-1.2,7.5c0.6,0.2,1.1,0.5,1.7,0.7c0-0.2,0-0.4,0-0.6C52.2,48.3,50.2,48.3,50.3,49.5z"/>
		</g>
	</g>
	<g>
		<g>
			<path fill="#C0924B" d="M69.3,33.5c0.1-0.1,0.1-0.4,0-0.5c-0.1-0.1-0.4-0.1-0.5,0L51.9,49.5L51.4,50c0,0,0.1,0,0.1,0
				c0.2,0,0.3,0.2,0.3,0.3v0.2l0.5-0.5L69.3,33.5z"/>
			<path fill="#C0924B" d="M70.3,33.5c0-0.2,0-0.3,0-0.5c0-0.5-0.4-1-1-1c-1.3,0-2,1.1-2.9,2c-2.1,2-4.1,4-6.2,6
				c-3.1,3.1-6.3,6.1-9.4,9.2c-0.7,0.7,0,1.8,0.9,1.6c-0.3-0.1-0.5-0.3-0.8-0.4c0,0.9,1.1,1.3,1.7,0.7c5.8-5.7,11.6-11.3,17.4-17
				c0.9-0.9-0.5-2.3-1.4-1.4c-5.8,5.7-11.6,11.3-17.4,17c0.6,0.2,1.1,0.5,1.7,0.7c0-0.9-0.8-1.6-1.7-1.5c0.3,0.5,0.6,1.1,0.9,1.6
				c2.8-2.7,5.6-5.5,8.4-8.2c2-2,4.1-4,6.1-6c0.6-0.6,1.3-1.3,1.9-1.9c0.2-0.2,0.4-0.4,0.6-0.6c0.5-0.4,0.2,0,0.1,0
				c-0.3-0.3-0.6-0.6-1-1c0,0.2,0,0.3,0,0.5C68.3,34.8,70.2,34.8,70.3,33.5z"/>
		</g>
	</g>
	<g>
		<g>
			<path fill="#C0924B" d="M51.9,50.5v-0.2c0-0.2-0.2-0.3-0.3-0.3c0,0-0.1,0-0.1,0c-0.1,0-0.1,0.1-0.2,0.2c0,0,0,0.1,0,0.2v0.1v0.2
				v18.4c0.1,0,0.2,0,0.4,0c0.1,0,0.2,0,0.3,0V50.7V50.5z"/>
			<path fill="#C0924B" d="M52.9,50.5c0-1.3-1.7-2.1-2.5-0.8c-0.5,0.9-0.2,2.8-0.2,3.8c0,5.2,0,10.5,0,15.7c0,0.5,0.4,1,1,1
				c0.2,0,0.5,0,0.7,0c0.5,0,1-0.5,1-1C52.9,62.9,52.9,56.7,52.9,50.5c0-1.3-1.9-1.3-1.9,0c0,6.2,0,12.4,0,18.6c0.3-0.3,0.6-0.6,1-1
				c-0.2,0-0.5,0-0.7,0c0.3,0.3,0.6,0.6,1,1c0-3.2,0-6.4,0-9.6c0-2.2,0-4.4,0-6.6c0-0.6,0-1.2,0-1.9c0-0.6-1.3-1.5-1.3-0.5
				C50.9,51.8,52.9,51.8,52.9,50.5z"/>
		</g>
	</g>
	<g>
		<g>
			<path fill="#C0924B" d="M51.2,69.1c-8.6,0.3-16.4,3.8-20.6,9.1c-0.1,0.1-0.1,0.4,0.1,0.5c0.1,0,0.1,0.1,0.2,0.1
				c0.1,0,0.2,0,0.3-0.1c4.1-5.3,11.9-8.6,20.4-8.9c8.5,0.2,16.3,3.6,20.4,8.9c0.1,0.1,0.3,0.2,0.5,0.1c0.1-0.1,0.2-0.3,0.1-0.5
				c-4.2-5.3-12-8.8-20.6-9.1c-0.1,0-0.2,0-0.3,0C51.4,69.1,51.3,69.1,51.2,69.1z"/>
			<path fill="#C0924B" d="M51.2,68.2c-5,0.3-9.6,1.4-14.2,3.6c-2.1,1-7.7,4.2-7.3,6.9c0.1,0.5,0.3,0.8,0.7,0.9
				c1.2,0.4,1.9-0.8,2.5-1.6c4-4.6,10.7-6.5,16.5-7.2c5.8-0.7,11.8,1.2,16.8,4c2.1,1.2,3.8,4.5,6.2,4.8c0.6,0.1,0.9-0.5,1-1
				c0.4-2.9-5.3-5.7-7.3-6.9C61.8,69.3,56.1,68,51.2,68.2c-1.3,0-1.3,2,0,1.9c3.6-0.1,7.2,0.8,10.6,1.9c2.8,0.9,5.4,2.6,7.7,4.4
				c1.8,1.5,2.7,0.9,0.9-0.9c-4.4-4.2-10.8-5.9-16.7-6.6c-6.7-0.8-13.8,1.6-19.3,5.3c-1,0.7-1.9,1.6-2.8,2.4
				c0.3,0.3,0.6,0.6,0.8,0.9c1.2-1.2,2.5-2.3,4-3.2c4.3-2.9,9.7-4,14.8-4.3C52.4,70,52.5,68.1,51.2,68.2z"/>
		</g>
	</g>
	<g>
		<g>
			<path fill="#C0924B" d="M49.6,75.9c0.2,0,0.3-0.2,0.3-0.3c0-0.2-0.2-0.3-0.3-0.3h-2.8c-0.2,0-0.3,0.2-0.3,0.3
				c0,0.2,0.2,0.3,0.3,0.3H49.6z"/>
			<path fill="#C0924B" d="M49.9,76.9c1.3-0.5,1.4-2.6-0.3-2.6c-0.9,0-1.8,0-2.8,0c-1.7,0-1.7,2.6,0,2.6c0.9,0,1.9,0,2.8,0
				c1.3,0,1.3-1.9,0-1.9c-0.8,0-2.1,0.2-2.8-0.1c0.2,0.2,0.5,0.5,0.7,0.7c0,0,0,0,0,0c-0.2,0.2-0.5,0.5-0.7,0.7
				c0.5-0.2,2.2-0.2,2.8,0c-0.2-0.2-0.5-0.5-0.7-0.7c0,0,0,0,0,0c0.2-0.2,0.5-0.5,0.7-0.7c-0.1,0-0.2,0.1-0.2,0.1
				C48.2,75.5,48.7,77.4,49.9,76.9z"/>
		</g>
	</g>
	<g>
		<g>
			<path fill="#C0924B" d="M43.7,80.4c0,0.2,0.2,0.3,0.3,0.3h2.8c0.2,0,0.3-0.2,0.3-0.3c0-0.2-0.2-0.3-0.3-0.3H44
				C43.8,80.1,43.7,80.3,43.7,80.4z"/>
			<path fill="#C0924B" d="M42.7,80.7c0.5,1.3,1.6,1.1,2.8,1.1c1,0,2.6,0.1,2.6-1.3c0-1.5-1.6-1.3-2.6-1.3c-1.2,0-2.3-0.2-2.8,1.1
				c-0.5,1.2,1.4,1.7,1.9,0.5c0-0.1,0.1-0.2,0.1-0.2c-0.2,0.2-0.5,0.5-0.7,0.7c0.5-0.2,2.2-0.2,2.8,0c-0.2-0.2-0.5-0.5-0.7-0.7
				c0,0,0,0,0,0c0.2-0.2,0.5-0.5,0.7-0.7c-0.5,0.2-2.2,0.2-2.8,0c0.2,0.2,0.5,0.5,0.7,0.7c0-0.1-0.1-0.2-0.1-0.2
				C44.1,79,42.2,79.5,42.7,80.7z"/>
		</g>
	</g>
	<g>
		<g>
			<path fill="#C0924B" d="M59.3,78.8c0.2,0,0.3-0.2,0.3-0.3c0-0.2-0.2-0.3-0.3-0.3h-2.8c-0.2,0-0.3,0.2-0.3,0.3
				c0,0.2,0.2,0.3,0.3,0.3H59.3z"/>
			<path fill="#C0924B" d="M59.5,79.7c1.3-0.5,1.4-2.6-0.3-2.6c-0.9,0-1.8,0-2.8,0c-1.7,0-1.7,2.6,0,2.6c0.9,0,1.9,0,2.8,0
				c1.3,0,1.3-1.9,0-1.9c-0.8,0-2.1,0.2-2.8-0.1c0.2,0.2,0.5,0.5,0.7,0.7c0,0,0,0,0,0c-0.2,0.2-0.5,0.5-0.7,0.7
				c0.5-0.2,2.2-0.2,2.8,0c-0.2-0.2-0.5-0.5-0.7-0.7c0,0,0,0,0,0c0.2-0.2,0.5-0.5,0.7-0.7c-0.1,0-0.2,0.1-0.2,0.1
				C57.9,78.3,58.4,80.2,59.5,79.7z"/>
		</g>
	</g>
</g>
</svg>
