<?xml version="1.0" encoding="utf-8"?>
<!-- Generator: Adobe Illustrator 18.0.0, SVG Export Plug-In . SVG Version: 6.00 Build 0)  -->
<!DOCTYPE svg PUBLIC "-//W3C//DTD SVG 1.1//EN" "http://www.w3.org/Graphics/SVG/1.1/DTD/svg11.dtd">
<svg version="1.1" id="Слой_1" xmlns="http://www.w3.org/2000/svg" xmlns:xlink="http://www.w3.org/1999/xlink" x="0px" y="0px"
	 viewBox="0 0 100.6 100.6" enable-background="new 0 0 100.6 100.6" xml:space="preserve">
<g>
	<g>
		<g>
			<g>
				<g>
					<g>
						<path fill="#2A2A36" d="M50.3,99.9c-13.3,0-25.7-5.2-35.1-14.5C5.8,76,0.6,63.5,0.6,50.3c0-13.3,5.2-25.7,14.5-35.1
							C24.6,5.8,37,0.6,50.3,0.6c13.3,0,25.7,5.2,35.1,14.5c9.4,9.4,14.5,21.8,14.5,35.1c0,13.3-5.2,25.7-14.5,35.1
							C76,94.7,63.5,99.9,50.3,99.9z M50.3,1.9c-12.9,0-25.1,5-34.2,14.2C7,25.2,1.9,37.4,1.9,50.3c0,12.9,5,25.1,14.2,34.2
							c9.1,9.1,21.3,14.2,34.2,14.2s25.1-5,34.2-14.2s14.2-21.3,14.2-34.2c0-12.9-5-25.1-14.2-34.2C75.3,7,63.2,1.9,50.3,1.9z"/>
						<path fill="#2A2A36" d="M50.3,100.6c-13.4,0-26.1-5.2-35.6-14.7C5.2,76.3,0,63.7,0,50.3c0-13.4,5.2-26.1,14.7-35.6
							C24.2,5.2,36.9,0,50.3,0c13.4,0,26.1,5.2,35.6,14.7c9.5,9.5,14.7,22.1,14.7,35.6c0,13.4-5.2,26.1-14.7,35.6
							C76.3,95.3,63.7,100.6,50.3,100.6z M50.3,2.6c-12.7,0-24.7,5-33.7,14c-9,9-14,21-14,33.7c0,12.7,5,24.7,14,33.7
							c9,9,21,14,33.7,14C63,98,75,93,84,84c9-9,14-21,14-33.7c0-12.7-5-24.7-14-33.7C75,7.5,63,2.6,50.3,2.6z"/>
					</g>
				</g>
			</g>
		</g>
	</g>
	<g>
		<path fill="#C0924B" d="M71.8,16.4h-43c-0.8,0-1.4,0.6-1.4,1.4v65.5c0,0.8,0.6,1.4,1.4,1.4h43c0.8,0,1.4-0.6,1.4-1.4V17.8
			C73.2,17,72.6,16.4,71.8,16.4L71.8,16.4z M70.4,81.9H30.2V19.2h40.2V81.9z M33.4,40.4h14.8c0.8,0,1.4-0.6,1.4-1.4V24.1
			c0-0.8-0.6-1.4-1.4-1.4H33.4c-0.8,0-1.4,0.6-1.4,1.4v14.8C32,39.7,32.6,40.4,33.4,40.4L33.4,40.4z M34.8,25.6h1.4v9.1
			c0,0.8,0.6,1.4,1.4,1.4h6.3c0.8,0,1.4-0.6,1.4-1.4c0-0.8-0.6-1.4-1.4-1.4H39v-7.7h7.7v11.9H34.8V25.6z M52.4,40.4h14.8
			c0.8,0,1.4-0.6,1.4-1.4V24.1c0-0.8-0.6-1.4-1.4-1.4H52.4c-0.8,0-1.4,0.6-1.4,1.4v14.8C51,39.7,51.6,40.4,52.4,40.4L52.4,40.4z
			 M53.8,25.6h1.4v9.1c0,0.8,0.6,1.4,1.4,1.4H63c0.8,0,1.4-0.6,1.4-1.4c0-0.8-0.6-1.4-1.4-1.4H58v-7.7h7.7v11.9H53.8V25.6z
			 M33.4,59.4h14.8c0.8,0,1.4-0.6,1.4-1.4V43.2c0-0.8-0.6-1.4-1.4-1.4H33.4c-0.8,0-1.4,0.6-1.4,1.4V58C32,58.7,32.6,59.4,33.4,59.4
			L33.4,59.4z M34.8,44.6h1.4v9.1c0,0.8,0.6,1.4,1.4,1.4h6.3c0.8,0,1.4-0.6,1.4-1.4c0-0.8-0.6-1.4-1.4-1.4H39v-7.7h7.7v11.9H34.8
			V44.6z M52.4,59.4h14.8c0.8,0,1.4-0.6,1.4-1.4V43.2c0-0.8-0.6-1.4-1.4-1.4H52.4c-0.8,0-1.4,0.6-1.4,1.4V58
			C51,58.7,51.6,59.4,52.4,59.4L52.4,59.4z M53.8,44.6h1.4v9.1c0,0.8,0.6,1.4,1.4,1.4H63c0.8,0,1.4-0.6,1.4-1.4
			c0-0.8-0.6-1.4-1.4-1.4H58v-7.7h7.7v11.9H53.8V44.6z M33.4,78.4h14.8c0.8,0,1.4-0.6,1.4-1.4V62.2c0-0.8-0.6-1.4-1.4-1.4H33.4
			c-0.8,0-1.4,0.6-1.4,1.4V77C32,77.8,32.6,78.4,33.4,78.4L33.4,78.4z M34.8,63.6h1.4v9.1c0,0.8,0.6,1.4,1.4,1.4h6.3
			c0.8,0,1.4-0.6,1.4-1.4s-0.6-1.4-1.4-1.4H39v-7.7h7.7v11.9H34.8V63.6z M52.4,78.4h14.8c0.8,0,1.4-0.6,1.4-1.4V62.2
			c0-0.8-0.6-1.4-1.4-1.4H52.4c-0.8,0-1.4,0.6-1.4,1.4V77C51,77.8,51.6,78.4,52.4,78.4L52.4,78.4z M53.8,63.6h1.4v9.1
			c0,0.8,0.6,1.4,1.4,1.4H63c0.8,0,1.4-0.6,1.4-1.4s-0.6-1.4-1.4-1.4H58v-7.7h7.7v11.9H53.8V63.6z M53.8,63.6"/>
	</g>
</g>
</svg>
