<?xml version="1.0" encoding="utf-8"?>
<!-- Generator: Adobe Illustrator 18.0.0, SVG Export Plug-In . SVG Version: 6.00 Build 0)  -->
<!DOCTYPE svg PUBLIC "-//W3C//DTD SVG 1.1//EN" "http://www.w3.org/Graphics/SVG/1.1/DTD/svg11.dtd">
<svg version="1.1" id="Слой_1" xmlns="http://www.w3.org/2000/svg" xmlns:xlink="http://www.w3.org/1999/xlink" x="0px" y="0px"
	 viewBox="0 0 100.6 100.6" enable-background="new 0 0 100.6 100.6" xml:space="preserve">
<g>
	<g>
		<g>
			<g>
				<g>
					<path fill="#C0924B" d="M52.8,73L52.8,73c-3.7,0-6.6-2.9-6.6-6.5v-2.4c0-2.8-2.2-5.1-4.9-5.3c-0.4,0-0.6-0.3-0.6-0.7
						c0-0.4,0.3-0.6,0.7-0.6c3.4,0.2,6.1,3.1,6.1,6.5v2.4c0,2.9,2.4,5.3,5.3,5.3h0.1c2.9,0,5.3-2.4,5.3-5.3c0-1,0.8-1.8,1.8-1.8h2.3
						c0.4,0,0.6,0.3,0.6,0.6c0,0.4-0.3,0.6-0.6,0.6h-2.3c-0.3,0-0.5,0.2-0.5,0.5C59.4,70.1,56.4,73,52.8,73z"/>
					<path fill="#C0924B" d="M52.8,73.7L52.8,73.7c-4.1,0-7.3-3.2-7.3-7.2v-2.4c0-2.4-1.9-4.4-4.3-4.6c-0.3,0-0.7-0.2-0.9-0.4
						c-0.2-0.3-0.3-0.6-0.3-0.9c0-0.7,0.6-1.2,1.3-1.2c3.8,0.3,6.8,3.4,6.8,7.2v2.4c0,2.5,2.1,4.6,4.6,4.6c2.6,0,4.7-2.1,4.7-4.6
						c0-1.4,1.1-2.5,2.5-2.5h2.3c0.7,0,1.3,0.6,1.3,1.3c0,0.7-0.6,1.3-1.3,1.3h-2.3C60,70.4,56.8,73.7,52.8,73.7z"/>
				</g>
			</g>
		</g>
		<g>
			<g>
				<g>
					<path fill="#C0924B" d="M67,82.3H32.9c-1,0-2-0.5-2.5-1.4c-0.5-0.9-0.6-2-0.1-2.9l14.9-28.4c0.2-0.3,0.5-0.4,0.9-0.3
						c0.3,0.2,0.4,0.5,0.3,0.9L31.4,78.6c-0.3,0.5-0.2,1.1,0.1,1.6c0.3,0.5,0.8,0.8,1.4,0.8H67c0.6,0,1.1-0.3,1.4-0.8
						c0.3-0.5,0.3-1.1,0.1-1.6L53.6,50.2c-0.2-0.3,0-0.7,0.3-0.9c0.3-0.2,0.7,0,0.9,0.3L69.6,78c0.5,0.9,0.4,2-0.1,2.9
						C69,81.8,68,82.3,67,82.3z"/>
					<path fill="#C0924B" d="M67,83H32.9c-1.2,0-2.4-0.7-3.1-1.7c-0.6-1.1-0.7-2.4-0.1-3.5l14.9-28.4c0.3-0.6,1.1-0.9,1.7-0.5
						c0.6,0.3,0.9,1.1,0.5,1.7L32,78.9c-0.2,0.3-0.2,0.7,0,1c0.2,0.3,0.5,0.5,0.9,0.5H67c0.4,0,0.7-0.2,0.9-0.5c0.2-0.3,0.2-0.7,0-1
						L53,50.5c-0.3-0.6-0.1-1.4,0.5-1.7c0.6-0.3,1.4-0.1,1.7,0.5l14.9,28.4c0.6,1.1,0.5,2.5-0.1,3.5C69.4,82.3,68.3,83,67,83z"/>
				</g>
			</g>
		</g>
		<g>
			<g>
				<g>
					<path fill="#C0924B" d="M54.2,50.5c-0.4,0-0.6-0.3-0.6-0.6V31.1h-7.2v18.8c0,0.4-0.3,0.6-0.6,0.6c-0.4,0-0.6-0.3-0.6-0.6v-20
						h9.8v20C54.8,50.2,54.5,50.5,54.2,50.5z"/>
					<path fill="#C0924B" d="M54.2,51.2c-0.7,0-1.3-0.6-1.3-1.3V31.8H47v18.1c0,0.7-0.6,1.3-1.3,1.3c-0.7,0-1.3-0.6-1.3-1.3V29.2
						h11.1v20.7C55.5,50.6,54.9,51.2,54.2,51.2z"/>
				</g>
			</g>
		</g>
		<g>
			<g>
				<g>
					<path fill="#C0924B" d="M55.4,31.1h-11c-1.1,0-2-0.7-2.4-1.8l-0.8-2.8h17.4l-0.8,2.8C57.5,30.4,56.5,31.1,55.4,31.1z M43,27.9
						l0.3,1.1c0.2,0.5,0.6,0.8,1.1,0.8h11c0.5,0,1-0.3,1.1-0.8l0.3-1.1H43z"/>
					<path fill="#C0924B" d="M55.4,31.8h-11c-1.4,0-2.6-0.9-3-2.2l-1.1-3.6h19.1l-1.1,3.6C58,30.9,56.8,31.8,55.4,31.8z M43.8,28.5
						l0.1,0.3c0.1,0.2,0.3,0.4,0.5,0.4h11c0.2,0,0.4-0.2,0.5-0.4l0.1-0.3H43.8z"/>
				</g>
			</g>
		</g>
		<g>
			<g>
				<g>
					<path fill="#C0924B" d="M52.1,68.8c-1.5,0-2.8-1.2-2.8-2.8c0-1.5,1.2-2.8,2.8-2.8c1.5,0,2.8,1.2,2.8,2.8
						C54.8,67.6,53.6,68.8,52.1,68.8z M52.1,64.6c-0.8,0-1.5,0.7-1.5,1.5c0,0.8,0.7,1.5,1.5,1.5s1.5-0.7,1.5-1.5
						C53.5,65.2,52.9,64.6,52.1,64.6z"/>
					<path fill="#C0924B" d="M52.1,69.4c-1.9,0-3.4-1.5-3.4-3.4c0-1.9,1.5-3.4,3.4-3.4s3.4,1.5,3.4,3.4
						C55.5,67.9,53.9,69.4,52.1,69.4z M52.1,65.2c-0.5,0-0.8,0.4-0.8,0.8c0,0.5,0.4,0.8,0.8,0.8c0.5,0,0.8-0.4,0.8-0.8
						C52.9,65.6,52.5,65.2,52.1,65.2z"/>
				</g>
			</g>
		</g>
		<g>
			<g>
				<g>
					<path fill="#C0924B" d="M49.9,60.2c-1.5,0-2.8-1.2-2.8-2.8c0-1.5,1.2-2.8,2.8-2.8c1.5,0,2.8,1.2,2.8,2.8
						C52.7,59,51.5,60.2,49.9,60.2z M49.9,56c-0.8,0-1.5,0.7-1.5,1.5c0,0.8,0.7,1.5,1.5,1.5c0.8,0,1.5-0.7,1.5-1.5
						C51.4,56.6,50.8,56,49.9,56z"/>
					<path fill="#C0924B" d="M49.9,60.8c-1.9,0-3.4-1.5-3.4-3.4c0-1.9,1.5-3.4,3.4-3.4c1.9,0,3.4,1.5,3.4,3.4
						C53.3,59.3,51.8,60.8,49.9,60.8z M49.9,56.6c-0.5,0-0.8,0.4-0.8,0.8c0,0.5,0.4,0.8,0.8,0.8c0.5,0,0.8-0.4,0.8-0.8
						C50.8,57,50.4,56.6,49.9,56.6z"/>
				</g>
			</g>
		</g>
		<g>
			<g>
				<g>
					<path fill="#C0924B" d="M55.2,23.2c-1.5,0-2.8-1.2-2.8-2.8c0-1.5,1.2-2.8,2.8-2.8c1.5,0,2.8,1.2,2.8,2.8
						C58,21.9,56.8,23.2,55.2,23.2z M55.2,18.9c-0.8,0-1.5,0.7-1.5,1.5c0,0.8,0.7,1.5,1.5,1.5c0.8,0,1.5-0.7,1.5-1.5
						C56.7,19.6,56.1,18.9,55.2,18.9z"/>
					<path fill="#C0924B" d="M55.2,23.8c-1.9,0-3.4-1.5-3.4-3.4s1.5-3.4,3.4-3.4c1.9,0,3.4,1.5,3.4,3.4S57.1,23.8,55.2,23.8z
						 M55.2,19.6c-0.5,0-0.8,0.4-0.8,0.8c0,0.5,0.4,0.8,0.8,0.8c0.5,0,0.8-0.4,0.8-0.8C56.1,20,55.7,19.6,55.2,19.6z"/>
				</g>
			</g>
		</g>
		<g>
			<g>
				<g>
					<path fill="#C0924B" d="M49,16.4c-1.5,0-2.8-1.2-2.8-2.8c0-1.5,1.2-2.8,2.8-2.8c1.5,0,2.8,1.2,2.8,2.8
						C51.7,15.1,50.5,16.4,49,16.4z M49,12.1c-0.8,0-1.5,0.7-1.5,1.5c0,0.8,0.7,1.5,1.5,1.5c0.8,0,1.5-0.7,1.5-1.5
						C50.4,12.8,49.8,12.1,49,12.1z"/>
					<path fill="#C0924B" d="M49,17c-1.9,0-3.4-1.5-3.4-3.4c0-1.9,1.5-3.4,3.4-3.4s3.4,1.5,3.4,3.4C52.4,15.5,50.8,17,49,17z
						 M49,12.8c-0.5,0-0.8,0.4-0.8,0.8c0,0.5,0.4,0.8,0.8,0.8c0.5,0,0.8-0.4,0.8-0.8C49.8,13.1,49.4,12.8,49,12.8z"/>
				</g>
			</g>
		</g>
		<g>
			<g>
				<g>
					<path fill="#C0924B" d="M43.1,70.4H41c-0.4,0-0.6-0.3-0.6-0.6c0-0.4,0.3-0.6,0.6-0.6h2.1c0.4,0,0.6,0.3,0.6,0.6
						C43.7,70.1,43.4,70.4,43.1,70.4z"/>
					<path fill="#C0924B" d="M43.1,71.1H41c-0.7,0-1.3-0.6-1.3-1.3c0-0.7,0.6-1.3,1.3-1.3h2.1c0.7,0,1.3,0.6,1.3,1.3
						C44.4,70.5,43.8,71.1,43.1,71.1z"/>
				</g>
			</g>
		</g>
		<g>
			<g>
				<g>
					<path fill="#C0924B" d="M44.4,75.8h-7.5c-0.4,0-0.6-0.3-0.6-0.6c0-0.4,0.3-0.6,0.6-0.6h7.5c0.4,0,0.6,0.3,0.6,0.6
						C45,75.5,44.8,75.8,44.4,75.8z"/>
					<path fill="#C0924B" d="M44.4,76.4h-7.5c-0.7,0-1.3-0.6-1.3-1.3c0-0.7,0.6-1.3,1.3-1.3h7.5c0.7,0,1.3,0.6,1.3,1.3
						C45.7,75.9,45.1,76.4,44.4,76.4z"/>
				</g>
			</g>
		</g>
		<g>
			<g>
				<g>
					<path fill="#C0924B" d="M49,42.1c-0.4,0-0.6-0.3-0.6-0.6v-6.5c0-0.4,0.3-0.6,0.6-0.6s0.6,0.3,0.6,0.6v6.5
						C49.6,41.8,49.3,42.1,49,42.1z"/>
					<path fill="#C0924B" d="M49,42.7c-0.7,0-1.3-0.6-1.3-1.3v-6.5c0-0.7,0.6-1.3,1.3-1.3s1.3,0.6,1.3,1.3v6.5
						C50.3,42.1,49.7,42.7,49,42.7z"/>
				</g>
			</g>
		</g>
	</g>
	<g>
		<g>
			<g>
				<g>
					<path fill="#2A2A36" d="M50.3,99.9c-13.3,0-25.7-5.2-35.1-14.5C5.8,76,0.6,63.5,0.6,50.3c0-13.3,5.2-25.7,14.5-35.1
						C24.6,5.8,37,0.6,50.3,0.6c13.3,0,25.7,5.2,35.1,14.5c9.4,9.4,14.5,21.8,14.5,35.1S94.7,76,85.4,85.4
						C76,94.7,63.5,99.9,50.3,99.9z M50.3,1.9c-12.9,0-25.1,5-34.2,14.2C7,25.2,1.9,37.4,1.9,50.3c0,12.9,5,25.1,14.2,34.2
						c9.1,9.1,21.3,14.2,34.2,14.2c12.9,0,25.1-5,34.2-14.2c9.1-9.1,14.2-21.3,14.2-34.2c0-12.9-5-25.1-14.2-34.2
						C75.3,7,63.2,1.9,50.3,1.9z"/>
					<path fill="#2A2A36" d="M50.3,100.6c-13.4,0-26.1-5.2-35.6-14.7C5.2,76.3,0,63.7,0,50.3c0-13.4,5.2-26.1,14.7-35.6
						C24.2,5.2,36.9,0,50.3,0c13.4,0,26.1,5.2,35.6,14.7c9.5,9.5,14.7,22.1,14.7,35.6c0,13.4-5.2,26.1-14.7,35.6
						C76.3,95.3,63.7,100.6,50.3,100.6z M50.3,2.6c-12.7,0-24.7,5-33.7,14c-9,9-14,21-14,33.7s5,24.7,14,33.7c9,9,21,14,33.7,14
						C63,98,75,93,84,84s14-21,14-33.7s-5-24.7-14-33.7S63,2.6,50.3,2.6z"/>
				</g>
			</g>
		</g>
		<g>
			<g>
				<g>
					<path fill="#2A2A36" d="M14.7,84.6c-0.2,0-0.3-0.1-0.5-0.2c-0.2-0.2-0.2-0.7,0-0.9l17.6-17.6c0.2-0.2,0.7-0.2,0.9,0
						c0.2,0.2,0.2,0.7,0,0.9L15.1,84.4C15,84.5,14.9,84.6,14.7,84.6z"/>
					<path fill="#2A2A36" d="M14.7,85.2c-0.3,0-0.7-0.1-0.9-0.4c-0.5-0.5-0.5-1.3,0-1.8l17.6-17.6c0.5-0.5,1.3-0.5,1.8,0
						c0.2,0.2,0.4,0.6,0.4,0.9s-0.1,0.7-0.4,0.9L15.6,84.9C15.4,85.1,15,85.2,14.7,85.2z"/>
				</g>
			</g>
		</g>
		<g>
			<g>
				<g>
					<path fill="#2A2A36" d="M60.4,38.9c-0.2,0-0.3-0.1-0.5-0.2c-0.2-0.2-0.2-0.7,0-0.9l23.6-23.6c0.2-0.2,0.7-0.2,0.9,0
						c0.2,0.2,0.2,0.7,0,0.9L60.8,38.7C60.7,38.8,60.5,38.9,60.4,38.9z"/>
					<path fill="#2A2A36" d="M60.4,39.6c-0.3,0-0.7-0.1-0.9-0.4c-0.5-0.5-0.5-1.3,0-1.8L83,13.8c0.5-0.5,1.3-0.5,1.8,0
						c0.2,0.2,0.4,0.6,0.4,0.9s-0.1,0.7-0.4,0.9L61.3,39.2C61,39.4,60.7,39.6,60.4,39.6z"/>
				</g>
			</g>
		</g>
	</g>
</g>
</svg>
