<?xml version="1.0" encoding="utf-8"?>
<!-- Generator: Adobe Illustrator 18.0.0, SVG Export Plug-In . SVG Version: 6.00 Build 0)  -->
<!DOCTYPE svg PUBLIC "-//W3C//DTD SVG 1.1//EN" "http://www.w3.org/Graphics/SVG/1.1/DTD/svg11.dtd">
<svg version="1.1" id="Слой_1" xmlns="http://www.w3.org/2000/svg" xmlns:xlink="http://www.w3.org/1999/xlink" x="0px" y="0px"
	 viewBox="0 0 100.6 100.6" enable-background="new 0 0 100.6 100.6" xml:space="preserve">
<g>
	<g>
		<g>
			<g>
				<g>
					<g>
						<path fill="#2A2A36" d="M50.3,99.9c-13.3,0-25.7-5.2-35.1-14.5C5.8,76,0.6,63.5,0.6,50.3c0-13.3,5.2-25.7,14.5-35.1
							C24.6,5.8,37,0.6,50.3,0.6c13.3,0,25.7,5.2,35.1,14.5c9.4,9.4,14.5,21.8,14.5,35.1c0,13.3-5.2,25.7-14.5,35.1
							C76,94.7,63.5,99.9,50.3,99.9z M50.3,1.9c-12.9,0-25.1,5-34.2,14.2C7,25.2,1.9,37.4,1.9,50.3c0,12.9,5,25.1,14.2,34.2
							c9.1,9.1,21.3,14.2,34.2,14.2s25.1-5,34.2-14.2s14.2-21.3,14.2-34.2c0-12.9-5-25.1-14.2-34.2C75.3,7,63.2,1.9,50.3,1.9z"/>
						<path fill="#2A2A36" d="M50.3,100.6c-13.4,0-26.1-5.2-35.6-14.7C5.2,76.3,0,63.7,0,50.3c0-13.4,5.2-26.1,14.7-35.6
							C24.2,5.2,36.9,0,50.3,0c13.4,0,26.1,5.2,35.6,14.7c9.5,9.5,14.7,22.1,14.7,35.6c0,13.4-5.2,26.1-14.7,35.6
							C76.3,95.3,63.7,100.6,50.3,100.6z M50.3,2.6c-12.7,0-24.7,5-33.7,14c-9,9-14,21-14,33.7c0,12.7,5,24.7,14,33.7
							c9,9,21,14,33.7,14C63,98,75,93,84,84c9-9,14-21,14-33.7c0-12.7-5-24.7-14-33.7C75,7.5,63,2.6,50.3,2.6z"/>
					</g>
				</g>
			</g>
		</g>
	</g>
</g>
<g>
	<path fill="#C0924B" d="M50.3,69.8c-17.8,0-32.2-14.4-32.2-32.2c0-0.7,0.5-1.2,1.2-1.2h62c0.7,0,1.2,0.5,1.2,1.2
		C82.5,55.4,68,69.8,50.3,69.8L50.3,69.8z M20.5,38.8c0.6,15.9,13.7,28.6,29.7,28.6c16,0,29.1-12.7,29.8-28.6H20.5z M20.5,38.8"/>
	<path fill="#C0924B" d="M50.3,77.6c-22,0-40-17.9-40-40c0-0.7,0.5-1.2,1.2-1.2H89c0.7,0,1.2,0.5,1.2,1.2
		C90.2,59.6,72.3,77.6,50.3,77.6L50.3,77.6z M12.8,38.8C13.4,59,30,75.2,50.3,75.2c20.3,0,36.9-16.2,37.5-36.3H12.8z M12.8,38.8"/>
	<path fill="#C0924B" d="M50.3,63.3c-1.8,0-3.2-1.5-3.2-3.2c0-1,0.8-5.7,3.2-5.7c2.4,0,3.2,4.6,3.2,5.7
		C53.5,61.9,52.1,63.3,50.3,63.3L50.3,63.3z M50.3,57.2c-0.4,0.8-0.8,2.2-0.8,2.9c0,0.4,0.4,0.8,0.8,0.8c0.5,0,0.8-0.4,0.8-0.8
		C51.1,59.4,50.7,58,50.3,57.2L50.3,57.2z M50.3,57.2"/>
	<path fill="#C0924B" d="M62.7,59.6c-0.2,0-0.4,0-0.6-0.1c-0.8-0.2-1.6-0.7-2-1.4c-0.6-0.8-2.4-5.2-0.4-6.5c2-1.3,5.3,2.1,5.8,2.9
		c0.5,0.7,0.6,1.6,0.5,2.4c-0.2,0.9-0.7,1.6-1.4,2.1C64,59.4,63.4,59.6,62.7,59.6L62.7,59.6z M61.1,53.9c0.1,0.9,0.6,2.3,0.9,2.9
		c0.1,0.2,0.3,0.3,0.5,0.3c0.2,0,0.4,0,0.6-0.1c0.2-0.1,0.3-0.3,0.3-0.5c0-0.2,0-0.4-0.1-0.6C63,55.3,61.9,54.3,61.1,53.9L61.1,53.9
		z M61.1,53.9"/>
	<path fill="#C0924B" d="M71,49.6c-0.4,0-0.8-0.1-1.2-0.2c-0.7-0.3-1.8-1-2.6-1.8c-1.3-1.3-1.8-2.4-1.4-3.4c0.1-0.3,0.5-0.8,1.1-1.1
		c1.5-0.6,4.3-0.1,5.3,0.3c0.8,0.3,1.4,1,1.7,1.7c0.3,0.8,0.3,1.7,0,2.5C73.5,48.8,72.3,49.6,71,49.6L71,49.6z M68.4,45.2
		c0.5,0.7,1.7,1.6,2.4,1.9c0.4,0.2,0.9,0,1.1-0.4c0.1-0.2,0.1-0.4,0-0.6c-0.1-0.2-0.2-0.4-0.4-0.4C70.7,45.3,69.2,45.1,68.4,45.2
		L68.4,45.2z M68.4,45.2"/>
	<path fill="#C0924B" d="M37.8,59.6c-0.6,0-1.2-0.2-1.8-0.5c-0.7-0.5-1.2-1.2-1.4-2c-0.2-0.8,0-1.7,0.5-2.4c0.6-0.8,3.8-4.2,5.8-2.9
		c0.3,0.2,0.7,0.6,0.8,1.3c0.3,1.6-0.7,4.3-1.3,5.2c-0.5,0.7-1.2,1.2-2,1.4C38.3,59.6,38.1,59.6,37.8,59.6L37.8,59.6z M37.2,55.9
		C37,56.1,37,56.3,37,56.5c0,0.2,0.2,0.4,0.3,0.5c0.2,0.1,0.4,0.2,0.6,0.1c0.2,0,0.4-0.2,0.5-0.3c0.4-0.6,0.8-2,0.9-2.8
		C38.7,54.3,37.5,55.3,37.2,55.9L37.2,55.9z M37.2,55.9"/>
	<path fill="#C0924B" d="M29.6,49.6c-1.3,0-2.5-0.7-3-2c-0.3-0.8-0.3-1.7,0-2.5c0.3-0.8,0.9-1.4,1.7-1.7c0.7-0.3,2-0.5,3.1-0.6
		c1.8-0.1,3,0.4,3.4,1.4c0.9,2.2-3,4.8-4,5.2C30.4,49.5,30,49.6,29.6,49.6L29.6,49.6z M31.8,45.2c-0.9,0-2.1,0.2-2.6,0.4
		c-0.2,0.1-0.3,0.2-0.4,0.4c-0.1,0.2-0.1,0.4,0,0.6c0.2,0.4,0.7,0.6,1.1,0.4c0.6-0.3,1.8-1.2,2.3-1.9C32.1,45.2,32,45.2,31.8,45.2
		L31.8,45.2z M31.8,45.2"/>
</g>
</svg>
