<?xml version="1.0" encoding="utf-8"?>
<!-- Generator: Adobe Illustrator 18.0.0, SVG Export Plug-In . SVG Version: 6.00 Build 0)  -->
<!DOCTYPE svg PUBLIC "-//W3C//DTD SVG 1.1//EN" "http://www.w3.org/Graphics/SVG/1.1/DTD/svg11.dtd">
<svg version="1.1" id="Слой_1" xmlns="http://www.w3.org/2000/svg" xmlns:xlink="http://www.w3.org/1999/xlink" x="0px" y="0px"
	 viewBox="0 0 100.6 100.6" enable-background="new 0 0 100.6 100.6" xml:space="preserve">
<g>
	<g>
		<g>
			<g>
				<g>
					<g>
						<path fill="#C0924B" d="M50.3,54.6l-0.6-1.1c-0.5-1.1-1.8-2-3-3c-1.2-0.9-2.4-1.8-3.4-3c-2.5-2.9-3.1-6.8-1.8-10.7l0.5-1.6
							l0.7,1.5c0.6,1.4,1.8,2.3,3.4,3.4c0.5,0.4,1,0.7,1.5,1.1c1.2,0.9,2,2.1,2.6,3.5c0.6-1.5,1.5-2.7,2.6-3.5
							c0.5-0.4,1-0.8,1.5-1.1c1.6-1.1,2.8-2,3.4-3.4l0.7-1.5L59,37c1.3,3.9,0.7,7.8-1.8,10.7c-1,1.2-2.2,2.1-3.4,3
							c-1.3,1-2.5,1.9-3,3L50.3,54.6z M42.3,38.8c-0.6,3,0,5.8,1.9,8c0.9,1.1,2.1,1.9,3.2,2.8c1.1,0.8,2.1,1.6,2.8,2.5
							c0.7-0.9,1.8-1.7,2.8-2.5c1.1-0.8,2.3-1.7,3.2-2.8c1.9-2.2,2.6-5.1,1.9-8c-0.8,1-1.9,1.8-3.1,2.6c-0.5,0.3-1,0.7-1.5,1.1
							c-1.4,1.1-2.4,2.8-2.8,5L50.3,51l-0.6-3.5c-0.4-2.2-1.3-3.9-2.8-5c-0.5-0.4-1-0.8-1.5-1.1C44.2,40.5,43.1,39.8,42.3,38.8z"/>
						<path fill="#C0924B" d="M50.3,56l-1.1-2.2c-0.5-0.9-1.6-1.8-2.9-2.7c-1.2-0.9-2.4-1.9-3.5-3.1c-2.6-3.1-3.3-7.2-1.9-11.3
							l1.1-3.2l1.3,3.1c0.5,1.2,1.7,2.1,3.2,3.1l0.2,0.1c0.4,0.3,0.9,0.6,1.4,1c0.9,0.7,1.6,1.5,2.2,2.6c0.6-1,1.3-1.9,2.2-2.6
							c0.5-0.4,0.9-0.7,1.4-1l0.2-0.1c1.5-1.1,2.7-1.9,3.2-3.2l1.3-3.1l1.1,3.2c1.4,4.1,0.7,8.2-1.9,11.3c-1,1.2-2.3,2.2-3.4,3.1
							c-1.3,0.9-2.4,1.8-2.9,2.7L50.3,56z M57.8,40.2c-0.7,0.6-1.4,1.2-2.2,1.7c-0.5,0.4-1,0.7-1.5,1.1c-1.3,1-2.1,2.6-2.5,4.6
							l-0.5,2.8c0.5-0.5,1.1-0.9,1.7-1.3c1.1-0.8,2.2-1.7,3.1-2.7C57.3,44.6,58,42.5,57.8,40.2z M42.8,40.2c-0.2,2.3,0.5,4.4,2,6.2
							c0.9,1,2,1.9,3,2.7c0.6,0.5,1.2,0.9,1.7,1.3L49,47.6c-0.4-2.1-1.2-3.6-2.5-4.6c-0.5-0.4-0.9-0.7-1.4-1l0.2-0.6L45,41.9
							C44.2,41.3,43.4,40.8,42.8,40.2z M49.9,45.8c0.2,0.5,0.3,1,0.4,1.5c0.1-0.5,0.2-1,0.4-1.5l-0.4,0.9L49.9,45.8z"/>
					</g>
				</g>
			</g>
			<g>
				<g>
					<g>
						<path fill="#C0924B" d="M50.3,66.1L49.7,65c-0.5-1.1-1.8-2-3-3c-1.2-0.9-2.4-1.8-3.4-3c-2.5-2.9-3.1-6.8-1.8-10.7l0.5-1.6
							l0.7,1.5c0.6,1.4,1.9,2.3,3.4,3.4c0.5,0.4,1,0.7,1.5,1.1c1.2,0.9,2,2.1,2.6,3.5c0.6-1.5,1.5-2.7,2.6-3.5
							c0.5-0.4,1-0.8,1.5-1.1c1.6-1.1,2.8-2,3.4-3.4l0.7-1.5l0.5,1.6c1.3,3.9,0.7,7.8-1.8,10.7c-1,1.2-2.2,2.1-3.4,3
							c-1.3,1-2.5,1.9-3,3L50.3,66.1z M42.3,50.2c-0.6,3,0,5.8,1.9,8c0.9,1.1,2.1,1.9,3.2,2.8c1.1,0.8,2.1,1.6,2.8,2.5
							c0.7-0.9,1.8-1.7,2.8-2.5c1.1-0.8,2.3-1.7,3.2-2.8c1.9-2.2,2.6-5.1,1.9-8c-0.8,1-1.9,1.8-3.1,2.6c-0.5,0.3-1,0.7-1.5,1.1
							c-1.4,1.1-2.4,2.8-2.8,5l-0.6,3.5L49.7,59c-0.4-2.2-1.3-3.9-2.8-5c-0.5-0.4-1-0.8-1.5-1.1C44.2,52,43.1,51.2,42.3,50.2z"/>
						<path fill="#C0924B" d="M50.3,67.5l-1.1-2.2c-0.5-0.9-1.6-1.8-2.9-2.7c-1.2-0.9-2.4-1.8-3.5-3.1c-2.6-3.1-3.3-7.2-1.9-11.3
							l1.1-3.2l1.3,3.1c0.5,1.2,1.7,2.1,3.2,3.2c0.5,0.4,1,0.7,1.6,1.1c0.9,0.7,1.6,1.5,2.2,2.6c0.6-1,1.3-1.9,2.2-2.6
							c0.5-0.4,1-0.8,1.5-1.1c1.6-1.1,2.7-2,3.3-3.2l1.3-3.1l1.1,3.2c1.4,4.1,0.7,8.2-1.9,11.3c-1,1.2-2.3,2.2-3.5,3.1
							c-1.2,0.9-2.4,1.8-2.9,2.7L50.3,67.5z M57.8,51.7c-0.7,0.6-1.4,1.2-2.2,1.7c-0.5,0.3-1,0.7-1.5,1.1c-1.3,1-2.1,2.6-2.5,4.6
							l-0.5,2.8c0.5-0.5,1.1-0.9,1.7-1.3c1.1-0.8,2.2-1.7,3.1-2.7C57.3,56.1,58,54,57.8,51.7z M42.8,51.7c-0.2,2.3,0.5,4.4,2,6.2
							c0.9,1,2,1.9,3.1,2.7c0.6,0.4,1.2,0.9,1.7,1.3L49,59.1c-0.4-2.1-1.2-3.6-2.5-4.6c-0.5-0.4-1-0.7-1.5-1.1
							C44.2,52.8,43.5,52.3,42.8,51.7z M49.9,57.3c0.2,0.5,0.3,1,0.4,1.5c0.1-0.5,0.2-1,0.4-1.5l-0.4,0.9L49.9,57.3z"/>
					</g>
				</g>
			</g>
			<g>
				<g>
					<g>
						<path fill="#C0924B" d="M50.3,77.6l-0.6-1.1c-0.5-1.1-1.8-2-3-3c-1.2-0.9-2.4-1.8-3.4-3c-2.5-2.9-3.1-6.8-1.8-10.7l0.5-1.6
							l0.7,1.5c0.6,1.4,1.8,2.3,3.4,3.4c0.5,0.4,1,0.7,1.5,1.1c1.2,0.9,2,2.1,2.6,3.5c0.6-1.5,1.5-2.7,2.6-3.5
							c0.5-0.4,1-0.8,1.5-1.1c1.6-1.1,2.8-2,3.4-3.4l0.7-1.5l0.5,1.6c1.3,3.9,0.7,7.8-1.8,10.7c-1,1.2-2.2,2.1-3.4,3
							c-1.3,1-2.5,1.9-3,3L50.3,77.6z M42.3,61.7c-0.6,3,0.1,5.8,1.9,8c0.9,1.1,2.1,1.9,3.2,2.8c1.1,0.8,2.1,1.6,2.8,2.5
							c0.7-0.9,1.8-1.7,2.8-2.5c1.1-0.8,2.3-1.7,3.2-2.8c1.9-2.2,2.6-5.1,1.9-8c-0.8,1-1.9,1.8-3.1,2.6c-0.5,0.3-1,0.7-1.5,1.1
							c-1.4,1.1-2.4,2.8-2.8,5L50.3,74l-0.6-3.5c-0.4-2.2-1.3-3.9-2.8-5c-0.5-0.4-1-0.8-1.5-1.1C44.2,63.5,43.1,62.7,42.3,61.7z"/>
						<path fill="#C0924B" d="M50.3,79l-1.1-2.2c-0.5-0.9-1.6-1.8-2.9-2.7c-1.2-0.9-2.4-1.8-3.5-3.1c-2.6-3.1-3.3-7.2-1.9-11.3
							l1.1-3.2l1.3,3.1c0.5,1.2,1.7,2.1,3.2,3.2c0.5,0.4,1,0.7,1.6,1.1c0.9,0.7,1.6,1.5,2.2,2.6c0.6-1,1.3-1.9,2.2-2.6
							c0.5-0.4,1.1-0.8,1.6-1.1c1.5-1.1,2.7-1.9,3.2-3.2l1.3-3.1l1.1,3.2c1.4,4.1,0.7,8.2-1.9,11.3c-1,1.2-2.3,2.2-3.5,3.1
							c-1.2,0.9-2.4,1.8-2.9,2.7L50.3,79z M42.8,63.1c-0.2,2.3,0.5,4.5,2,6.2c0.8,1,2,1.8,3,2.7c0.6,0.5,1.2,0.9,1.7,1.4L49,70.6
							c-0.4-2.1-1.2-3.6-2.5-4.6c-0.5-0.4-1-0.7-1.5-1.1C44.2,64.3,43.5,63.8,42.8,63.1z M57.8,63.1c-0.7,0.6-1.4,1.2-2.2,1.7
							c-0.5,0.3-1,0.7-1.5,1.1c-1.3,1-2.1,2.6-2.5,4.6l-0.5,2.8c0.5-0.5,1.1-0.9,1.7-1.3c1.1-0.8,2.2-1.7,3.1-2.7
							C57.3,67.6,57.9,65.4,57.8,63.1z M49.9,68.8c0.2,0.5,0.3,1,0.4,1.5c0.1-0.5,0.2-1,0.4-1.5l-0.4,0.9L49.9,68.8z"/>
					</g>
				</g>
			</g>
			<g>
				<g>
					<g>
						<path fill="#C0924B" d="M50.3,43.1l-0.5-0.9c-0.5-0.8-1.1-1.4-1.8-2c-0.7-0.7-1.4-1.4-2.1-2.4c-2.5-3.8-1-8.4,4-12.3l0.4-0.3
							l0.4,0.3c5,3.9,6.6,8.4,4,12.3c-0.7,1-1.4,1.7-2.1,2.4c-0.7,0.7-1.3,1.3-1.8,2.1L50.3,43.1z M50.3,26.8
							c-4.2,3.4-5.4,7.1-3.3,10.3c0.6,0.9,1.3,1.6,1.9,2.2c0.5,0.5,1,1,1.4,1.5c0.4-0.6,0.9-1,1.4-1.5c0.7-0.7,1.3-1.3,1.9-2.2
							C55.7,33.9,54.5,30.2,50.3,26.8z"/>
						<path fill="#C0924B" d="M50.3,44.3l-1.1-1.7c-0.5-0.7-1-1.3-1.7-1.9c-0.7-0.7-1.5-1.5-2.2-2.5c-2.7-4.1-1.2-9.1,4.2-13.1
							l0.8-0.6l0.8,0.6c5.4,4.1,6.9,9,4.2,13.1c-0.7,1.1-1.5,1.8-2.2,2.5c-0.6,0.6-1.2,1.2-1.7,1.9L50.3,44.3z M50.3,27.6
							c-3.6,3.1-4.6,6.3-2.8,9.1c0.5,0.8,1.2,1.5,1.8,2.1c0.3,0.3,0.6,0.6,1,1c0.3-0.3,0.6-0.7,1-1c0.6-0.6,1.3-1.3,1.8-2.1
							C54.9,33.9,53.9,30.7,50.3,27.6z"/>
					</g>
				</g>
			</g>
			<g>
				<g>
					<g>
						<path fill="#C0924B" d="M42.1,37.8c-0.4,0-0.6-0.3-0.6-0.6v-7.9c0-0.4,0.3-0.6,0.6-0.6c0.4,0,0.6,0.3,0.6,0.6v7.9
							C42.8,37.5,42.5,37.8,42.1,37.8z"/>
						<path fill="#C0924B" d="M42.1,38.5c-0.7,0-1.3-0.6-1.3-1.3v-7.9c0-0.7,0.6-1.3,1.3-1.3c0.7,0,1.3,0.6,1.3,1.3v7.9
							C43.4,37.9,42.8,38.5,42.1,38.5z"/>
					</g>
				</g>
			</g>
			<g>
				<g>
					<g>
						<path fill="#C0924B" d="M58.4,37.8c-0.4,0-0.6-0.3-0.6-0.6v-7.9c0-0.4,0.3-0.6,0.6-0.6c0.4,0,0.6,0.3,0.6,0.6v7.9
							C59.1,37.5,58.8,37.8,58.4,37.8z"/>
						<path fill="#C0924B" d="M58.4,38.5c-0.7,0-1.3-0.6-1.3-1.3v-7.9c0-0.7,0.6-1.3,1.3-1.3c0.7,0,1.3,0.6,1.3,1.3v7.9
							C59.7,37.9,59.2,38.5,58.4,38.5z"/>
					</g>
				</g>
			</g>
			<g>
				<g>
					<g>
						<path fill="#C0924B" d="M50.3,26.6c-0.4,0-0.6-0.3-0.6-0.6v-8.6c0-0.4,0.3-0.6,0.6-0.6c0.4,0,0.6,0.3,0.6,0.6V26
							C50.9,26.3,50.6,26.6,50.3,26.6z"/>
						<path fill="#C0924B" d="M50.3,27.3c-0.7,0-1.3-0.6-1.3-1.3v-8.6c0-0.7,0.6-1.3,1.3-1.3c0.7,0,1.3,0.6,1.3,1.3V26
							C51.6,26.7,51,27.3,50.3,27.3z"/>
					</g>
				</g>
			</g>
			<g>
				<g>
					<g>
						<path fill="#C0924B" d="M50.3,38.3c-0.4,0-0.6-0.3-0.6-0.6V29c0-0.4,0.3-0.6,0.6-0.6c0.4,0,0.6,0.3,0.6,0.6v8.7
							C50.9,38,50.6,38.3,50.3,38.3z"/>
						<path fill="#C0924B" d="M50.3,38.9c-0.7,0-1.3-0.6-1.3-1.3V29c0-0.7,0.6-1.3,1.3-1.3c0.7,0,1.3,0.6,1.3,1.3v8.7
							C51.6,38.4,51,38.9,50.3,38.9z"/>
					</g>
				</g>
			</g>
			<g>
				<g>
					<g>
						<path fill="#C0924B" d="M50.3,83.8c-0.4,0-0.6-0.3-0.6-0.6v-6.9c0-0.4,0.3-0.6,0.6-0.6c0.4,0,0.6,0.3,0.6,0.6v6.9
							C50.9,83.5,50.6,83.8,50.3,83.8z"/>
						<path fill="#C0924B" d="M50.3,84.4c-0.7,0-1.3-0.6-1.3-1.3v-6.9c0-0.7,0.6-1.3,1.3-1.3c0.7,0,1.3,0.6,1.3,1.3v6.9
							C51.6,83.8,51,84.4,50.3,84.4z"/>
					</g>
				</g>
			</g>
		</g>
		<g>
			<g>
				<g>
					<g>
						<path fill="#C0924B" d="M71.4,59.8l-0.6-1.1c-0.4-0.8-1.4-1.6-2.5-2.4c-1-0.7-2-1.5-2.8-2.5c-2.1-2.4-2.6-5.7-1.5-8.9l0.5-1.6
							l0.7,1.5c0.5,1.1,1.5,1.9,2.8,2.8c0.4,0.3,0.8,0.6,1.3,0.9c0.9,0.7,1.6,1.6,2.1,2.7c0.5-1.1,1.2-2,2.1-2.7
							c0.4-0.3,0.9-0.6,1.3-0.9c1.3-0.9,2.3-1.7,2.8-2.8l0.7-1.5l0.5,1.6c1.1,3.2,0.6,6.5-1.5,8.9c-0.8,1-1.8,1.7-2.8,2.5
							c-1.1,0.8-2.1,1.6-2.5,2.4L71.4,59.8z M64.9,46.7c-0.4,2.3,0.1,4.6,1.6,6.3c0.7,0.9,1.7,1.6,2.6,2.3c0.9,0.7,1.7,1.3,2.3,2
							c0.6-0.7,1.4-1.3,2.3-2c0.9-0.7,1.9-1.4,2.6-2.3c1.5-1.8,2.1-4,1.6-6.3c-0.6,0.7-1.5,1.4-2.4,2c-0.4,0.3-0.8,0.6-1.2,0.9
							c-1.2,0.9-1.9,2.3-2.2,4.1l-0.6,3.5l-0.6-3.5c-0.3-1.8-1.1-3.2-2.2-4.1c-0.4-0.3-0.8-0.6-1.2-0.9C66.4,48,65.6,47.4,64.9,46.7
							z"/>
						<path fill="#C0924B" d="M71.4,61.2L70.3,59c-0.4-0.7-1.3-1.4-2.3-2.2c-1-0.8-2.1-1.6-2.9-2.6c-2.2-2.6-2.8-6.1-1.6-9.6
							l1.1-3.2l1.3,3.1c0.4,1,1.3,1.6,2.6,2.5c0.4,0.3,0.8,0.6,1.3,1c0.7,0.5,1.2,1.1,1.7,1.9c0.5-0.7,1-1.3,1.7-1.9
							c0.4-0.3,0.8-0.6,1.2-0.9l0.1-0.1c1.3-0.9,2.2-1.6,2.6-2.5l1.3-3.1l1.1,3.2c1.2,3.5,0.6,6.9-1.6,9.6c-0.9,1-1.9,1.8-2.9,2.6
							c-1,0.8-2,1.5-2.3,2.2L71.4,61.2z M65.4,48.1c0,1.7,0.5,3.2,1.6,4.5c0.7,0.8,1.6,1.5,2.5,2.2c0.3,0.2,0.6,0.5,0.9,0.7
							l-0.3-1.7c-0.3-1.6-1-2.9-2-3.7c-0.4-0.3-0.8-0.6-1.2-0.9C66.4,48.8,65.9,48.5,65.4,48.1z M77.4,48.1c-0.5,0.4-1,0.8-1.5,1.1
							c-0.5,0.3-0.8,0.6-1.2,0.9c-1,0.8-1.7,2-2,3.7l-0.3,1.7c0.3-0.2,0.6-0.5,0.9-0.7c0.9-0.7,1.8-1.4,2.5-2.2
							C76.9,51.3,77.5,49.8,77.4,48.1z M71.1,52.1c0.2,0.4,0.3,0.9,0.4,1.4c0.1-0.5,0.2-1,0.4-1.4l-0.4,0.9L71.1,52.1z"/>
					</g>
				</g>
			</g>
			<g>
				<g>
					<g>
						<path fill="#C0924B" d="M71.4,69.3l-0.6-1.1c-0.4-0.8-1.4-1.6-2.5-2.4c-1-0.7-2-1.5-2.8-2.5c-2.1-2.4-2.6-5.7-1.5-8.9l0.5-1.6
							l0.7,1.5c0.5,1.1,1.5,1.9,2.8,2.8c0.4,0.3,0.8,0.6,1.3,0.9c0.9,0.7,1.6,1.6,2.1,2.7c0.5-1.1,1.2-2,2.1-2.7
							c0.4-0.3,0.9-0.6,1.3-0.9c1.3-0.9,2.3-1.7,2.8-2.8l0.7-1.5l0.5,1.6c1.1,3.2,0.6,6.5-1.5,8.9c-0.8,1-1.8,1.7-2.8,2.5
							c-1.1,0.8-2.1,1.6-2.5,2.4L71.4,69.3z M64.9,56.2c-0.4,2.3,0.1,4.6,1.6,6.3c0.7,0.9,1.7,1.6,2.6,2.3c0.9,0.7,1.7,1.3,2.3,2
							c0.6-0.7,1.4-1.3,2.3-2c0.9-0.7,1.9-1.4,2.6-2.3c1.5-1.8,2.1-4,1.6-6.3c-0.6,0.7-1.5,1.3-2.4,2c-0.4,0.3-0.8,0.6-1.2,0.9
							c-1.2,0.9-1.9,2.3-2.2,4.1l-0.6,3.5l-0.6-3.5c-0.3-1.8-1.1-3.2-2.2-4.1c-0.4-0.3-0.8-0.6-1.2-0.9
							C66.4,57.5,65.6,56.9,64.9,56.2z"/>
						<path fill="#C0924B" d="M71.4,70.7l-1.1-2.2c-0.4-0.7-1.3-1.4-2.3-2.2c-1-0.8-2-1.5-2.9-2.6c-2.2-2.6-2.8-6.1-1.6-9.6l1.1-3.2
							l1.3,3.1c0.4,1,1.3,1.6,2.6,2.5c0.4,0.3,0.8,0.6,1.3,0.9c0.7,0.5,1.2,1.1,1.7,1.9c0.5-0.7,1-1.4,1.7-1.9
							c0.4-0.3,0.9-0.6,1.3-0.9c1.2-0.9,2.2-1.6,2.6-2.5l1.3-3.1l1.1,3.2c1.2,3.5,0.6,6.9-1.6,9.6c-0.9,1-1.9,1.8-2.9,2.6
							c-1,0.8-1.9,1.5-2.3,2.2L71.4,70.7z M65.4,57.6c0,1.7,0.5,3.2,1.6,4.5c0.7,0.8,1.6,1.5,2.5,2.2c0.3,0.2,0.7,0.5,1,0.7
							l-0.3-1.7c-0.3-1.7-1-2.9-2-3.7c-0.4-0.3-0.8-0.6-1.2-0.9C66.4,58.3,65.9,58,65.4,57.6z M77.4,57.6c-0.5,0.4-1,0.8-1.5,1.1
							c-0.4,0.3-0.8,0.6-1.2,0.9c-1,0.8-1.7,2-2,3.7L72.4,65c0.3-0.2,0.6-0.5,0.9-0.7c0.9-0.7,1.8-1.4,2.5-2.2
							C76.9,60.8,77.5,59.2,77.4,57.6z M71.1,61.6c0.2,0.4,0.3,0.9,0.4,1.4c0.1-0.5,0.2-1,0.4-1.4l-0.4,0.9L71.1,61.6z"/>
					</g>
				</g>
			</g>
			<g>
				<g>
					<g>
						<path fill="#C0924B" d="M71.4,78.8l-0.6-1.1c-0.4-0.8-1.4-1.6-2.5-2.4c-1-0.7-2-1.5-2.8-2.5c-2.1-2.4-2.6-5.7-1.5-8.9l0.5-1.6
							l0.7,1.5c0.5,1.1,1.5,1.9,2.8,2.8c0.4,0.3,0.8,0.6,1.3,0.9c0.9,0.7,1.6,1.6,2.1,2.7c0.5-1.1,1.2-2,2.1-2.7
							c0.4-0.3,0.9-0.6,1.3-0.9c1.3-0.9,2.3-1.7,2.8-2.8l0.7-1.5l0.5,1.6c1.1,3.2,0.6,6.5-1.5,8.9c-0.8,1-1.8,1.7-2.8,2.5
							c-1.1,0.8-2.1,1.6-2.5,2.4L71.4,78.8z M64.9,65.7c-0.4,2.3,0.1,4.6,1.6,6.3c0.7,0.9,1.7,1.6,2.6,2.3c0.9,0.7,1.7,1.3,2.3,2
							c0.6-0.7,1.4-1.3,2.3-2c0.9-0.7,1.9-1.4,2.6-2.3c1.5-1.8,2.1-4,1.6-6.3c-0.6,0.7-1.5,1.3-2.4,2c-0.4,0.3-0.8,0.6-1.2,0.9
							c-1.2,0.9-1.9,2.3-2.2,4.1l-0.6,3.5l-0.6-3.5c-0.3-1.8-1.1-3.2-2.2-4.1c-0.4-0.3-0.8-0.6-1.2-0.9C66.4,67,65.6,66.4,64.9,65.7
							z"/>
						<path fill="#C0924B" d="M71.4,80.2L70.3,78c-0.4-0.7-1.3-1.4-2.3-2.2c-1-0.8-2-1.5-2.9-2.6c-2.2-2.6-2.8-6.1-1.6-9.6l1.1-3.2
							l1.3,3.1c0.4,1,1.4,1.7,2.6,2.5c0.5,0.3,0.9,0.6,1.3,0.9c0.7,0.5,1.2,1.1,1.7,1.9c0.5-0.7,1-1.3,1.7-1.9
							c0.4-0.3,0.8-0.6,1.1-0.8l0.2-0.1c1.2-0.9,2.2-1.6,2.6-2.5l1.3-3.1l1.1,3.2c1.2,3.5,0.6,6.9-1.6,9.6c-0.9,1-1.9,1.8-2.9,2.6
							c-1,0.8-1.9,1.5-2.3,2.2L71.4,80.2z M65.4,67.1c0,1.7,0.5,3.2,1.6,4.5c0.7,0.8,1.6,1.5,2.5,2.2c0.3,0.2,0.6,0.5,0.9,0.7
							l-0.3-1.7c-0.3-1.6-1-2.9-2-3.7c-0.4-0.3-0.8-0.6-1.2-0.9C66.4,67.8,65.9,67.4,65.4,67.1z M77.4,67.1c-0.5,0.4-1,0.8-1.5,1.1
							c-0.4,0.3-0.8,0.6-1.2,0.9c-1,0.8-1.7,2-2,3.7l-0.3,1.7c0.3-0.2,0.6-0.5,0.9-0.7c0.9-0.7,1.8-1.4,2.5-2.2
							C76.9,70.3,77.5,68.7,77.4,67.1z M71.1,71.1c0.2,0.4,0.3,0.9,0.4,1.4c0.1-0.5,0.2-1,0.4-1.4l-0.4,0.9L71.1,71.1z"/>
					</g>
				</g>
			</g>
			<g>
				<g>
					<g>
						<path fill="#C0924B" d="M71.4,50.2l-0.5-0.9c-0.4-0.6-0.9-1.1-1.5-1.7c-0.6-0.6-1.2-1.2-1.7-2c-2.1-3.2-0.9-7.1,3.3-10.3
							l0.4-0.3l0.4,0.3c4.2,3.2,5.5,7.1,3.3,10.3c-0.5,0.8-1.2,1.4-1.7,2c-0.5,0.5-1.1,1-1.5,1.7L71.4,50.2z M71.4,36.7
							c-3.4,2.7-4.4,5.7-2.7,8.3c0.5,0.7,1,1.3,1.6,1.8c0.4,0.4,0.7,0.7,1.1,1.2c0.3-0.4,0.7-0.8,1.1-1.2c0.5-0.5,1.1-1.1,1.6-1.8
							C75.8,42.4,74.8,39.4,71.4,36.7z"/>
						<path fill="#C0924B" d="M71.4,51.4l-1.1-1.7c-0.4-0.6-0.8-1.1-1.4-1.6c-0.6-0.6-1.2-1.2-1.8-2.1c-2.3-3.5-1-7.7,3.5-11.2
							l0.8-0.6l0.8,0.6c4.5,3.5,5.8,7.6,3.5,11.2c-0.6,0.9-1.2,1.5-1.8,2.1c-0.5,0.5-1,1-1.4,1.6L71.4,51.4z M71.4,37.5
							c-1.8,1.6-4,4.3-2.1,7.1c0.4,0.7,1,1.2,1.5,1.7c0.2,0.2,0.5,0.5,0.7,0.7c0.2-0.2,0.4-0.4,0.6-0.6c0.5-0.5,1-1,1.5-1.7
							C75.4,41.8,73.2,39.1,71.4,37.5z"/>
					</g>
				</g>
			</g>
			<g>
				<g>
					<g>
						<path fill="#C0924B" d="M64.7,45.7c-0.4,0-0.6-0.3-0.6-0.6v-6.5c0-0.4,0.3-0.6,0.6-0.6c0.4,0,0.6,0.3,0.6,0.6v6.5
							C65.3,45.5,65,45.7,64.7,45.7z"/>
						<path fill="#C0924B" d="M64.7,46.4c-0.7,0-1.3-0.6-1.3-1.3v-6.5c0-0.7,0.6-1.3,1.3-1.3c0.7,0,1.3,0.6,1.3,1.3v6.5
							C66,45.8,65.4,46.4,64.7,46.4z"/>
					</g>
				</g>
			</g>
			<g>
				<g>
					<g>
						<path fill="#C0924B" d="M78.2,45.7c-0.4,0-0.6-0.3-0.6-0.6v-6.5c0-0.4,0.3-0.6,0.6-0.6c0.4,0,0.6,0.3,0.6,0.6v6.5
							C78.8,45.5,78.5,45.7,78.2,45.7z"/>
						<path fill="#C0924B" d="M78.2,46.4c-0.7,0-1.3-0.6-1.3-1.3v-6.5c0-0.7,0.6-1.3,1.3-1.3c0.7,0,1.3,0.6,1.3,1.3v6.5
							C79.5,45.8,78.9,46.4,78.2,46.4z"/>
					</g>
				</g>
			</g>
			<g>
				<g>
					<g>
						<path fill="#C0924B" d="M71.4,36.5c-0.4,0-0.6-0.3-0.6-0.6v-7.1c0-0.4,0.3-0.6,0.6-0.6c0.4,0,0.6,0.3,0.6,0.6v7.1
							C72.1,36.2,71.8,36.5,71.4,36.5z"/>
						<path fill="#C0924B" d="M71.4,37.1c-0.7,0-1.3-0.6-1.3-1.3v-7.1c0-0.7,0.6-1.3,1.3-1.3c0.7,0,1.3,0.6,1.3,1.3v7.1
							C72.7,36.6,72.1,37.1,71.4,37.1z"/>
					</g>
				</g>
			</g>
			<g>
				<g>
					<g>
						<path fill="#C0924B" d="M71.4,46.1c-0.4,0-0.6-0.3-0.6-0.6v-7.2c0-0.4,0.3-0.6,0.6-0.6c0.4,0,0.6,0.3,0.6,0.6v7.2
							C72.1,45.9,71.8,46.1,71.4,46.1z"/>
						<path fill="#C0924B" d="M71.4,46.8c-0.7,0-1.3-0.6-1.3-1.3v-7.2c0-0.7,0.6-1.3,1.3-1.3c0.7,0,1.3,0.6,1.3,1.3v7.2
							C72.7,46.2,72.1,46.8,71.4,46.8z"/>
					</g>
				</g>
			</g>
			<g>
				<g>
					<g>
						<path fill="#C0924B" d="M71.4,83.8c-0.4,0-0.6-0.3-0.6-0.6v-5.7c0-0.4,0.3-0.6,0.6-0.6c0.4,0,0.6,0.3,0.6,0.6v5.7
							C72.1,83.5,71.8,83.8,71.4,83.8z"/>
						<path fill="#C0924B" d="M71.4,84.4c-0.7,0-1.3-0.6-1.3-1.3v-5.7c0-0.7,0.6-1.3,1.3-1.3c0.7,0,1.3,0.6,1.3,1.3v5.7
							C72.7,83.8,72.1,84.4,71.4,84.4z"/>
					</g>
				</g>
			</g>
		</g>
		<g>
			<g>
				<g>
					<g>
						<path fill="#C0924B" d="M29.1,59.8l-0.6-1.1c-0.4-0.8-1.4-1.6-2.5-2.4c-1-0.7-2-1.5-2.8-2.5c-2.1-2.4-2.6-5.7-1.5-8.9l0.5-1.6
							l0.7,1.5c0.5,1.1,1.5,1.9,2.8,2.8c0.4,0.3,0.8,0.6,1.3,0.9c0.9,0.7,1.6,1.6,2.1,2.7c0.5-1.1,1.2-2,2.1-2.7
							c0.4-0.3,0.9-0.6,1.3-0.9c1.3-0.9,2.3-1.7,2.8-2.8l0.7-1.5l0.5,1.6c1.1,3.2,0.6,6.5-1.5,8.9c-0.8,1-1.8,1.7-2.8,2.5
							c-1.1,0.8-2.1,1.6-2.5,2.4L29.1,59.8z M22.6,46.7c-0.4,2.3,0.1,4.6,1.6,6.3c0.7,0.9,1.7,1.6,2.6,2.3c0.9,0.7,1.7,1.3,2.3,2
							c0.6-0.7,1.4-1.3,2.3-2c0.9-0.7,1.9-1.4,2.6-2.3c1.5-1.8,2.1-4,1.6-6.3c-0.6,0.7-1.5,1.3-2.4,2c-0.4,0.3-0.8,0.6-1.2,0.9
							c-1.2,0.9-1.9,2.3-2.2,4.1l-0.6,3.5l-0.6-3.5c-0.3-1.8-1.1-3.2-2.2-4.1c-0.4-0.3-0.8-0.6-1.2-0.9C24.1,48,23.3,47.4,22.6,46.7
							z"/>
						<path fill="#C0924B" d="M29.1,61.2L28,59c-0.4-0.7-1.3-1.4-2.3-2.2c-1-0.8-2-1.6-2.9-2.6c-2.2-2.6-2.8-6.1-1.6-9.6l1.1-3.2
							l1.3,3.1c0.4,1,1.3,1.6,2.6,2.5c0.4,0.3,0.8,0.6,1.3,1c0.7,0.5,1.2,1.1,1.7,1.9c0.5-0.7,1-1.3,1.7-1.9
							c0.5-0.3,0.9-0.7,1.3-0.9c1.3-0.9,2.2-1.6,2.6-2.5l1.3-3.1l1.1,3.2c1.2,3.5,0.6,6.9-1.6,9.6c-0.9,1-1.9,1.8-2.9,2.6
							c-1,0.8-2,1.5-2.3,2.2L29.1,61.2z M35.1,48.1c-0.5,0.4-1,0.8-1.5,1.1c-0.4,0.3-0.8,0.6-1.2,0.9c-1,0.8-1.7,2-2,3.7l-0.3,1.7
							c0.3-0.2,0.6-0.5,0.9-0.7c0.9-0.7,1.8-1.4,2.5-2.2C34.6,51.3,35.2,49.8,35.1,48.1z M23.1,48.1c0,1.7,0.5,3.2,1.6,4.5
							c0.7,0.8,1.6,1.5,2.5,2.2c0.3,0.2,0.6,0.5,0.9,0.7l-0.3-1.7c-0.3-1.6-1-2.9-2-3.7c-0.4-0.3-0.8-0.6-1.2-0.9
							C24.1,48.8,23.6,48.5,23.1,48.1z M28.7,52.1c0.2,0.4,0.3,0.9,0.4,1.4c0.1-0.5,0.2-1,0.4-1.4l-0.4,0.9L28.7,52.1z"/>
					</g>
				</g>
			</g>
			<g>
				<g>
					<g>
						<path fill="#C0924B" d="M29.1,69.3l-0.6-1.1c-0.4-0.8-1.4-1.6-2.5-2.4c-1-0.7-2-1.5-2.8-2.5c-2.1-2.4-2.6-5.7-1.5-8.9l0.5-1.6
							l0.7,1.5c0.5,1.1,1.5,1.9,2.8,2.8c0.4,0.3,0.8,0.6,1.3,0.9c0.9,0.7,1.6,1.6,2.1,2.7c0.5-1.1,1.2-2,2.1-2.7
							c0.4-0.3,0.9-0.6,1.3-0.9c1.3-0.9,2.3-1.7,2.8-2.8l0.7-1.5l0.5,1.6c1.1,3.2,0.6,6.5-1.5,8.9c-0.8,1-1.8,1.7-2.8,2.5
							c-1.1,0.8-2.1,1.6-2.5,2.4L29.1,69.3z M22.6,56.2c-0.4,2.3,0.1,4.6,1.6,6.3c0.7,0.9,1.7,1.6,2.6,2.3c0.9,0.7,1.7,1.3,2.3,2
							c0.6-0.7,1.4-1.3,2.3-2c0.9-0.7,1.9-1.4,2.6-2.3c1.5-1.8,2.1-4,1.6-6.3c-0.6,0.7-1.5,1.3-2.4,2c-0.4,0.3-0.8,0.6-1.2,0.9
							c-1.2,0.9-1.9,2.3-2.2,4.1l-0.6,3.5l-0.6-3.5c-0.3-1.8-1.1-3.2-2.2-4.1c-0.4-0.3-0.8-0.6-1.2-0.9
							C24.1,57.5,23.3,56.9,22.6,56.2z"/>
						<path fill="#C0924B" d="M29.1,70.7L28,68.5c-0.4-0.7-1.3-1.4-2.3-2.2c-1-0.8-2-1.5-2.9-2.6c-2.2-2.6-2.8-6.1-1.6-9.6l1.1-3.2
							l1.3,3.1c0.4,1,1.4,1.7,2.6,2.5l0.1,0.1c0.4,0.3,0.7,0.5,1.1,0.8c0.7,0.5,1.2,1.1,1.7,1.9c0.5-0.7,1-1.4,1.7-1.9
							c0.5-0.3,0.9-0.7,1.3-0.9c1.3-0.9,2.2-1.6,2.6-2.5L36,51l1.1,3.2c1.2,3.5,0.6,6.9-1.6,9.6c-0.9,1-1.9,1.8-2.9,2.6
							c-1,0.8-1.9,1.5-2.3,2.2L29.1,70.7z M35.1,57.6c-0.5,0.4-1,0.8-1.5,1.1c-0.4,0.3-0.8,0.6-1.2,0.9c-1,0.8-1.7,2-2,3.7L30.1,65
							c0.3-0.2,0.6-0.5,0.9-0.7c0.9-0.7,1.8-1.4,2.5-2.2C34.6,60.8,35.2,59.2,35.1,57.6z M23.1,57.6c0,1.7,0.5,3.2,1.6,4.5
							c0.7,0.8,1.6,1.5,2.5,2.2c0.3,0.2,0.6,0.5,0.9,0.7l-0.3-1.7c-0.3-1.7-1-2.9-2-3.7c-0.4-0.3-0.8-0.6-1.2-0.9
							C24.1,58.3,23.6,58,23.1,57.6z M28.7,61.6c0.2,0.4,0.3,0.9,0.4,1.4c0.1-0.5,0.2-1,0.4-1.4l-0.4,0.9L28.7,61.6z"/>
					</g>
				</g>
			</g>
			<g>
				<g>
					<g>
						<path fill="#C0924B" d="M29.1,78.8l-0.6-1.1c-0.4-0.8-1.4-1.6-2.5-2.4c-1-0.7-2-1.5-2.8-2.5c-2.1-2.4-2.6-5.7-1.5-8.9l0.5-1.6
							l0.7,1.5c0.5,1.1,1.5,1.9,2.8,2.8c0.4,0.3,0.8,0.6,1.3,0.9c0.9,0.7,1.6,1.6,2.1,2.7c0.5-1.1,1.2-2,2.1-2.7
							c0.4-0.3,0.9-0.6,1.3-0.9c1.3-0.9,2.3-1.7,2.8-2.8l0.7-1.5l0.5,1.6c1.1,3.2,0.6,6.5-1.5,8.9c-0.8,1-1.8,1.7-2.8,2.5
							c-1.1,0.8-2.1,1.6-2.5,2.4L29.1,78.8z M22.6,65.7c-0.4,2.3,0.1,4.6,1.6,6.3c0.7,0.9,1.7,1.6,2.6,2.3c0.9,0.7,1.7,1.3,2.3,2
							c0.6-0.7,1.4-1.3,2.3-2c0.9-0.7,1.9-1.4,2.6-2.3c1.5-1.8,2.1-4,1.6-6.3c-0.6,0.7-1.5,1.3-2.4,2c-0.4,0.3-0.8,0.6-1.2,0.9
							c-1.2,0.9-1.9,2.3-2.2,4.1l-0.6,3.5l-0.6-3.5c-0.3-1.8-1.1-3.2-2.2-4.1c-0.4-0.3-0.8-0.6-1.2-0.9C24.1,67,23.3,66.4,22.6,65.7
							z"/>
						<path fill="#C0924B" d="M29.1,80.2L28,78c-0.4-0.7-1.3-1.4-2.3-2.2c-1-0.8-2-1.5-2.9-2.6c-2.2-2.6-2.8-6.1-1.6-9.6l1.1-3.2
							l1.3,3.1c0.4,1,1.4,1.7,2.6,2.5l0.2,0.1c0.4,0.3,0.7,0.5,1.1,0.8c0.7,0.5,1.2,1.1,1.7,1.9c0.5-0.7,1-1.3,1.7-1.9
							c0.4-0.3,0.8-0.6,1.2-0.9c1.3-0.9,2.3-1.6,2.7-2.6l1.3-3.1l1.1,3.2c1.2,3.5,0.6,6.9-1.6,9.6c-0.9,1-1.9,1.8-2.9,2.6
							c-1,0.8-1.9,1.5-2.3,2.2L29.1,80.2z M35.1,67.1c-0.5,0.4-1,0.8-1.5,1.1c-0.4,0.3-0.8,0.6-1.2,0.9c-1,0.8-1.7,2-2,3.7l-0.3,1.7
							c0.3-0.2,0.6-0.5,0.9-0.7c0.9-0.7,1.8-1.4,2.5-2.2C34.6,70.3,35.2,68.7,35.1,67.1z M23.1,67.1c0,1.7,0.5,3.2,1.6,4.5
							c0.7,0.8,1.6,1.5,2.5,2.2c0.3,0.2,0.6,0.5,0.9,0.7l-0.3-1.7c-0.3-1.6-1-2.9-2-3.7c-0.4-0.3-0.8-0.6-1.2-0.9
							C24.1,67.8,23.6,67.4,23.1,67.1z M28.8,71.1c0.2,0.4,0.3,0.9,0.4,1.4c0.1-0.5,0.2-1,0.4-1.4l-0.4,0.9L28.8,71.1z"/>
					</g>
				</g>
			</g>
			<g>
				<g>
					<g>
						<path fill="#C0924B" d="M29.1,50.2l-0.5-0.9c-0.4-0.6-0.9-1.1-1.5-1.7c-0.6-0.6-1.2-1.2-1.7-2c-2.1-3.2-0.9-7.1,3.3-10.3
							l0.4-0.3l0.4,0.3c4.2,3.2,5.5,7.1,3.3,10.3c-0.5,0.8-1.2,1.4-1.7,2c-0.5,0.5-1.1,1-1.5,1.7L29.1,50.2z M29.1,36.7
							c-3.4,2.7-4.4,5.7-2.7,8.3c0.5,0.7,1,1.3,1.6,1.8c0.4,0.4,0.7,0.7,1.1,1.2c0.3-0.4,0.7-0.8,1.1-1.2c0.5-0.5,1.1-1.1,1.6-1.8
							C33.5,42.4,32.5,39.4,29.1,36.7z"/>
						<path fill="#C0924B" d="M29.1,51.4L28,49.7c-0.4-0.6-0.8-1.1-1.4-1.6c-0.6-0.6-1.2-1.2-1.8-2.1c-2.3-3.5-1-7.7,3.5-11.2
							l0.8-0.6l0.8,0.6c4.5,3.5,5.8,7.6,3.5,11.2c-0.6,0.9-1.2,1.5-1.8,2.1c-0.5,0.5-1,1-1.4,1.6L29.1,51.4z M29.1,37.5
							c-1.8,1.6-4,4.3-2.1,7.1c0.4,0.7,1,1.2,1.5,1.7c0.2,0.2,0.4,0.4,0.6,0.6c0.2-0.2,0.4-0.4,0.6-0.6c0.5-0.5,1.1-1.1,1.5-1.7
							C33.1,41.8,30.9,39.1,29.1,37.5z"/>
					</g>
				</g>
			</g>
			<g>
				<g>
					<g>
						<path fill="#C0924B" d="M22.4,45.7c-0.4,0-0.6-0.3-0.6-0.6v-6.5c0-0.4,0.3-0.6,0.6-0.6c0.4,0,0.6,0.3,0.6,0.6v6.5
							C23,45.5,22.7,45.7,22.4,45.7z"/>
						<path fill="#C0924B" d="M22.4,46.4c-0.7,0-1.3-0.6-1.3-1.3v-6.5c0-0.7,0.6-1.3,1.3-1.3c0.7,0,1.3,0.6,1.3,1.3v6.5
							C23.7,45.8,23.1,46.4,22.4,46.4z"/>
					</g>
				</g>
			</g>
			<g>
				<g>
					<g>
						<path fill="#C0924B" d="M35.9,45.7c-0.4,0-0.6-0.3-0.6-0.6v-6.5c0-0.4,0.3-0.6,0.6-0.6c0.4,0,0.6,0.3,0.6,0.6v6.5
							C36.5,45.5,36.2,45.7,35.9,45.7z"/>
						<path fill="#C0924B" d="M35.9,46.4c-0.7,0-1.3-0.6-1.3-1.3v-6.5c0-0.7,0.6-1.3,1.3-1.3c0.7,0,1.3,0.6,1.3,1.3v6.5
							C37.2,45.8,36.6,46.4,35.9,46.4z"/>
					</g>
				</g>
			</g>
			<g>
				<g>
					<g>
						<path fill="#C0924B" d="M29.1,36.5c-0.4,0-0.6-0.3-0.6-0.6v-7.1c0-0.4,0.3-0.6,0.6-0.6s0.6,0.3,0.6,0.6v7.1
							C29.8,36.2,29.5,36.5,29.1,36.5z"/>
						<path fill="#C0924B" d="M29.1,37.1c-0.7,0-1.3-0.6-1.3-1.3v-7.1c0-0.7,0.6-1.3,1.3-1.3c0.7,0,1.3,0.6,1.3,1.3v7.1
							C30.4,36.6,29.8,37.1,29.1,37.1z"/>
					</g>
				</g>
			</g>
			<g>
				<g>
					<g>
						<path fill="#C0924B" d="M29.1,46.1c-0.4,0-0.6-0.3-0.6-0.6v-7.2c0-0.4,0.3-0.6,0.6-0.6s0.6,0.3,0.6,0.6v7.2
							C29.8,45.9,29.5,46.1,29.1,46.1z"/>
						<path fill="#C0924B" d="M29.1,46.8c-0.7,0-1.3-0.6-1.3-1.3v-7.2c0-0.7,0.6-1.3,1.3-1.3c0.7,0,1.3,0.6,1.3,1.3v7.2
							C30.4,46.2,29.8,46.8,29.1,46.8z"/>
					</g>
				</g>
			</g>
			<g>
				<g>
					<g>
						<path fill="#C0924B" d="M29.1,83.8c-0.4,0-0.6-0.3-0.6-0.6v-5.7c0-0.4,0.3-0.6,0.6-0.6s0.6,0.3,0.6,0.6v5.7
							C29.8,83.5,29.5,83.8,29.1,83.8z"/>
						<path fill="#C0924B" d="M29.1,84.4c-0.7,0-1.3-0.6-1.3-1.3v-5.7c0-0.7,0.6-1.3,1.3-1.3c0.7,0,1.3,0.6,1.3,1.3v5.7
							C30.4,83.8,29.8,84.4,29.1,84.4z"/>
					</g>
				</g>
			</g>
		</g>
	</g>
	<g>
		<g>
			<g>
				<g>
					<path fill="#2A2A36" d="M50.3,99.9c-13.3,0-25.7-5.2-35.1-14.5C5.8,76,0.6,63.5,0.6,50.3s5.2-25.7,14.5-35.1
						C24.6,5.8,37,0.6,50.3,0.6c13.3,0,25.7,5.2,35.1,14.5S99.9,37,99.9,50.3S94.7,76,85.4,85.4S63.5,99.9,50.3,99.9z M50.3,1.9
						c-12.9,0-25.1,5-34.2,14.2C7,25.2,1.9,37.4,1.9,50.3s5,25.1,14.2,34.2c9.1,9.1,21.3,14.2,34.2,14.2c12.9,0,25.1-5,34.2-14.2
						c9.1-9.1,14.2-21.3,14.2-34.2s-5-25.1-14.2-34.2C75.3,7,63.2,1.9,50.3,1.9z"/>
					<path fill="#2A2A36" d="M50.3,100.6c-13.4,0-26.1-5.2-35.6-14.7C5.2,76.3,0,63.7,0,50.3s5.2-26.1,14.7-35.6
						C24.2,5.2,36.8,0,50.3,0s26.1,5.2,35.6,14.7c9.5,9.5,14.7,22.1,14.7,35.6s-5.2,26.1-14.7,35.6C76.3,95.3,63.7,100.6,50.3,100.6
						z M50.3,2.6c-12.7,0-24.7,5-33.7,14c-9,9-14,21-14,33.7c0,12.7,5,24.7,14,33.7c9,9,21,14,33.7,14C63,98,75,93,84,84
						c9-9,14-21,14-33.7s-5-24.7-14-33.7C75,7.5,63,2.6,50.3,2.6z"/>
				</g>
			</g>
		</g>
		<g>
			<g>
				<g>
					<path fill="#2A2A36" d="M14.7,84.6c-0.2,0-0.3-0.1-0.5-0.2c-0.2-0.2-0.2-0.7,0-0.9l6.6-6.6c0.2-0.2,0.7-0.2,0.9,0
						c0.2,0.2,0.2,0.7,0,0.9l-6.6,6.6C15,84.5,14.9,84.6,14.7,84.6z"/>
					<path fill="#2A2A36" d="M14.7,85.2c-0.3,0-0.7-0.1-0.9-0.4c-0.5-0.5-0.5-1.3,0-1.8l6.6-6.6c0.5-0.5,1.3-0.5,1.8,0
						c0.2,0.2,0.4,0.6,0.4,0.9s-0.1,0.7-0.4,0.9l-6.6,6.6C15.4,85.1,15,85.2,14.7,85.2z"/>
				</g>
			</g>
		</g>
		<g>
			<g>
				<g>
					<path fill="#2A2A36" d="M75.1,24.2c-0.2,0-0.3-0.1-0.5-0.2c-0.2-0.2-0.2-0.7,0-0.9l8.8-8.8c0.2-0.2,0.7-0.2,0.9,0
						c0.2,0.2,0.2,0.7,0,0.9L75.6,24C75.4,24.1,75.3,24.2,75.1,24.2z"/>
					<path fill="#2A2A36" d="M75.1,24.8c-0.3,0-0.7-0.1-0.9-0.4c-0.2-0.2-0.4-0.6-0.4-0.9s0.1-0.7,0.4-0.9l8.8-8.8
						c0.5-0.5,1.3-0.5,1.8,0c0.2,0.2,0.4,0.6,0.4,0.9s-0.1,0.7-0.4,0.9L76,24.4C75.8,24.7,75.4,24.8,75.1,24.8z"/>
				</g>
			</g>
		</g>
	</g>
</g>
</svg>
