<?xml version="1.0" encoding="utf-8"?>
<!-- Generator: Adobe Illustrator 18.0.0, SVG Export Plug-In . SVG Version: 6.00 Build 0)  -->
<!DOCTYPE svg PUBLIC "-//W3C//DTD SVG 1.1//EN" "http://www.w3.org/Graphics/SVG/1.1/DTD/svg11.dtd">
<svg version="1.1" id="Слой_1" xmlns="http://www.w3.org/2000/svg" xmlns:xlink="http://www.w3.org/1999/xlink" x="0px" y="0px"
	 viewBox="0 0 100.6 100.6" enable-background="new 0 0 100.6 100.6" xml:space="preserve">
<g>
	<g>
		<path fill="#C0924B" d="M70.5,40.9c0,5.4-1.7,9.5-5,12.3c-3.4,2.8-8.1,4.3-14.3,4.3h-1.3c-1.8,0-3.2,1.5-3.2,3.2V72
			c0,1.8-1.5,3.2-3.2,3.2h-4.1c-1.8,0-3.2-1.5-3.2-3.2V28.5c0-1.8,1.5-3.2,3.2-3.2H52c6.1,0,10.7,1.3,13.8,3.9
			C69,31.8,70.5,35.7,70.5,40.9z M46.6,45.6c0,1.8,1.5,3.2,3.2,3.2h0.2c3.3,0,5.7-0.6,7.3-1.9c1.6-1.3,2.4-3.2,2.4-5.6
			c0-2.5-0.7-4.3-2-5.5c-1.4-1.2-3.5-1.8-6.4-1.8h-1.6c-1.8,0-3.2,1.5-3.2,3.2V45.6z"/>
	</g>
	<g>
		<g>
			<g>
				<g>
					<g>
						<g>
							<path fill="#2A2A36" d="M50.3,99.9c-13.3,0-25.7-5.2-35.1-14.5C5.8,76,0.6,63.5,0.6,50.3c0-13.3,5.2-25.7,14.5-35.1
								C24.6,5.8,37,0.6,50.3,0.6c13.3,0,25.7,5.2,35.1,14.5c9.4,9.4,14.5,21.8,14.5,35.1c0,13.3-5.2,25.7-14.5,35.1
								C76,94.7,63.5,99.9,50.3,99.9z M50.3,1.9c-12.9,0-25.1,5-34.2,14.2C7,25.2,1.9,37.4,1.9,50.3c0,12.9,5,25.1,14.2,34.2
								c9.1,9.1,21.3,14.2,34.2,14.2s25.1-5,34.2-14.2s14.2-21.3,14.2-34.2c0-12.9-5-25.1-14.2-34.2C75.3,7,63.2,1.9,50.3,1.9z"/>
							<path fill="#2A2A36" d="M50.3,100.6c-13.4,0-26.1-5.2-35.6-14.7C5.2,76.3,0,63.7,0,50.3c0-13.4,5.2-26.1,14.7-35.6
								C24.2,5.2,36.9,0,50.3,0c13.4,0,26.1,5.2,35.6,14.7c9.5,9.5,14.7,22.1,14.7,35.6c0,13.4-5.2,26.1-14.7,35.6
								C76.3,95.3,63.7,100.6,50.3,100.6z M50.3,2.6c-12.7,0-24.7,5-33.7,14c-9,9-14,21-14,33.7c0,12.7,5,24.7,14,33.7
								c9,9,21,14,33.7,14C63,98,75,93,84,84c9-9,14-21,14-33.7c0-12.7-5-24.7-14-33.7C75,7.5,63,2.6,50.3,2.6z"/>
						</g>
					</g>
				</g>
			</g>
		</g>
	</g>
</g>
</svg>
