<?xml version="1.0" encoding="utf-8"?>
<!-- Generator: Adobe Illustrator 18.0.0, SVG Export Plug-In . SVG Version: 6.00 Build 0)  -->
<!DOCTYPE svg PUBLIC "-//W3C//DTD SVG 1.1//EN" "http://www.w3.org/Graphics/SVG/1.1/DTD/svg11.dtd">
<svg version="1.1" id="Слой_1" xmlns="http://www.w3.org/2000/svg" xmlns:xlink="http://www.w3.org/1999/xlink" x="0px" y="0px"
	 viewBox="0 0 36 46.4" enable-background="new 0 0 36 46.4" xml:space="preserve">
<g>
	<path fill="#212735" d="M35.6,9.8l-9.3-9.3C26,0.2,25.6,0,25.2,0H2C1,0,0,0.7,0,2.3v42.5c0,0.7,0.7,1.3,1.5,1.5c0,0,0.1,0,0.1,0
		c0.1,0,0.3,0,0.4,0H34c0.1,0,0.3,0,0.4,0c0,0,0.1,0,0.1,0c0.8-0.2,1.5-0.9,1.5-1.5V11.2C36,10.6,35.9,10.1,35.6,9.8L35.6,9.8z
		 M33.1,9.6h-6.8V2.9L33.1,9.6z M2,44.8c-0.1,0-0.1,0-0.2,0c-0.1-0.1-0.2-0.2-0.2-0.3V32.8h32.8v11.6c0,0.1-0.1,0.3-0.2,0.3
		c-0.1,0-0.1,0-0.2,0H2z M1.6,31.2V2.3c0-0.2,0-0.7,0.4-0.7h22.9c0,0.1,0,0.2,0,0.3v9.3h9.3c0.1,0,0.2,0,0.3,0c0,0,0,0,0,0v20H1.6z
		 M1.6,31.2"/>
	<path fill="#212735" d="M13.4,36.3c-0.3-0.4-0.8-0.6-1.3-0.9c-0.5-0.2-1.1-0.3-1.8-0.3H7.9v8.1h3c0.1,0,0.3,0,0.5,0
		c0.2,0,0.4-0.1,0.7-0.2c0.3-0.1,0.5-0.2,0.8-0.4c0.3-0.2,0.5-0.4,0.7-0.7c0.2-0.3,0.4-0.7,0.5-1.2c0.1-0.5,0.2-1,0.2-1.7
		c0-0.5-0.1-1-0.3-1.4C14,37.1,13.7,36.7,13.4,36.3L13.4,36.3z M12.4,41.4c-0.4,0.6-1,0.9-1.9,0.9H9.2v-6.1H10
		c0.6,0,1.1,0.1,1.5,0.2c0.4,0.2,0.7,0.4,0.9,0.6c0.2,0.3,0.4,0.6,0.5,0.9c0.1,0.3,0.1,0.7,0.1,1C13,40,12.8,40.8,12.4,41.4
		L12.4,41.4z M12.4,41.4"/>
	<path fill="#212735" d="M21.4,36.1c-0.3-0.3-0.7-0.6-1.1-0.8C19.9,35.1,19.5,35,19,35c-0.5,0-0.9,0.1-1.3,0.3
		c-0.4,0.2-0.8,0.4-1.1,0.8c-0.3,0.3-0.5,0.8-0.7,1.3c-0.2,0.5-0.3,1.1-0.3,1.8c0,0.7,0.1,1.3,0.3,1.8c0.2,0.5,0.4,0.9,0.7,1.3
		c0.3,0.3,0.7,0.6,1.1,0.8c0.4,0.2,0.8,0.3,1.3,0.3c0.5,0,0.9-0.1,1.3-0.3c0.4-0.2,0.8-0.4,1.1-0.8c0.3-0.3,0.5-0.8,0.7-1.3
		c0.2-0.5,0.3-1.1,0.3-1.8c0-0.7-0.1-1.3-0.3-1.8C22,36.8,21.7,36.4,21.4,36.1L21.4,36.1z M20.9,40.6c-0.1,0.4-0.3,0.7-0.5,0.9
		c-0.2,0.2-0.4,0.4-0.7,0.5c-0.2,0.1-0.5,0.2-0.8,0.2c-0.3,0-0.5-0.1-0.8-0.2c-0.2-0.1-0.4-0.3-0.6-0.5c-0.2-0.2-0.3-0.6-0.4-0.9
		c-0.1-0.4-0.2-0.9-0.2-1.4c0-0.6,0.1-1,0.2-1.4c0.1-0.4,0.3-0.7,0.5-0.9c0.2-0.2,0.4-0.4,0.7-0.5c0.2-0.1,0.5-0.2,0.8-0.2
		c0.3,0,0.5,0.1,0.8,0.2c0.2,0.1,0.4,0.3,0.6,0.5c0.2,0.2,0.3,0.6,0.4,0.9c0.1,0.4,0.2,0.8,0.2,1.4C21,39.7,21,40.2,20.9,40.6
		L20.9,40.6z M20.9,40.6"/>
	<path fill="#212735" d="M26.1,36.8c0.2-0.2,0.4-0.4,0.7-0.5c0.2-0.1,0.5-0.2,0.8-0.2c0.2,0,0.5,0.1,0.7,0.1
		c0.2,0.1,0.4,0.2,0.6,0.5l0.9-0.8c-0.3-0.3-0.6-0.5-1-0.7c-0.4-0.1-0.8-0.2-1.2-0.2c-0.5,0-0.9,0.1-1.3,0.3
		c-0.4,0.2-0.8,0.4-1.1,0.8c-0.3,0.3-0.5,0.8-0.7,1.3c-0.2,0.5-0.3,1.1-0.3,1.8c0,0.7,0.1,1.3,0.3,1.8c0.2,0.5,0.4,0.9,0.7,1.3
		c0.3,0.3,0.7,0.6,1.1,0.8c0.4,0.2,0.8,0.3,1.3,0.3c0.4,0,0.8-0.1,1.2-0.2c0.4-0.1,0.7-0.4,1-0.7l-0.9-0.8c-0.2,0.2-0.4,0.4-0.6,0.5
		c-0.2,0.1-0.5,0.1-0.7,0.1s-0.5-0.1-0.8-0.2c-0.2-0.1-0.4-0.3-0.6-0.5c-0.2-0.2-0.3-0.6-0.4-0.9c-0.1-0.4-0.2-0.9-0.2-1.4
		c0-0.6,0.1-1,0.2-1.4C25.7,37.3,25.9,37,26.1,36.8L26.1,36.8z M26.1,36.8"/>
	<path fill="#212735" d="M5.6,11.2h4.8c0.4,0,0.8-0.4,0.8-0.8c0-0.4-0.4-0.8-0.8-0.8H5.6c-0.4,0-0.8,0.4-0.8,0.8
		C4.8,10.8,5.2,11.2,5.6,11.2L5.6,11.2z M5.6,11.2"/>
	<path fill="#212735" d="M5.6,15.2h7.2c0.4,0,0.8-0.4,0.8-0.8c0-0.4-0.4-0.8-0.8-0.8H5.6c-0.4,0-0.8,0.4-0.8,0.8
		C4.8,14.8,5.2,15.2,5.6,15.2L5.6,15.2z M5.6,15.2"/>
	<path fill="#212735" d="M16,15.2c0.2,0,0.4-0.1,0.6-0.2c0.1-0.2,0.2-0.4,0.2-0.6c0-0.2-0.1-0.4-0.2-0.6c-0.3-0.3-0.8-0.3-1.1,0
		c-0.1,0.2-0.2,0.4-0.2,0.6c0,0.2,0.1,0.4,0.2,0.6C15.6,15.1,15.8,15.2,16,15.2L16,15.2z M16,15.2"/>
	<path fill="#212735" d="M19.2,15.2h6.4c0.4,0,0.8-0.4,0.8-0.8c0-0.4-0.4-0.8-0.8-0.8h-6.4c-0.4,0-0.8,0.4-0.8,0.8
		C18.4,14.8,18.8,15.2,19.2,15.2L19.2,15.2z M19.2,15.2"/>
	<path fill="#212735" d="M5,25.8c-0.1,0.2-0.2,0.4-0.2,0.6c0,0.2,0.1,0.4,0.2,0.6c0.2,0.1,0.4,0.2,0.6,0.2c0.2,0,0.4-0.1,0.6-0.2
		c0.1-0.2,0.2-0.4,0.2-0.6c0-0.2-0.1-0.4-0.2-0.6C5.9,25.5,5.3,25.5,5,25.8L5,25.8z M5,25.8"/>
	<path fill="#212735" d="M15.2,25.6H8.8C8.4,25.6,8,26,8,26.4c0,0.4,0.4,0.8,0.8,0.8h6.4c0.4,0,0.8-0.4,0.8-0.8
		C16,26,15.6,25.6,15.2,25.6L15.2,25.6z M15.2,25.6"/>
	<path fill="#212735" d="M30.4,13.6h-1.6c-0.4,0-0.8,0.4-0.8,0.8c0,0.4,0.4,0.8,0.8,0.8h1.6c0.4,0,0.8-0.4,0.8-0.8
		C31.2,14,30.8,13.6,30.4,13.6L30.4,13.6z M30.4,13.6"/>
	<path fill="#212735" d="M5.6,19.2h17.6c0.4,0,0.8-0.4,0.8-0.8c0-0.4-0.4-0.8-0.8-0.8H5.6c-0.4,0-0.8,0.4-0.8,0.8
		C4.8,18.8,5.2,19.2,5.6,19.2L5.6,19.2z M5.6,19.2"/>
	<path fill="#212735" d="M30.4,17.6h-4.8c-0.4,0-0.8,0.4-0.8,0.8c0,0.4,0.4,0.8,0.8,0.8h4.8c0.4,0,0.8-0.4,0.8-0.8
		C31.2,18,30.8,17.6,30.4,17.6L30.4,17.6z M30.4,17.6"/>
	<path fill="#212735" d="M5.6,23.2h3.2c0.4,0,0.8-0.4,0.8-0.8c0-0.4-0.4-0.8-0.8-0.8H5.6c-0.4,0-0.8,0.4-0.8,0.8
		C4.8,22.8,5.2,23.2,5.6,23.2L5.6,23.2z M5.6,23.2"/>
	<path fill="#212735" d="M20,21.6h-8c-0.4,0-0.8,0.4-0.8,0.8c0,0.4,0.4,0.8,0.8,0.8h8c0.4,0,0.8-0.4,0.8-0.8
		C20.8,22,20.4,21.6,20,21.6L20,21.6z M20,21.6"/>
	<path fill="#212735" d="M30.4,21.6h-7.2c-0.4,0-0.8,0.4-0.8,0.8c0,0.4,0.4,0.8,0.8,0.8h7.2c0.4,0,0.8-0.4,0.8-0.8
		C31.2,22,30.8,21.6,30.4,21.6L30.4,21.6z M30.4,21.6"/>
</g>
</svg>
