<?xml version="1.0" encoding="utf-8"?>
<!-- Generator: Adobe Illustrator 18.0.0, SVG Export Plug-In . SVG Version: 6.00 Build 0)  -->
<!DOCTYPE svg PUBLIC "-//W3C//DTD SVG 1.1//EN" "http://www.w3.org/Graphics/SVG/1.1/DTD/svg11.dtd">
<svg version="1.1" id="Слой_1" xmlns="http://www.w3.org/2000/svg" xmlns:xlink="http://www.w3.org/1999/xlink" x="0px" y="0px"
	 viewBox="0 0 36 46.4" enable-background="new 0 0 36 46.4" xml:space="preserve">
<g>
	<path fill="#2A2A36" d="M35.6,9.8l-9.3-9.3C26,0.2,25.6,0,25.2,0H2C0.9,0,0,0.9,0,2v42.5c0,1.1,0.9,2,2,2H34c1.1,0,2-0.9,2-2V10.8
		C36,10.4,35.8,10,35.6,9.8L35.6,9.8z M33.1,9.6h-6.7V2.9L33.1,9.6z M34.4,44.4c0,0.2-0.2,0.4-0.4,0.4H2c-0.2,0-0.4-0.2-0.4-0.4
		V32.8h32.8V44.4z M1.6,31.2V2c0-0.2,0.2-0.4,0.4-0.4h22.9c0,0.1,0,0.2,0,0.3v9.3h9.3c0.1,0,0.2,0,0.3,0v20H1.6z M1.6,31.2"/>
	<path fill="#2A2A36" d="M10.4,41.6c1.8,0,3.2-1.4,3.2-3.2c0-1.8-1.4-3.2-3.2-3.2c-1.8,0-3.2,1.4-3.2,3.2
		C7.2,40.2,8.6,41.6,10.4,41.6L10.4,41.6z M10.4,36.8c0.9,0,1.6,0.7,1.6,1.6c0,0.9-0.7,1.6-1.6,1.6c-0.9,0-1.6-0.7-1.6-1.6
		C8.8,37.5,9.5,36.8,10.4,36.8L10.4,36.8z M10.4,36.8"/>
	<path fill="#2A2A36" d="M18.4,41.6c1.8,0,3.2-1.4,3.2-3.2c0-1.8-1.4-3.2-3.2-3.2c-1.8,0-3.2,1.4-3.2,3.2
		C15.2,40.2,16.6,41.6,18.4,41.6L18.4,41.6z M18.4,36.8c0.9,0,1.6,0.7,1.6,1.6c0,0.9-0.7,1.6-1.6,1.6c-0.9,0-1.6-0.7-1.6-1.6
		C16.8,37.5,17.5,36.8,18.4,36.8L18.4,36.8z M18.4,36.8"/>
	<path fill="#2A2A36" d="M26.4,41.6c1.8,0,3.2-1.4,3.2-3.2c0-1.8-1.4-3.2-3.2-3.2c-1.8,0-3.2,1.4-3.2,3.2
		C23.2,40.2,24.6,41.6,26.4,41.6L26.4,41.6z M26.4,36.8c0.9,0,1.6,0.7,1.6,1.6c0,0.9-0.7,1.6-1.6,1.6c-0.9,0-1.6-0.7-1.6-1.6
		C24.8,37.5,25.5,36.8,26.4,36.8L26.4,36.8z M26.4,36.8"/>
</g>
</svg>
