<?xml version="1.0" encoding="utf-8"?>
<!-- Generator: Adobe Illustrator 18.0.0, SVG Export Plug-In . SVG Version: 6.00 Build 0)  -->
<!DOCTYPE svg PUBLIC "-//W3C//DTD SVG 1.1//EN" "http://www.w3.org/Graphics/SVG/1.1/DTD/svg11.dtd">
<svg version="1.1" id="Слой_1" xmlns="http://www.w3.org/2000/svg" xmlns:xlink="http://www.w3.org/1999/xlink" x="0px" y="0px"
	 viewBox="0 0 62.7 42.6" enable-background="new 0 0 62.7 42.6" xml:space="preserve">
<g>
	<g>
		<path fill="#2A2A36" d="M51.6,8.3L31.3,26.2L11,8.3c-0.8-0.7-2-0.6-2.8,0.2c-0.7,0.8-0.6,2,0.2,2.8l21.6,19
			c0.4,0.3,0.8,0.5,1.3,0.5c0.5,0,0.9-0.2,1.3-0.5l21.6-19c0.8-0.7,0.9-1.9,0.2-2.8C53.7,7.7,52.5,7.6,51.6,8.3L51.6,8.3z M51.6,8.3
			"/>
		<path fill="#2A2A36" d="M56.8,0h-51C2.6,0,0,2.6,0,5.9v30.9c0,3.2,2.6,5.9,5.9,5.9h51c3.2,0,5.9-2.6,5.9-5.9V5.9
			C62.7,2.6,60.1,0,56.8,0L56.8,0z M58.8,36.8c0,1.1-0.9,2-2,2h-51c-1.1,0-2-0.9-2-2V5.9c0-1.1,0.9-2,2-2h51c1.1,0,2,0.9,2,2V36.8z
			 M58.8,36.8"/>
	</g>
</g>
</svg>
