<?xml version="1.0" encoding="utf-8"?>
<!-- Generator: Adobe Illustrator 18.0.0, SVG Export Plug-In . SVG Version: 6.00 Build 0)  -->
<!DOCTYPE svg PUBLIC "-//W3C//DTD SVG 1.1//EN" "http://www.w3.org/Graphics/SVG/1.1/DTD/svg11.dtd">
<svg version="1.1" id="Слой_1" xmlns="http://www.w3.org/2000/svg" xmlns:xlink="http://www.w3.org/1999/xlink" x="0px" y="0px"
	 viewBox="0 0 28.6 26.2" enable-background="new 0 0 28.6 26.2" xml:space="preserve">
<path fill="#A65367" d="M14.3,18.4c-0.8,0-1.5,0.7-1.5,1.5c0,0.8,0.7,1.5,1.5,1.5c0.8,0,1.5-0.7,1.4-1.4
	C15.8,19.1,15.1,18.4,14.3,18.4L14.3,18.4z"/>
<path fill="#A65367" d="M27.9,23.6c0.9-1.6,0.9-3.5,0-5.1l-9.2-16C17.8,1,16.2,0,14.3,0s-3.5,1-4.4,2.6l-9.2,16
	c-0.9,1.6-0.9,3.5,0,5.1c0.9,1.6,2.6,2.5,4.4,2.5h18.4C25.3,26.2,27,25.2,27.9,23.6L27.9,23.6z M25.9,22.5c-0.5,0.9-1.4,1.4-2.4,1.4
	H5.1c-1,0-1.9-0.5-2.4-1.4c-0.5-0.9-0.5-1.9,0-2.8l9.2-16c0.5-0.9,1.4-1.4,2.4-1.4c1,0,1.9,0.5,2.4,1.4l9.2,16
	C26.4,20.5,26.4,21.6,25.9,22.5L25.9,22.5z M25.9,22.5"/>
<path fill="#A65367" d="M13.9,8.1c-0.7,0.2-1.1,0.8-1.1,1.6c0,0.5,0.1,0.9,0.1,1.4c0.1,1.8,0.2,3.5,0.3,5.3c0,0.6,0.5,1,1.1,1
	s1.1-0.5,1.1-1.1c0-0.4,0-0.7,0-1.1c0.1-1.1,0.1-2.3,0.2-3.4c0-0.7,0.1-1.5,0.1-2.2c0-0.3,0-0.5-0.1-0.7C15.3,8.2,14.6,7.9,13.9,8.1
	L13.9,8.1z"/>
</svg>
