<?xml version="1.0" encoding="utf-8"?>
<!-- Generator: Adobe Illustrator 18.0.0, SVG Export Plug-In . SVG Version: 6.00 Build 0)  -->
<!DOCTYPE svg PUBLIC "-//W3C//DTD SVG 1.1//EN" "http://www.w3.org/Graphics/SVG/1.1/DTD/svg11.dtd">
<svg version="1.1" id="Слой_1" xmlns="http://www.w3.org/2000/svg" xmlns:xlink="http://www.w3.org/1999/xlink" x="0px" y="0px"
	 viewBox="0 0 40.9 40.9" enable-background="new 0 0 40.9 40.9" xml:space="preserve">
<g>
	<path fill="#3D3E5A" stroke="#3D3E5A" stroke-width="1.5" stroke-miterlimit="10" d="M20.5,0.8L20.5,0.8L20.5,0.8
		c-7.4,0-13.8,4.1-17.2,10.1c-0.1,0.1-0.1,0.2-0.2,0.3c-0.1,0.1-0.1,0.3-0.2,0.4c-1.4,2.7-2.2,5.7-2.2,9v0v0
		c0,10.9,8.8,19.7,19.7,19.7h0h0c7.4,0,13.8-4.1,17.2-10.1c0.1-0.1,0.1-0.2,0.2-0.3c0.1-0.1,0.1-0.3,0.2-0.4c1.4-2.7,2.2-5.7,2.2-9
		v0v0C40.2,9.6,31.3,0.8,20.5,0.8z M36.1,30c-3.2,5.2-9,8.8-15.6,8.8c-10.1,0-18.3-8.2-18.3-18.3c0-3.5,1-6.8,2.7-9.6
		c3.2-5.2,9-8.8,15.6-8.8c10.1,0,18.3,8.2,18.3,18.3C38.8,24,37.8,27.2,36.1,30z"/>
	<path fill="#3D3E5A" stroke="#3D3E5A" stroke-width="1.5" stroke-miterlimit="10" d="M18.7,20.5l4.2-4.3c0.3-0.3,0.3-0.7,0-1
		c-0.3-0.3-0.7-0.3-1,0L17.2,20c-0.3,0.3-0.3,0.7,0,1l4.8,4.7c0.1,0.1,0.3,0.2,0.5,0.2c0.2,0,0.4-0.1,0.5-0.2c0.3-0.3,0.3-0.7,0-1
		L18.7,20.5z"/>
</g>
</svg>
