<?xml version="1.0" encoding="utf-8"?>
<!-- Generator: Adobe Illustrator 18.0.0, SVG Export Plug-In . SVG Version: 6.00 Build 0)  -->
<!DOCTYPE svg PUBLIC "-//W3C//DTD SVG 1.1//EN" "http://www.w3.org/Graphics/SVG/1.1/DTD/svg11.dtd">
<svg version="1.1" id="Слой_1" xmlns="http://www.w3.org/2000/svg" xmlns:xlink="http://www.w3.org/1999/xlink" x="0px" y="0px"
	 viewBox="0 0 136.2 128.5" enable-background="new 0 0 136.2 128.5" xml:space="preserve">
<g>
	<path fill="#FFFFFF" d="M1,125.2l-0.3,0.6v1.9H0V122h0.6v2.7l1.5-2.7h0.6l-1.4,2.6l1.5,3.1H2.2L1,125.2z"/>
	<path fill="#FFFFFF" d="M6.9,123.4c0-0.9,0.4-1.4,1.3-1.4c0.9,0,1.3,0.6,1.3,1.4v2.9c0,0.9-0.4,1.4-1.3,1.4c-0.9,0-1.3-0.6-1.3-1.4
		V123.4z M7.6,126.4c0,0.5,0.2,0.8,0.7,0.8c0.5,0,0.7-0.3,0.7-0.8v-3c0-0.5-0.2-0.8-0.7-0.8c-0.5,0-0.7,0.3-0.7,0.8V126.4z"/>
	<path fill="#FFFFFF" d="M14.4,125.1v2.6h-0.6V122h0.6v2.6h1.4V122h0.6v5.7h-0.6v-2.6H14.4z"/>
	<path fill="#FFFFFF" d="M23.6,128.5v-0.8h-2.3v0.8h-0.6v-1.3H21c0.2-0.2,0.2-0.5,0.3-0.8l0.2-4.3h2.3v5.1h0.4v1.3H23.6z
		 M21.9,126.3c0,0.4-0.1,0.6-0.3,0.8h1.5v-4.5H22L21.9,126.3z"/>
	<path fill="#FFFFFF" d="M29.9,125.1l-0.8,2.6h-0.7V122h0.6v4.2l0.6-1.8l0.8-2.4h0.7v5.7h-0.6v-4.5L29.9,125.1z"/>
	<path fill="#FFFFFF" d="M36.2,127.7v-5.1h-1V122h2.7v0.6h-1v5.1H36.2z"/>
	<path fill="#FFFFFF" d="M44.1,124.5v0.6h-1.4v2h1.7v0.6H42V122h2.3v0.6h-1.7v1.9H44.1z"/>
	<path fill="#FFFFFF" d="M49.9,122c0.9,0,1.3,0.5,1.3,1.4v0.7c0,0.9-0.4,1.4-1.3,1.4h-0.6v2.2h-0.6V122H49.9z M49.8,124.9
		c0.5,0,0.7-0.2,0.7-0.8v-0.8c0-0.5-0.2-0.8-0.7-0.8h-0.6v2.3H49.8z"/>
	<path fill="#FFFFFF" d="M57.8,123.4v0.5h-0.6v-0.5c0-0.5-0.2-0.8-0.7-0.8c-0.5,0-0.7,0.3-0.7,0.8v3c0,0.5,0.2,0.8,0.7,0.8
		c0.5,0,0.7-0.3,0.7-0.8v-0.7h0.6v0.7c0,0.9-0.4,1.4-1.3,1.4c-0.9,0-1.3-0.6-1.3-1.4v-2.9c0-0.9,0.4-1.4,1.3-1.4
		C57.4,122,57.8,122.5,57.8,123.4z"/>
	<path fill="#FFFFFF" d="M63,125.2l-0.3,0.6v1.9H62V122h0.6v2.7l1.5-2.7h0.6l-1.4,2.6l1.5,3.1h-0.6L63,125.2z"/>
	<path fill="#FFFFFF" d="M69.6,126.6l-0.2,1.1h-0.6l1.1-5.7h0.9l1.1,5.7h-0.6l-0.2-1.1H69.6z M69.7,126H71l-0.6-3.3L69.7,126z"/>
	<path fill="#FFFFFF" d="M77.6,125.3c-0.5,0-0.8,0.2-0.8,0.8v0.9c0,0.4,0,0.5-0.1,0.7H76c0.1-0.2,0.1-0.4,0.1-0.7v-0.9
		c0-0.6,0.2-1,0.7-1.2c-0.5-0.2-0.7-0.5-0.7-1.2v-0.5c0-0.8,0.4-1.3,1.3-1.3h1.3v5.7H78v-2.4H77.6z M77.4,122.6
		c-0.5,0-0.7,0.3-0.7,0.8v0.5c0,0.6,0.3,0.8,0.8,0.8H78v-2.1H77.4z"/>
	<path fill="#FFFFFF" d="M90.5,122.7c0.9,0,1.3,0.5,1.3,1.4v1.5c0,0.9-0.4,1.4-1.3,1.4h-0.4v0.6h-0.6v-0.6h-0.4
		c-0.9,0-1.3-0.5-1.3-1.4v-1.5c0-0.9,0.4-1.4,1.3-1.4h0.4V122h0.6v0.7H90.5z M89.1,123.2c-0.5,0-0.7,0.3-0.7,0.8v1.6
		c0,0.5,0.2,0.8,0.7,0.8h0.4v-3.3H89.1z M90.5,126.5c0.5,0,0.7-0.3,0.7-0.8v-1.6c0-0.5-0.2-0.8-0.7-0.8h-0.4v3.3H90.5z"/>
	<path fill="#FFFFFF" d="M96.8,126.6l-0.2,1.1H96l1.1-5.7H98l1.1,5.7h-0.6l-0.2-1.1H96.8z M96.9,126h1.3l-0.6-3.3L96.9,126z"/>
	<path fill="#FFFFFF" d="M104.5,124.4c0.9,0,1.3,0.4,1.3,1.3v0.6c0,0.9-0.4,1.4-1.3,1.4h-1.3V122h2.4v0.6h-1.8v1.8H104.5z
		 M104.5,127.1c0.5,0,0.7-0.2,0.7-0.8v-0.7c0-0.6-0.2-0.7-0.7-0.7h-0.7v2.2H104.5z"/>
	<path fill="#FFFFFF" d="M111.4,122c0.9,0,1.3,0.5,1.3,1.4v0.7c0,0.9-0.4,1.4-1.3,1.4h-0.6v2.2h-0.6V122H111.4z M111.3,124.9
		c0.5,0,0.7-0.2,0.7-0.8v-0.8c0-0.5-0.2-0.8-0.6-0.8h-0.6v2.3H111.3z"/>
	<path fill="#FFFFFF" d="M118.3,125.1l-0.8,2.6h-0.7V122h0.6v4.2l0.6-1.8l0.8-2.4h0.7v5.7h-0.6v-4.5L118.3,125.1z"/>
	<path fill="#FFFFFF" d="M124.7,125.2l-0.3,0.6v1.9h-0.6V122h0.6v2.7l1.5-2.7h0.6l-1.4,2.6l1.5,3.1H126L124.7,125.2z"/>
	<path fill="#FFFFFF" d="M131.4,126.6l-0.2,1.1h-0.6l1.1-5.7h0.9l1.1,5.7H133l-0.2-1.1H131.4z M131.5,126h1.3l-0.6-3.3L131.5,126z"
		/>
	<g>
		<path fill-rule="evenodd" clip-rule="evenodd" fill="#FFFFFF" d="M8.4,97.3c0.7-0.1,1.5-0.2,2.2-0.2c0.6,0,1.2,0,1.9,0l1.5,0l1,0
			c1.3-0.6,2.2-1.7,2.7-3l-0.4-0.1c-0.5-0.1-1-0.1-1.5-0.2c-0.5-0.1-1-0.1-1.5-0.1c-0.6,0-1.1-0.1-1.7-0.1c-0.7,0-1.4,0-2.1,0
			c-1.5,0-3,0.1-4.4,0.4c-1.1,0.2-2.1,0.6-3,1.2c-0.8,0.6-1.4,1.4-1.7,2.3c-0.4,1-0.5,2.2-0.5,3.3c0,1.1,0.1,2.3,0.5,3.3
			c0.4,0.9,0.9,1.7,1.7,2.3c0.9,0.6,2,1,3,1.2c1.4,0.3,2.9,0.4,4.4,0.4c0.7,0,1.4,0,2.2,0c0.6,0,1.2,0,1.8-0.1
			c0.5,0,1.1-0.1,1.6-0.2c0.5-0.1,1-0.2,1.5-0.3l0.4-0.1c-0.4-1.3-1.4-2.3-2.6-3c-0.4,0-0.8,0-1.2,0c-0.6,0-1.1,0-1.7,0l-2,0
			c-0.7,0-1.5,0-2.2-0.2c-0.5-0.1-0.9-0.3-1.3-0.6c-0.3-0.3-0.5-0.7-0.7-1.1c-0.2-0.6-0.2-1.2-0.2-1.9c0-0.6,0-1.3,0.2-1.9
			c0.1-0.4,0.3-0.8,0.7-1.1C7.5,97.6,8,97.4,8.4,97.3z"/>
		<path fill-rule="evenodd" clip-rule="evenodd" fill="#FFFFFF" d="M23.6,93.8v13.9c0.6,0.1,1.3,0.2,2,0.3h1c0.7,0,1.3-0.1,2-0.3
			l8.2-7.6c0.3-0.3,0.5-0.5,0.7-0.8c0,0.2,0,0.4,0,0.6v7.8c0.6,0.1,1.3,0.2,2,0.3h1c0.7,0,1.3-0.1,2-0.3h0V93.8
			c-0.6-0.1-1.3-0.2-2-0.3h-1c-0.7,0-1.3,0.1-2,0.3l-8.2,7.5c-0.3,0.3-0.6,0.6-0.8,0.9c0-0.2,0-0.5,0-0.7v-7.7
			c-0.6-0.1-1.3-0.2-2-0.3h-1C24.8,93.6,24.2,93.7,23.6,93.8z"/>
		<path fill-rule="evenodd" clip-rule="evenodd" fill="#FFFFFF" d="M57.7,103.8c0.3,0,0.5,0,0.8,0c1.2,0,2.3,0,3.5-0.2
			c0.8-0.1,1.7-0.3,2.4-0.7c0.6-0.4,1.1-0.9,1.4-1.5c0.3-0.7,0.4-1.9,0.4-2.6c0-0.8-0.1-1.9-0.4-2.6c-0.3-0.7-0.8-1.2-1.5-1.5
			c-0.8-0.4-1.7-0.6-2.6-0.7c-1.2-0.2-2.5-0.2-3.8-0.2l-0.2,0v3.5l0.1,0c0.7,0,1.4,0,2.1,0.2c0.3,0.1,0.7,0.2,0.9,0.5
			c0.2,0.3,0.2,0.6,0.2,0.9c0,0.3,0,0.7-0.2,0.9c-0.2,0.3-0.6,0.4-0.9,0.4c-0.7,0.1-1.4,0.2-2.1,0.2h-0.1V103.8L57.7,103.8z
			 M49.2,93.9l0.4,0c0.5,0,1-0.1,1.5-0.1c0.5,0,1,0,1.4-0.1c0.5,0,1,0,1.5,0l1.8,0c0.6,0,1.3,0,1.9,0v3.5l-3.4,0v3.1h3.4v3.5
			c-0.5,0-1.1,0-1.6,0c-0.6,0-1.2-0.1-1.8-0.1v4.1c-0.7,0.1-1.3,0.2-2,0.3h-1c-0.7,0-1.4-0.1-2-0.3V93.9L49.2,93.9z"/>
		<path fill-rule="evenodd" clip-rule="evenodd" fill="#FFFFFF" d="M71.9,93.8v13.9c0.6,0.1,1.3,0.2,2,0.3h1c0.7,0,1.3-0.1,2-0.3
			l8.2-7.6c0.3-0.3,0.5-0.5,0.7-0.8c0,0.2,0,0.4,0,0.6v7.8c0.6,0.1,1.3,0.2,2,0.3h1c0.7,0,1.3-0.1,2-0.3h0V93.8
			c-0.6-0.1-1.3-0.2-2-0.3h-1c-0.7,0-1.3,0.1-2,0.3l-8.1,7.5c-0.3,0.3-0.6,0.6-0.8,0.9c0-0.2,0-0.5,0-0.7v-7.7
			c-0.6-0.1-1.3-0.2-2-0.3h-1C73.2,93.6,72.5,93.7,71.9,93.8z"/>
		<path fill-rule="evenodd" clip-rule="evenodd" fill="#FFFFFF" d="M95.4,93.8l4.9,8.2c0.2,0.3,0.4,0.6,0.6,0.9
			c0.3,0.3,0.6,0.5,1,0.6c0.8,0.3,1.6,0.2,2.4,0.1l-0.2,0.2c-0.1,0.2-0.3,0.3-0.5,0.5c-0.2,0.1-0.4,0.2-0.5,0.3
			c-0.3,0.1-0.6,0.1-0.9,0.1c-0.5,0-0.9,0-1.4,0l-0.5,0c-1.2,0.6-2,1.7-2.5,2.9l0.4,0.1c0.4,0.1,0.8,0.1,1.1,0.1
			c0.4,0,0.9,0.1,1.4,0.1c0.5,0,0.9,0.1,1.4,0.1c0.4,0,0.8,0,1.2,0c0.7,0,1.4-0.1,2.1-0.3c0.6-0.2,1.1-0.4,1.6-0.8
			c0.5-0.3,0.9-0.7,1.2-1.2c0.4-0.5,0.6-1,0.9-1.5l6-10.3c-0.7-0.1-1.4-0.2-2.1-0.3h-1.1c-0.7,0-1.4,0.1-2.1,0.3l-3.5,5.9l-2.1,0
			c-0.1,0-0.2,0-0.3,0l-0.1,0l-3.3-5.8c-0.7-0.1-1.4-0.2-2.1-0.3h-1.1C96.8,93.6,96.1,93.7,95.4,93.8z"/>
		<path fill-rule="evenodd" clip-rule="evenodd" fill="#FFFFFF" d="M119.6,97.5c-0.4,1-0.5,2.2-0.5,3.3c0,1.1,0.1,2.3,0.5,3.3
			c0.4,0.9,0.9,1.7,1.7,2.3c0.9,0.6,2,1,3,1.2c1.4,0.3,2.9,0.4,4.4,0.4c0.7,0,1.4,0,2.2,0c0.6,0,1.2,0,1.8-0.1
			c0.5,0,1.1-0.1,1.6-0.2c0.5-0.1,1-0.2,1.5-0.3l0.4-0.1c-0.4-1.3-1.4-2.3-2.6-3c-0.4,0-0.8,0-1.2,0c-0.6,0-1.1,0-1.7,0l-2,0
			c-0.7,0-1.5,0-2.2-0.2c-0.5-0.1-0.9-0.3-1.3-0.6c-0.3-0.3-0.5-0.7-0.6-1.1c-0.2-0.6-0.2-1.2-0.2-1.9c0-0.6,0-1.3,0.2-1.9
			c0.1-0.4,0.3-0.8,0.6-1.1c0.4-0.3,0.8-0.5,1.3-0.6c0.7-0.1,1.5-0.2,2.2-0.2c0.6,0,1.2,0,1.9,0l1.5,0l1,0c1.3-0.6,2.2-1.7,2.7-3
			l-0.4-0.1c-0.5-0.1-1-0.1-1.5-0.2c-0.5-0.1-1-0.1-1.5-0.1c-0.6,0-1.1-0.1-1.7-0.1c-0.7,0-1.4,0-2.1,0c-1.5,0-3,0.1-4.4,0.4
			c-1.1,0.2-2.1,0.6-3,1.2C120.5,95.8,119.9,96.6,119.6,97.5z"/>
	</g>
	<path fill-rule="evenodd" clip-rule="evenodd" fill="#2A2A36" d="M58.8,55.5c-2.9-7.5-7.7-13.6-13.6-17.3
		c5.9-3.7,10.7-9.8,13.6-17.3c2.9,7.5,7.7,13.6,13.6,17.3c8.1,4,14.2,10.9,17.2,19.2c-6.2,4.8-14.6,7.8-24,7.8
		c-18.8,0-34.1-12.1-34.1-26.9s15.3-26.9,34.1-26.9c9.3,0,17.8,3,24,7.8c-3,8.2-9,15.2-17.2,19.2C66.5,41.9,61.7,48,58.8,55.5z"/>
	<radialGradient id="SVGID_1_" cx="66.6581" cy="28.3213" r="21.0802" fx="65.8684" fy="28.3231" gradientUnits="userSpaceOnUse">
		<stop  offset="0" style="stop-color:#FFFFFF"/>
		<stop  offset="0.2163" style="stop-color:#F8F9FC"/>
		<stop  offset="0.4405" style="stop-color:#EBEDF3"/>
		<stop  offset="0.6683" style="stop-color:#D6DDE8"/>
		<stop  offset="0.8972" style="stop-color:#BAC7DA"/>
		<stop  offset="1" style="stop-color:#ADBCD3"/>
	</radialGradient>
	<path fill-rule="evenodd" clip-rule="evenodd" fill="url(#SVGID_1_)" d="M58.8,55.5c-2.9-7.5-7.7-13.6-13.6-17.3
		c5.9-3.7,10.7-9.8,13.6-17.3c2.9,7.5,7.7,13.6,13.6,17.3C66.5,41.9,61.7,48,58.8,55.5z"/>
	<radialGradient id="SVGID_2_" cx="30.071" cy="73.2447" r="34.9595" gradientUnits="userSpaceOnUse">
		<stop  offset="0" style="stop-color:#ECC573"/>
		<stop  offset="1" style="stop-color:#B6884A"/>
	</radialGradient>
	<path fill-rule="evenodd" clip-rule="evenodd" fill="url(#SVGID_2_)" d="M100.5,61.3c-19.2,16.4-56.3,15-70.9-6.5l-10.3,4.4
		C28.6,70,44.6,77,62.7,76.4C78,75.9,91.5,70,100.5,61.3z"/>
	<radialGradient id="SVGID_3_" cx="87.2646" cy="-1.8669" r="31.4126" gradientUnits="userSpaceOnUse">
		<stop  offset="0" style="stop-color:#ECC573"/>
		<stop  offset="1" style="stop-color:#B6884A"/>
	</radialGradient>
	<path fill-rule="evenodd" clip-rule="evenodd" fill="url(#SVGID_3_)" d="M68.6,4.2c15.9,0,30.5,6.9,38,17.9l11.5-4.9
		C108.8,6.4,92.7-0.6,74.7,0C59.4,0.5,45.9,6.4,36.9,15.1C44.8,8.4,56.1,4.2,68.6,4.2z"/>
	<radialGradient id="SVGID_4_" cx="83.9638" cy="27.736" r="22.3179" gradientUnits="userSpaceOnUse">
		<stop  offset="0" style="stop-color:#ECC573"/>
		<stop  offset="1" style="stop-color:#B6884A"/>
	</radialGradient>
	<path fill-rule="evenodd" clip-rule="evenodd" fill="url(#SVGID_4_)" d="M80.9,38.2c5.4,3.3,9.8,8.9,12.4,15.7
		c2.6-6.8,7-12.4,12.4-15.7c-5.4-3.3-9.8-8.9-12.4-15.7C90.7,29.4,86.3,34.9,80.9,38.2z"/>
	<radialGradient id="SVGID_5_" cx="113.6364" cy="31.0462" r="11.382" gradientUnits="userSpaceOnUse">
		<stop  offset="0" style="stop-color:#ECC573"/>
		<stop  offset="1" style="stop-color:#B6884A"/>
	</radialGradient>
	<path fill-rule="evenodd" clip-rule="evenodd" fill="url(#SVGID_5_)" d="M111.7,38.2c3.2,2,5.9,5.3,7.4,9.4
		c1.6-4.1,4.2-7.4,7.4-9.4c-3.2-2-5.9-5.3-7.4-9.4C117.6,32.9,114.9,36.2,111.7,38.2z"/>
	
		<radialGradient id="SVGID_6_" cx="101.2496" cy="370.3094" r="12.5858" fx="101.0176" fy="370.3032" gradientTransform="matrix(1 0 0 0.9629 0 -304.6693)" gradientUnits="userSpaceOnUse">
		<stop  offset="0" style="stop-color:#ECC573"/>
		<stop  offset="1" style="stop-color:#B6884A"/>
	</radialGradient>
	<path fill-rule="evenodd" clip-rule="evenodd" fill="url(#SVGID_6_)" d="M103.3,57.4c2.3,1.4,4.2,3.8,5.4,6.8c1.1-3,3-5.3,5.4-6.8
		c-2.3-1.4-4.2-3.8-5.4-6.8C107.6,53.6,105.7,56,103.3,57.4z"/>
	<radialGradient id="SVGID_7_" cx="30.7105" cy="23.8382" r="19.0071" gradientUnits="userSpaceOnUse">
		<stop  offset="0" style="stop-color:#ECC573"/>
		<stop  offset="1" style="stop-color:#B6884A"/>
	</radialGradient>
	<path fill-rule="evenodd" clip-rule="evenodd" fill="url(#SVGID_7_)" d="M32.9,19.1c-1.9-1.2-3.5-3.2-4.5-5.7
		c-0.9,2.5-2.5,4.5-4.5,5.7c1.9,1.2,3.5,3.2,4.5,5.7C29.4,22.3,31,20.3,32.9,19.1z"/>
	<radialGradient id="SVGID_8_" cx="22.4606" cy="43.9689" r="12.7894" gradientUnits="userSpaceOnUse">
		<stop  offset="0" style="stop-color:#ECC573"/>
		<stop  offset="1" style="stop-color:#B6884A"/>
	</radialGradient>
	<path fill-rule="evenodd" clip-rule="evenodd" fill="url(#SVGID_8_)" d="M25.5,38.2c-3.2,2-5.9,5.3-7.4,9.4
		c-1.6-4.1-4.2-7.4-7.4-9.4c3.2-2,5.9-5.3,7.4-9.4C19.6,32.9,22.2,36.2,25.5,38.2z"/>
</g>
</svg>
