<?xml version="1.0" encoding="utf-8"?>
<!-- Generator: Adobe Illustrator 18.0.0, SVG Export Plug-In . SVG Version: 6.00 Build 0)  -->
<!DOCTYPE svg PUBLIC "-//W3C//DTD SVG 1.1//EN" "http://www.w3.org/Graphics/SVG/1.1/DTD/svg11.dtd">
<svg version="1.1" id="Слой_1" xmlns="http://www.w3.org/2000/svg" xmlns:xlink="http://www.w3.org/1999/xlink" x="0px" y="0px"
	 viewBox="0 0 55.9 51.1" enable-background="new 0 0 55.9 51.1" xml:space="preserve">
<g>
	<g>
		<g>
			<path fill="#CFCFCE" d="M0.6,20.7c6.5,4.3,11,10.4,13.9,17.6c0.5,1.2,1.9,1.2,2.4,0c2.9-7.2,7.4-13.4,13.9-17.6
				c0.8-0.5,0.8-1.6,0-2.2c-6.5-4.3-11-10.4-13.9-17.6c-0.5-1.2-1.9-1.2-2.4,0C11.6,8.1,7.1,14.3,0.6,18.5c-1.3,0.9-0.1,3,1.3,2.2
				C9,16,13.7,9.4,16.9,1.6c-0.8,0-1.6,0-2.4,0c3.2,7.8,7.9,14.5,15.1,19.1c0-0.7,0-1.4,0-2.2c-7.1,4.6-11.9,11.3-15.1,19.1
				c0.8,0,1.6,0,2.4,0C13.7,29.8,9,23.1,1.8,18.5C0.5,17.6-0.8,19.8,0.6,20.7z"/>
		</g>
	</g>
	<g>
		<g>
			<path fill="#CFCFCE" d="M36.6,20.7c3.8,2.5,6.4,6.1,8.1,10.3c0.5,1.2,1.9,1.2,2.4,0c1.7-4.2,4.3-7.7,8.1-10.3
				c0.8-0.5,0.8-1.6,0-2.2c-3.8-2.5-6.4-6.1-8.1-10.3c-0.5-1.2-1.9-1.2-2.4,0c-1.7,4.2-4.3,7.7-8.1,10.3c-1.3,0.9-0.1,3.1,1.3,2.2
				c4.4-2.9,7.3-6.9,9.3-11.8c-0.8,0-1.6,0-2.4,0c2,4.8,4.9,8.8,9.3,11.8c0-0.7,0-1.4,0-2.2c-4.4,2.9-7.3,6.9-9.3,11.8
				c0.8,0,1.6,0,2.4,0c-2-4.8-4.9-8.8-9.3-11.8C36.5,17.6,35.3,19.8,36.6,20.7z"/>
		</g>
	</g>
	<g>
		<g>
			<path fill="#CFCFCE" d="M26.8,43.1c2.7,1.8,4.5,4.2,5.7,7.2c0.5,1.2,1.9,1.2,2.4,0c1.2-2.9,3-5.4,5.7-7.2c0.8-0.5,0.8-1.6,0-2.2
				c-2.7-1.8-4.5-4.2-5.7-7.2c-0.5-1.2-1.9-1.2-2.4,0c-1.2,2.9-3,5.4-5.7,7.2c-1.3,0.9-0.1,3.1,1.3,2.2c3.3-2.2,5.4-5.1,6.8-8.7
				c-0.8,0-1.6,0-2.4,0c1.5,3.6,3.6,6.5,6.8,8.7c0-0.7,0-1.4,0-2.2c-3.2,2.2-5.4,5.1-6.8,8.7c0.8,0,1.6,0,2.4,0
				c-1.5-3.6-3.6-6.5-6.8-8.7C26.7,40,25.5,42.2,26.8,43.1z"/>
		</g>
	</g>
</g>
</svg>
