<?xml version="1.0" encoding="utf-8"?>
<!-- Generator: Adobe Illustrator 18.0.0, SVG Export Plug-In . SVG Version: 6.00 Build 0)  -->
<!DOCTYPE svg PUBLIC "-//W3C//DTD SVG 1.1//EN" "http://www.w3.org/Graphics/SVG/1.1/DTD/svg11.dtd">
<svg version="1.1" id="Слой_1" xmlns="http://www.w3.org/2000/svg" xmlns:xlink="http://www.w3.org/1999/xlink" x="0px" y="0px"
	 viewBox="0 0 36 46.4" enable-background="new 0 0 36 46.4" xml:space="preserve">
<g>
	<path fill="#C0924B" d="M35.6,9.8l-9.3-9.3C26,0.2,25.6,0,25.2,0H2C1,0,0,0.7,0,2.3v42.5c0,0.7,0.7,1.3,1.5,1.5c0,0,0.1,0,0.1,0
		c0.1,0,0.3,0,0.4,0H34c0.1,0,0.3,0,0.4,0c0,0,0.1,0,0.1,0c0.8-0.2,1.5-0.9,1.5-1.5V11.2C36,10.6,35.9,10.1,35.6,9.8L35.6,9.8z
		 M33.1,9.6h-6.8V2.9L33.1,9.6z M2,44.8c-0.1,0-0.1,0-0.2,0c-0.1-0.1-0.2-0.2-0.2-0.3V32.8h32.8v11.6c0,0.1-0.1,0.3-0.2,0.3
		c-0.1,0-0.1,0-0.2,0H2z M1.6,31.2V2.3c0-0.2,0-0.7,0.4-0.7h22.9c0,0.1,0,0.2,0,0.3v9.3h9.3c0.1,0,0.2,0,0.3,0c0,0,0,0,0,0v20H1.6z
		 M1.6,31.2"/>
	<path fill="#C0924B" d="M12.4,35.8c-0.3-0.2-0.6-0.4-0.9-0.5c-0.3-0.1-0.7-0.2-1-0.2H8.2v8.1h1.3v-2.9h1c0.4,0,0.8-0.1,1.2-0.2
		c0.4-0.1,0.6-0.3,0.9-0.5c0.2-0.2,0.4-0.5,0.6-0.8c0.1-0.3,0.2-0.7,0.2-1.1c0-0.4-0.1-0.7-0.2-1C12.9,36.3,12.7,36,12.4,35.8
		L12.4,35.8z M11.9,38.5c-0.1,0.2-0.2,0.4-0.3,0.5c-0.1,0.1-0.3,0.2-0.4,0.3c-0.2,0.1-0.3,0.1-0.5,0.1H9.5v-3.2h1
		c0.3,0,0.6,0.1,0.8,0.2c0.2,0.1,0.4,0.2,0.5,0.4c0.1,0.2,0.2,0.3,0.2,0.5c0,0.2,0.1,0.3,0.1,0.5C12.1,38,12,38.2,11.9,38.5
		L11.9,38.5z M11.9,38.5"/>
	<path fill="#C0924B" d="M20.4,36.3c-0.3-0.4-0.8-0.6-1.3-0.9c-0.5-0.2-1.1-0.3-1.8-0.3h-2.4v8.1h3.1c0.1,0,0.3,0,0.5,0
		c0.2,0,0.4-0.1,0.7-0.2c0.3-0.1,0.5-0.2,0.8-0.4c0.3-0.2,0.5-0.4,0.7-0.7c0.2-0.3,0.4-0.7,0.5-1.2c0.1-0.5,0.2-1,0.2-1.7
		c0-0.5-0.1-1-0.2-1.4C21,37.1,20.7,36.7,20.4,36.3L20.4,36.3z M19.4,41.4c-0.4,0.6-1,0.9-1.9,0.9h-1.3v-6.1h0.8
		c0.6,0,1.1,0.1,1.5,0.2c0.4,0.2,0.7,0.4,0.9,0.6c0.2,0.3,0.4,0.6,0.5,0.9c0.1,0.3,0.1,0.7,0.1,1C20,40,19.8,40.8,19.4,41.4
		L19.4,41.4z M19.4,41.4"/>
	<path fill="#C0924B" d="M23.3,43.2h1.3v-3.6H28v-0.9h-3.4v-2.5h3.7v-1h-5V43.2z M23.3,43.2"/>
	<path fill="#C0924B" d="M25.5,18.4c-0.7,0-1.6,0.1-2.7,0.3c-1.5-1.6-3-3.8-4.1-6.1c1.1-4.5,0.5-5.1,0.3-5.4c-0.3-0.3-0.6-0.8-1-0.8
		c-0.2,0-0.6,0.1-0.8,0.1c-0.5,0.2-0.7,0.5-0.9,1c-0.6,1.3,0.2,3.6,1,5.3c-0.7,2.7-1.8,6-3,8.6c-3,1.4-4.6,2.8-4.8,4.1
		c-0.1,0.5,0.1,1.2,0.9,1.8c0.2,0.2,0.5,0.3,0.8,0.3c0.7,0,1.4-0.5,2.2-1.7c0.6-0.8,1.2-2,1.9-3.4c2.1-0.9,4.8-1.8,7.1-2.3
		c1.3,1.2,2.4,1.8,3.4,1.8c0.7,0,1.3-0.3,1.8-1c0.5-0.6,0.6-1.2,0.3-1.7C27.6,18.7,26.8,18.4,25.5,18.4L25.5,18.4z M11.2,26.1
		c-0.4-0.3-0.4-0.5-0.3-0.5c0.1-0.4,0.7-1.2,2.5-2.2C12,25.8,11.3,26.1,11.2,26.1L11.2,26.1z M17.8,7.8c0,0,0.8,0.9,0.1,2.6
		C16.7,9.2,17.7,7.8,17.8,7.8L17.8,7.8z M16.1,20.6c0.8-1.9,1.6-4.1,2.1-6.1c0.9,1.6,2,3.2,3.1,4.4C19.6,19.4,17.8,19.9,16.1,20.6
		L16.1,20.6z M26.5,20.2c-0.2,0.3-0.8,0.4-1,0.4c-0.4,0-0.6-0.3-1.2-0.8c0.5-0.1,1-0.1,1.4-0.1c0.7,0,0.8,0.1,0.9,0.2
		C26.6,19.9,26.6,20,26.5,20.2L26.5,20.2z M26.5,20.2"/>
</g>
</svg>
