<?xml version="1.0" encoding="utf-8"?>
<!-- Generator: Adobe Illustrator 18.0.0, SVG Export Plug-In . SVG Version: 6.00 Build 0)  -->
<!DOCTYPE svg PUBLIC "-//W3C//DTD SVG 1.1//EN" "http://www.w3.org/Graphics/SVG/1.1/DTD/svg11.dtd">
<svg version="1.1" id="Слой_1" xmlns="http://www.w3.org/2000/svg" xmlns:xlink="http://www.w3.org/1999/xlink" x="0px" y="0px"
	 viewBox="0 0 52.8 54.3" enable-background="new 0 0 52.8 54.3" xml:space="preserve">
<g>
	<path fill="#2A2A36" d="M45.7,7.1C41.1,2.5,35,0,28.5,0c-1.1,0-1.9,0.9-1.9,1.9c0,1.1,0.9,1.9,1.9,1.9C34,3.9,39.1,6,43,9.8
		c3.9,3.9,6,9,6,14.5c0,1.1,0.9,1.9,1.9,1.9c1.1,0,1.9-0.9,1.9-1.9C52.8,17.8,50.3,11.7,45.7,7.1L45.7,7.1z M45.7,7.1"/>
	<path fill="#2A2A36" d="M37.8,24.3c0,1.1,0.9,1.9,1.9,1.9c1.1,0,1.9-0.9,1.9-1.9c0-7.2-5.9-13.1-13.1-13.1c-1.1,0-1.9,0.9-1.9,1.9
		c0,1.1,0.9,1.9,1.9,1.9C33.6,15,37.8,19.2,37.8,24.3L37.8,24.3z M37.8,24.3"/>
	<path fill="#2A2A36" d="M33.5,34.1c-2.9-0.2-4.4,2-5.1,3.1c-0.6,0.9-0.4,2.1,0.5,2.7c0.9,0.6,2.1,0.4,2.7-0.5
		c0.8-1.2,1.2-1.4,1.8-1.4c1.7,0.2,8.2,5,8.9,6.5c0.2,0.4,0.2,0.9,0,1.4c-0.7,2-1.8,3.5-3.3,4.2c-1.4,0.6-3.1,0.6-5-0.2
		c-6.9-2.8-12.9-6.7-17.9-11.6c0,0,0,0,0,0c-4.9-5-8.8-11-11.6-17.8c-0.7-1.8-0.8-3.6-0.2-5C5,14,6.4,12.9,8.5,12.2
		c0.5-0.2,1-0.2,1.4,0c1.5,0.7,6.3,7.2,6.5,8.9c0,0.5-0.2,0.9-1.4,1.8c-0.9,0.6-1.1,1.8-0.5,2.7c0.6,0.9,1.8,1.1,2.7,0.5
		c1-0.7,3.2-2.2,3.1-5.2c-0.2-3.1-6.2-11.2-9-12.3c-1.3-0.5-2.6-0.5-4,0c-3.1,1-5.3,2.9-6.4,5.3c-1.1,2.4-1.1,5.2,0.1,8
		c3,7.3,7.2,13.8,12.5,19.1c0,0,0,0,0,0c5.3,5.3,11.7,9.4,19.1,12.4c1.5,0.6,2.9,0.9,4.3,0.9c1.3,0,2.6-0.3,3.7-0.8
		c2.5-1.1,4.3-3.4,5.3-6.4c0.5-1.4,0.5-2.7,0-4C44.8,40.3,36.6,34.3,33.5,34.1L33.5,34.1z M33.5,34.1"/>
</g>
</svg>
