<?xml version="1.0" encoding="utf-8"?>
<!-- Generator: Adobe Illustrator 18.0.0, SVG Export Plug-In . SVG Version: 6.00 Build 0)  -->
<!DOCTYPE svg PUBLIC "-//W3C//DTD SVG 1.1//EN" "http://www.w3.org/Graphics/SVG/1.1/DTD/svg11.dtd">
<svg version="1.1" id="Слой_1" xmlns="http://www.w3.org/2000/svg" xmlns:xlink="http://www.w3.org/1999/xlink" x="0px" y="0px"
	 viewBox="0 0 36 46.4" enable-background="new 0 0 36 46.4" xml:space="preserve">
<g>
	<path fill="#C0924B" d="M35.6,9.8l-0.6-0.6l-8.1-8.1v0l-0.6-0.6C26,0.2,25.6,0,25.2,0H2C0.9,0,0,0.9,0,2v42.5c0,1.1,0.9,2,2,2H34
		c1.1,0,2-0.9,2-2V10.8C36,10.4,35.8,10,35.6,9.8L35.6,9.8z M33.1,9.6h-6.8V2.9L33.1,9.6z M34.4,44.4c0,0.2-0.2,0.4-0.4,0.4H2
		c-0.2,0-0.4-0.2-0.4-0.4V32.8h32.8V44.4z M1.6,31.2V2c0-0.2,0.2-0.4,0.4-0.4h22.9c0,0.1,0,0.2,0,0.3v9.3h9.3c0.1,0,0.2,0,0.3,0v20
		H1.6z M1.6,31.2"/>
	<path fill="#C0924B" d="M9.7,40.3h1c0.4,0,0.8-0.1,1.2-0.2c0.4-0.1,0.6-0.3,0.9-0.5c0.2-0.2,0.4-0.5,0.6-0.8
		c0.1-0.3,0.2-0.7,0.2-1.1c0-0.4-0.1-0.7-0.2-1c-0.2-0.3-0.4-0.6-0.6-0.8c-0.3-0.2-0.6-0.4-0.9-0.5c-0.3-0.1-0.7-0.2-1-0.2H8.4v8.1
		h1.3V40.3z M9.7,36.1h1c0.3,0,0.6,0.1,0.8,0.2c0.2,0.1,0.4,0.2,0.5,0.4c0.1,0.2,0.2,0.3,0.2,0.5c0,0.2,0.1,0.3,0.1,0.5
		c0,0.3,0,0.6-0.1,0.8c-0.1,0.2-0.2,0.4-0.3,0.5c-0.1,0.1-0.3,0.2-0.4,0.3c-0.2,0.1-0.3,0.1-0.5,0.1H9.7V36.1z M9.7,36.1"/>
	<path fill="#C0924B" d="M16.3,40.3h1c0.4,0,0.8-0.1,1.2-0.2c0.4-0.1,0.6-0.3,0.9-0.5c0.2-0.2,0.4-0.5,0.6-0.8
		c0.1-0.3,0.2-0.7,0.2-1.1c0-0.4-0.1-0.7-0.2-1c-0.2-0.3-0.4-0.6-0.6-0.8c-0.3-0.2-0.6-0.4-0.9-0.5c-0.3-0.1-0.7-0.2-1-0.2H15v8.1
		h1.3V40.3z M16.3,36.1h1c0.3,0,0.6,0.1,0.8,0.2c0.2,0.1,0.4,0.2,0.5,0.4c0.1,0.2,0.2,0.3,0.2,0.5c0,0.2,0.1,0.3,0.1,0.5
		c0,0.3,0,0.6-0.1,0.8c-0.1,0.2-0.2,0.4-0.3,0.5c-0.1,0.1-0.3,0.2-0.4,0.3s-0.3,0.1-0.5,0.1h-1.2V36.1z M16.3,36.1"/>
	<path fill="#C0924B" d="M23.6,43.2h1.3V36h2.4v-0.9h-6.1V36h2.4V43.2z M23.6,43.2"/>
	<path fill="#C0924B" d="M12,15.2c0,0.4-0.4,0.8-0.8,0.8c-0.4,0-0.8-0.4-0.8-0.8c0-0.4,0.4-0.8,0.8-0.8C11.6,14.4,12,14.8,12,15.2
		L12,15.2z M12,15.2"/>
	<path fill="#C0924B" d="M12,21.6c0,0.4-0.4,0.8-0.8,0.8c-0.4,0-0.8-0.4-0.8-0.8c0-0.4,0.4-0.8,0.8-0.8C11.6,20.8,12,21.2,12,21.6
		L12,21.6z M12,21.6"/>
	<path fill="#C0924B" d="M12,18.4c0,0.4-0.4,0.8-0.8,0.8c-0.4,0-0.8-0.4-0.8-0.8c0-0.4,0.4-0.8,0.8-0.8C11.6,17.6,12,18,12,18.4
		L12,18.4z M12,18.4"/>
	<path fill="#C0924B" d="M13.6,16.8c0,0.4-0.4,0.8-0.8,0.8c-0.4,0-0.8-0.4-0.8-0.8c0-0.4,0.4-0.8,0.8-0.8
		C13.2,16,13.6,16.4,13.6,16.8L13.6,16.8z M13.6,16.8"/>
	<path fill="#C0924B" d="M15.2,15.2c0,0.4-0.4,0.8-0.8,0.8c-0.4,0-0.8-0.4-0.8-0.8c0-0.4,0.4-0.8,0.8-0.8
		C14.8,14.4,15.2,14.8,15.2,15.2L15.2,15.2z M15.2,15.2"/>
	<path fill="#C0924B" d="M13.6,20c0,0.4-0.4,0.8-0.8,0.8c-0.4,0-0.8-0.4-0.8-0.8s0.4-0.8,0.8-0.8C13.2,19.2,13.6,19.6,13.6,20
		L13.6,20z M13.6,20"/>
	<path fill="#C0924B" d="M15.2,21.6c0,0.4-0.4,0.8-0.8,0.8c-0.4,0-0.8-0.4-0.8-0.8c0-0.4,0.4-0.8,0.8-0.8
		C14.8,20.8,15.2,21.2,15.2,21.6L15.2,21.6z M15.2,21.6"/>
	<path fill="#C0924B" d="M15.2,18.4c0,0.4-0.4,0.8-0.8,0.8c-0.4,0-0.8-0.4-0.8-0.8c0-0.4,0.4-0.8,0.8-0.8
		C14.8,17.6,15.2,18,15.2,18.4L15.2,18.4z M15.2,18.4"/>
	<path fill="#C0924B" d="M16.8,16.8c0,0.4-0.4,0.8-0.8,0.8s-0.8-0.4-0.8-0.8c0-0.4,0.4-0.8,0.8-0.8S16.8,16.4,16.8,16.8L16.8,16.8z
		 M16.8,16.8"/>
	<path fill="#C0924B" d="M18.4,15.2c0,0.4-0.4,0.8-0.8,0.8c-0.4,0-0.8-0.4-0.8-0.8c0-0.4,0.4-0.8,0.8-0.8
		C18,14.4,18.4,14.8,18.4,15.2L18.4,15.2z M18.4,15.2"/>
	<path fill="#C0924B" d="M16.8,20c0,0.4-0.4,0.8-0.8,0.8s-0.8-0.4-0.8-0.8s0.4-0.8,0.8-0.8S16.8,19.6,16.8,20L16.8,20z M16.8,20"/>
	<path fill="#C0924B" d="M18.4,21.6c0,0.4-0.4,0.8-0.8,0.8c-0.4,0-0.8-0.4-0.8-0.8c0-0.4,0.4-0.8,0.8-0.8
		C18,20.8,18.4,21.2,18.4,21.6L18.4,21.6z M18.4,21.6"/>
	<path fill="#C0924B" d="M18.4,18.4c0,0.4-0.4,0.8-0.8,0.8c-0.4,0-0.8-0.4-0.8-0.8c0-0.4,0.4-0.8,0.8-0.8C18,17.6,18.4,18,18.4,18.4
		L18.4,18.4z M18.4,18.4"/>
	<path fill="#C0924B" d="M20,16.8c0,0.4-0.4,0.8-0.8,0.8c-0.4,0-0.8-0.4-0.8-0.8c0-0.4,0.4-0.8,0.8-0.8C19.6,16,20,16.4,20,16.8
		L20,16.8z M20,16.8"/>
	<path fill="#C0924B" d="M21.6,15.2c0,0.4-0.4,0.8-0.8,0.8c-0.4,0-0.8-0.4-0.8-0.8c0-0.4,0.4-0.8,0.8-0.8
		C21.2,14.4,21.6,14.8,21.6,15.2L21.6,15.2z M21.6,15.2"/>
	<path fill="#C0924B" d="M20,20c0,0.4-0.4,0.8-0.8,0.8c-0.4,0-0.8-0.4-0.8-0.8s0.4-0.8,0.8-0.8C19.6,19.2,20,19.6,20,20L20,20z
		 M20,20"/>
	<path fill="#C0924B" d="M21.6,21.6c0,0.4-0.4,0.8-0.8,0.8c-0.4,0-0.8-0.4-0.8-0.8c0-0.4,0.4-0.8,0.8-0.8
		C21.2,20.8,21.6,21.2,21.6,21.6L21.6,21.6z M21.6,21.6"/>
	<path fill="#C0924B" d="M21.6,18.4c0,0.4-0.4,0.8-0.8,0.8c-0.4,0-0.8-0.4-0.8-0.8c0-0.4,0.4-0.8,0.8-0.8
		C21.2,17.6,21.6,18,21.6,18.4L21.6,18.4z M21.6,18.4"/>
	<path fill="#C0924B" d="M23.2,16.8c0,0.4-0.4,0.8-0.8,0.8c-0.4,0-0.8-0.4-0.8-0.8c0-0.4,0.4-0.8,0.8-0.8
		C22.8,16,23.2,16.4,23.2,16.8L23.2,16.8z M23.2,16.8"/>
	<path fill="#C0924B" d="M24.8,15.2c0,0.4-0.4,0.8-0.8,0.8s-0.8-0.4-0.8-0.8c0-0.4,0.4-0.8,0.8-0.8S24.8,14.8,24.8,15.2L24.8,15.2z
		 M24.8,15.2"/>
	<path fill="#C0924B" d="M23.2,20c0,0.4-0.4,0.8-0.8,0.8c-0.4,0-0.8-0.4-0.8-0.8s0.4-0.8,0.8-0.8C22.8,19.2,23.2,19.6,23.2,20
		L23.2,20z M23.2,20"/>
	<path fill="#C0924B" d="M24.8,21.6c0,0.4-0.4,0.8-0.8,0.8s-0.8-0.4-0.8-0.8c0-0.4,0.4-0.8,0.8-0.8S24.8,21.2,24.8,21.6L24.8,21.6z
		 M24.8,21.6"/>
	<path fill="#C0924B" d="M24.8,18.4c0,0.4-0.4,0.8-0.8,0.8s-0.8-0.4-0.8-0.8c0-0.4,0.4-0.8,0.8-0.8S24.8,18,24.8,18.4L24.8,18.4z
		 M24.8,18.4"/>
	<path fill="#C0924B" d="M18.4,10.4c0-0.4-0.4-0.8-0.8-0.8c-0.4,0-0.8,0.4-0.8,0.8V12H8v12.8h5l-1.7,2.8c-0.2,0.4-0.1,0.9,0.3,1.1
		c0.1,0.1,0.3,0.1,0.4,0.1c0.3,0,0.5-0.1,0.7-0.4l2.2-3.6h5.5l2.2,3.6c0.1,0.2,0.4,0.4,0.7,0.4c0.1,0,0.3,0,0.4-0.1
		c0.4-0.2,0.5-0.7,0.3-1.1l-1.7-2.8h5V12h-8.8V10.4z M21.6,13.6c0,0.4,0.4,0.8,0.8,0.8c0.4,0,0.8-0.4,0.8-0.8h1.6
		c0,0.4,0.4,0.8,0.8,0.8V16c-0.4,0-0.8,0.4-0.8,0.8c0,0.4,0.4,0.8,0.8,0.8v1.6c-0.4,0-0.8,0.4-0.8,0.8s0.4,0.8,0.8,0.8v1.6
		c-0.4,0-0.8,0.4-0.8,0.8h-1.6c0-0.4-0.4-0.8-0.8-0.8c-0.4,0-0.8,0.4-0.8,0.8H20c0-0.4-0.4-0.8-0.8-0.8c-0.4,0-0.8,0.4-0.8,0.8h-1.6
		c0-0.4-0.4-0.8-0.8-0.8s-0.8,0.4-0.8,0.8h-1.6c0-0.4-0.4-0.8-0.8-0.8c-0.4,0-0.8,0.4-0.8,0.8h-1.6c0-0.4-0.4-0.8-0.8-0.8v-1.6
		c0.4,0,0.8-0.4,0.8-0.8s-0.4-0.8-0.8-0.8v-1.6c0.4,0,0.8-0.4,0.8-0.8c0-0.4-0.4-0.8-0.8-0.8v-1.6c0.4,0,0.8-0.4,0.8-0.8H12
		c0,0.4,0.4,0.8,0.8,0.8c0.4,0,0.8-0.4,0.8-0.8h1.6c0,0.4,0.4,0.8,0.8,0.8s0.8-0.4,0.8-0.8h1.6c0,0.4,0.4,0.8,0.8,0.8
		c0.4,0,0.8-0.4,0.8-0.8H21.6z M21.6,13.6"/>
</g>
</svg>
