<?xml version="1.0" encoding="utf-8"?>
<!-- Generator: Adobe Illustrator 18.0.0, SVG Export Plug-In . SVG Version: 6.00 Build 0)  -->
<!DOCTYPE svg PUBLIC "-//W3C//DTD SVG 1.1//EN" "http://www.w3.org/Graphics/SVG/1.1/DTD/svg11.dtd">
<svg version="1.1" id="Слой_1" xmlns="http://www.w3.org/2000/svg" xmlns:xlink="http://www.w3.org/1999/xlink" x="0px" y="0px"
	 viewBox="0 0 40.9 40.9" enable-background="new 0 0 40.9 40.9" xml:space="preserve">
<path fill="none" stroke="#3C3E59" stroke-width="1.5" stroke-miterlimit="10" d="M40.1,18.9c0-0.2,0-0.3,0-0.5
	c-0.3-3-1.3-5.8-2.8-8.3c-3.5-5.6-9.7-9.4-16.8-9.4h0c-0.5,0-1,0-1.5,0.1c-0.1,0-0.3,0-0.5,0c-3,0.3-5.8,1.3-8.3,2.8
	c-5.6,3.5-9.4,9.7-9.4,16.8v0c0,0.5,0,1,0.1,1.6c0,0.1,0,0.3,0,0.5c0.3,3,1.3,5.8,2.8,8.3c3.5,5.6,9.7,9.4,16.8,9.4h0
	c0.5,0,1,0,1.6-0.1c0.1,0,0.3,0,0.5,0c3-0.3,5.8-1.3,8.3-2.8c5.6-3.5,9.4-9.7,9.4-16.8v0C40.2,19.9,40.1,19.4,40.1,18.9z"/>
<path fill="none" stroke="#3C3E59" stroke-width="1.5" stroke-miterlimit="10" d="M28.1,37.1c-0.2,0.1-0.4,0.2-0.5,0.2
	c-0.1,0-0.1,0.1-0.2,0.1c-1,0.4-2.1,0.8-3.2,1l0,0c-1.2,0.2-2.4,0.4-3.7,0.4c-7.4,0-13.7-4.4-16.6-10.7c-0.1-0.2-0.2-0.4-0.2-0.5
	c0-0.1,0-0.1-0.1-0.2c-0.4-1-0.8-2.1-1-3.2h0c-0.2-1.2-0.4-2.4-0.4-3.7c0-7.4,4.4-13.7,10.7-16.7c0.2-0.1,0.3-0.2,0.5-0.2
	c0.1,0,0.1,0,0.2-0.1c1-0.4,2.1-0.8,3.2-1c1.2-0.2,2.4-0.4,3.7-0.4c7.4,0,13.7,4.4,16.7,10.7c0.1,0.2,0.2,0.4,0.2,0.5
	c0,0.1,0,0.1,0.1,0.2c0.4,1,0.8,2.1,1,3.2c0.2,1.2,0.4,2.4,0.4,3.7C38.8,27.8,34.4,34.2,28.1,37.1z"/>
<path fill="#3D3E5A" stroke="#3C3E59" stroke-width="1.5" stroke-miterlimit="10" d="M23.7,20.9L19,25.6c-0.1,0.1-0.3,0.2-0.5,0.2
	c-0.2,0-0.4-0.1-0.5-0.2c-0.3-0.3-0.3-0.7,0-1l4.2-4.3L18,16.2c-0.3-0.3-0.3-0.7,0-1c0.3-0.3,0.7-0.3,1,0l4.8,4.6
	C24,20.2,24,20.6,23.7,20.9z"/>
</svg>
