<?xml version="1.0" encoding="utf-8"?>
<!-- Generator: Adobe Illustrator 18.0.0, SVG Export Plug-In . SVG Version: 6.00 Build 0)  -->
<!DOCTYPE svg PUBLIC "-//W3C//DTD SVG 1.1//EN" "http://www.w3.org/Graphics/SVG/1.1/DTD/svg11.dtd">
<svg version="1.1" id="Слой_1" xmlns="http://www.w3.org/2000/svg" xmlns:xlink="http://www.w3.org/1999/xlink" x="0px" y="0px"
	 viewBox="0 0 17.1 17.1" enable-background="new 0 0 17.1 17.1" xml:space="preserve">
<g>
	<path fill="#C0924B" d="M8.6,17.1C3.8,17.1,0,13.3,0,8.6S3.8,0,8.6,0c4.7,0,8.6,3.8,8.6,8.6S13.3,17.1,8.6,17.1z M8.6,2.5
		c-3.3,0-6.1,2.7-6.1,6.1s2.7,6.1,6.1,6.1c3.3,0,6.1-2.7,6.1-6.1S11.9,2.5,8.6,2.5z M10,9.6C10,9.8,9.8,10,9.6,10H6.1
		c-0.2,0-0.4-0.2-0.4-0.4V8.9c0-0.2,0.2-0.4,0.4-0.4h2.5V4.6c0-0.2,0.2-0.4,0.4-0.4h0.7c0.2,0,0.4,0.2,0.4,0.4V9.6z"/>
</g>
</svg>
