<?xml version="1.0" encoding="utf-8"?>
<!-- Generator: Adobe Illustrator 18.0.0, SVG Export Plug-In . SVG Version: 6.00 Build 0)  -->
<!DOCTYPE svg PUBLIC "-//W3C//DTD SVG 1.1//EN" "http://www.w3.org/Graphics/SVG/1.1/DTD/svg11.dtd">
<svg version="1.1" id="Слой_1" xmlns="http://www.w3.org/2000/svg" xmlns:xlink="http://www.w3.org/1999/xlink" x="0px" y="0px"
	 viewBox="0 0 40.9 40.9" enable-background="new 0 0 40.9 40.9" xml:space="preserve">
<g>
	<path fill="#FFFFFF" stroke="#3C3E59" stroke-width="1.5" stroke-miterlimit="10" d="M34.1,34.6c3.6-3.5,5.9-8.4,6-13.8l0,0
		c0.1-7.4-3.8-13.8-9.8-17.3c-0.1-0.1-0.2-0.1-0.3-0.2c-0.1-0.1-0.3-0.1-0.4-0.2c-2.7-1.4-5.7-2.3-9-2.3c-5.4-0.1-10.4,2-14,5.5
		c-3.6,3.5-5.9,8.4-6,13.8l0,0C0.6,27.5,4.6,34,10.5,37.5c0.1,0.1,0.2,0.1,0.3,0.2c0.1,0.1,0.3,0.1,0.4,0.2c2.7,1.4,5.7,2.3,9,2.3
		C25.6,40.3,30.5,38.1,34.1,34.6z M10.6,35.9C5.4,32.6,2,26.8,2.1,20.2C2.3,10,10.7,1.9,20.8,2.1c3.5,0.1,6.8,1.1,9.5,2.9
		c5.2,3.3,8.6,9.2,8.5,15.8c-0.2,10.1-8.5,18.2-18.7,18C16.6,38.7,13.4,37.7,10.6,35.9z"/>
	<path fill="#FFFFFF" stroke="#3C3E59" stroke-width="1.5" stroke-miterlimit="10" d="M20.1,38.8c-3.5-0.1-6.8-1.1-9.5-2.9
		C5.4,32.6,2,26.8,2.1,20.2C2.3,10,10.7,1.9,20.8,2.1c3.5,0.1,6.8,1.1,9.5,2.9c5.2,3.3,8.6,9.2,8.5,15.8
		C38.6,30.9,30.3,39,20.1,38.8z"/>
	<path fill="#FFFFFF" stroke="#3C3E59" stroke-width="1.5" stroke-miterlimit="10" d="M20.4,18.7l4.2,4.2c0.3,0.3,0.7,0.3,1,0
		c0.3-0.3,0.3-0.7,0-1l-4.7-4.7c-0.3-0.3-0.7-0.3-1,0l-4.7,4.7C15.1,22,15,22.2,15,22.4c0,0.2,0.1,0.4,0.2,0.5c0.3,0.3,0.7,0.3,1,0
		L20.4,18.7z"/>
</g>
</svg>
