<?xml version="1.0" encoding="utf-8"?>
<!-- Generator: Adobe Illustrator 18.0.0, SVG Export Plug-In . SVG Version: 6.00 Build 0)  -->
<!DOCTYPE svg PUBLIC "-//W3C//DTD SVG 1.1//EN" "http://www.w3.org/Graphics/SVG/1.1/DTD/svg11.dtd">
<svg version="1.1" id="Слой_1" xmlns="http://www.w3.org/2000/svg" xmlns:xlink="http://www.w3.org/1999/xlink" x="0px" y="0px"
	 viewBox="0 0 36 46.4" enable-background="new 0 0 36 46.4" xml:space="preserve">
<g>
	<path fill="#212735" d="M35.6,9.8l-8.7-8.7c0,0,0,0,0,0l-0.6-0.6C26,0.2,25.6,0,25.2,0H2C1,0,0,0.7,0,2.3v42.5
		c0,0.7,0.7,1.3,1.5,1.5c0,0,0.1,0,0.1,0c0.1,0,0.3,0,0.4,0H34c0.1,0,0.3,0,0.4,0c0,0,0.1,0,0.1,0c0.8-0.2,1.5-0.9,1.5-1.5V11.2
		C36,10.6,35.9,10.1,35.6,9.8L35.6,9.8z M26.4,2.9l6.8,6.8h-6.8V2.9z M2,44.8c-0.1,0-0.1,0-0.2,0c-0.1-0.1-0.2-0.2-0.2-0.3V32.8
		h32.8v11.6c0,0.1-0.1,0.3-0.2,0.3c-0.1,0-0.1,0-0.2,0H2z M1.6,31.2V2.3c0-0.2,0-0.7,0.4-0.7h22.9c0,0.1,0,0.2,0,0.3v9.3h9.3
		c0.1,0,0.2,0,0.3,0c0,0,0,0,0,0v20H1.6z M1.6,31.2"/>
	<path fill="#212735" d="M7,36h2.4v7.2h1.3V36h2.4v-0.9H7V36z M7,36"/>
	<path fill="#212735" d="M19,35.1l-1.5,3.3h-0.1L16,35.1h-1.5l2.2,4.1l-2,3.9h1.5l1.4-3h0.1l1.3,3h1.5l-2-3.9l2.2-4.1H19z M19,35.1"
		/>
	<path fill="#212735" d="M21.9,36h2.4v7.2h1.3V36H28v-0.9h-6.1V36z M21.9,36"/>
	<path fill="#212735" d="M5.6,11.2h4.8c0.4,0,0.8-0.4,0.8-0.8c0-0.4-0.4-0.8-0.8-0.8H5.6c-0.4,0-0.8,0.4-0.8,0.8
		C4.8,10.8,5.2,11.2,5.6,11.2L5.6,11.2z M5.6,11.2"/>
	<path fill="#212735" d="M5.6,15.2h7.2c0.4,0,0.8-0.4,0.8-0.8c0-0.4-0.4-0.8-0.8-0.8H5.6c-0.4,0-0.8,0.4-0.8,0.8
		C4.8,14.8,5.2,15.2,5.6,15.2L5.6,15.2z M5.6,15.2"/>
	<path fill="#212735" d="M16,15.2c0.2,0,0.4-0.1,0.6-0.2c0.1-0.2,0.2-0.4,0.2-0.6c0-0.2-0.1-0.4-0.2-0.6c-0.3-0.3-0.8-0.3-1.1,0
		c-0.2,0.2-0.2,0.4-0.2,0.6c0,0.2,0.1,0.4,0.2,0.6C15.6,15.1,15.8,15.2,16,15.2L16,15.2z M16,15.2"/>
	<path fill="#212735" d="M19.2,15.2h6.4c0.4,0,0.8-0.4,0.8-0.8c0-0.4-0.4-0.8-0.8-0.8h-6.4c-0.4,0-0.8,0.4-0.8,0.8
		C18.4,14.8,18.8,15.2,19.2,15.2L19.2,15.2z M19.2,15.2"/>
	<path fill="#212735" d="M5,25.8c-0.1,0.2-0.2,0.4-0.2,0.6c0,0.2,0.1,0.4,0.2,0.6c0.2,0.1,0.4,0.2,0.6,0.2c0.2,0,0.4-0.1,0.6-0.2
		c0.1-0.2,0.2-0.4,0.2-0.6c0-0.2-0.1-0.4-0.2-0.6C5.9,25.5,5.3,25.5,5,25.8L5,25.8z M5,25.8"/>
	<path fill="#212735" d="M15.2,25.6H8.8C8.4,25.6,8,26,8,26.4c0,0.4,0.4,0.8,0.8,0.8h6.4c0.4,0,0.8-0.4,0.8-0.8
		C16,26,15.6,25.6,15.2,25.6L15.2,25.6z M15.2,25.6"/>
	<path fill="#212735" d="M30.4,13.6h-1.6c-0.4,0-0.8,0.4-0.8,0.8c0,0.4,0.4,0.8,0.8,0.8h1.6c0.4,0,0.8-0.4,0.8-0.8
		C31.2,14,30.8,13.6,30.4,13.6L30.4,13.6z M30.4,13.6"/>
	<path fill="#212735" d="M5.6,19.2h17.6c0.4,0,0.8-0.4,0.8-0.8c0-0.4-0.4-0.8-0.8-0.8H5.6c-0.4,0-0.8,0.4-0.8,0.8
		C4.8,18.8,5.2,19.2,5.6,19.2L5.6,19.2z M5.6,19.2"/>
	<path fill="#212735" d="M30.4,17.6h-4.8c-0.4,0-0.8,0.4-0.8,0.8c0,0.4,0.4,0.8,0.8,0.8h4.8c0.4,0,0.8-0.4,0.8-0.8
		C31.2,18,30.8,17.6,30.4,17.6L30.4,17.6z M30.4,17.6"/>
	<path fill="#212735" d="M5.6,23.2h3.2c0.4,0,0.8-0.4,0.8-0.8c0-0.4-0.4-0.8-0.8-0.8H5.6c-0.4,0-0.8,0.4-0.8,0.8
		C4.8,22.8,5.2,23.2,5.6,23.2L5.6,23.2z M5.6,23.2"/>
	<path fill="#212735" d="M20,21.6h-8c-0.4,0-0.8,0.4-0.8,0.8c0,0.4,0.4,0.8,0.8,0.8h8c0.4,0,0.8-0.4,0.8-0.8
		C20.8,22,20.4,21.6,20,21.6L20,21.6z M20,21.6"/>
	<path fill="#212735" d="M30.4,21.6h-7.2c-0.4,0-0.8,0.4-0.8,0.8c0,0.4,0.4,0.8,0.8,0.8h7.2c0.4,0,0.8-0.4,0.8-0.8
		C31.2,22,30.8,21.6,30.4,21.6L30.4,21.6z M30.4,21.6"/>
</g>
</svg>
