<?xml version="1.0" encoding="utf-8"?>
<!-- Generator: Adobe Illustrator 18.0.0, SVG Export Plug-In . SVG Version: 6.00 Build 0)  -->
<!DOCTYPE svg PUBLIC "-//W3C//DTD SVG 1.1//EN" "http://www.w3.org/Graphics/SVG/1.1/DTD/svg11.dtd">
<svg version="1.1" id="Слой_1" xmlns="http://www.w3.org/2000/svg" xmlns:xlink="http://www.w3.org/1999/xlink" x="0px" y="0px"
	 viewBox="0 0 36 44.9" enable-background="new 0 0 36 44.9" xml:space="preserve">
<g>
	<path fill="#212735" d="M35.6,9.8l-9.3-9.3C26,0.2,25.6,0,25.2,0H2C1,0,0,0.7,0,2.3v42.5c0,0.7,0.7-3.7,1.5-3.5c0,0,0.1,0,0.1,0
		c0.1,0,0.3,0,0.4,0H34c0.1,0,0.3,0,0.4,0c0,0,0.1,0,0.1,0c0.8-0.2,1.5,4.1,1.5,3.5V11.2C36,10.6,35.9,10.1,35.6,9.8L35.6,9.8z
		 M33.1,9.6h-6.8V2.9L33.1,9.6z M2,44.8c-0.1,0-0.1,0-0.2,0c-0.1-0.1-0.2-0.2-0.2-0.3V32.8h32.8v11.6c0,0.1-0.1,0.3-0.2,0.3
		c-0.1,0-0.1,0-0.2,0H2z M1.6,31.2V2.3c0-0.2,0-0.7,0.4-0.7h22.9c0,0.1,0,0.2,0,0.3v9.3h9.3c0.1,0,0.2,0,0.3,0c0,0,0,0,0,0v20H1.6z
		 M1.6,31.2"/>
	<path fill="#212735" d="M12.6,35.1L11,38.4h-0.1l-1.4-3.3H8l2.2,4.1l-2,3.9h1.5l1.4-3h0.1l1.3,3h1.5l-2-3.9l2.2-4.1H12.6z
		 M12.6,35.1"/>
	<path fill="#212735" d="M17.2,35.1h-1.3v8.1h5v-1h-3.7V35.1z M17.2,35.1"/>
	<path fill="#212735" d="M26,39.3c-0.3-0.2-0.5-0.3-0.8-0.5c-0.3-0.1-0.6-0.3-0.8-0.4c-0.3-0.1-0.5-0.3-0.6-0.5
		c-0.2-0.2-0.2-0.4-0.2-0.7c0-0.1,0-0.2,0.1-0.4c0.1-0.1,0.1-0.2,0.2-0.3c0.1-0.1,0.2-0.2,0.4-0.3c0.1-0.1,0.3-0.1,0.4-0.1
		c0.3,0,0.5,0,0.6,0c0.2,0,0.3,0,0.4,0.1c0.1,0,0.2,0.1,0.2,0.1c0.1,0,0.1,0.1,0.1,0.1c0,0,0,0,0.1-0.1c0-0.1,0.1-0.1,0.1-0.2
		c0.1-0.1,0.1-0.2,0.2-0.3c0.1-0.1,0.1-0.2,0.2-0.3c-0.2-0.1-0.5-0.2-0.8-0.3C25.3,35,25,35,24.6,35c-0.3,0-0.6,0.1-0.9,0.2
		c-0.3,0.1-0.6,0.3-0.8,0.4c-0.2,0.2-0.4,0.4-0.5,0.7c-0.1,0.3-0.2,0.6-0.2,1c0,0.4,0.1,0.7,0.2,1c0.2,0.3,0.4,0.5,0.6,0.7
		c0.3,0.2,0.5,0.4,0.8,0.5c0.3,0.1,0.6,0.3,0.8,0.4c0.3,0.1,0.5,0.3,0.6,0.5c0.2,0.2,0.3,0.4,0.3,0.6c0,0.4-0.1,0.7-0.4,0.9
		c-0.2,0.2-0.6,0.3-1,0.3c-0.1,0-0.3,0-0.5,0c-0.2,0-0.3-0.1-0.5-0.1c-0.2,0-0.3-0.1-0.5-0.2c-0.2-0.1-0.3-0.1-0.4-0.2l-0.2,0.9
		c0.1,0.1,0.3,0.2,0.4,0.3c0.2,0.1,0.3,0.1,0.5,0.2c0.2,0,0.4,0.1,0.6,0.1c0.2,0,0.4,0,0.5,0c0.4,0,0.8-0.1,1.1-0.2
		c0.3-0.1,0.6-0.3,0.8-0.5c0.2-0.2,0.4-0.5,0.5-0.7c0.1-0.3,0.2-0.6,0.2-0.8c0-0.4-0.1-0.8-0.2-1.1C26.4,39.7,26.2,39.4,26,39.3
		L26,39.3z M26,39.3"/>
	<path fill="#212735" d="M14.4,10.4H4.8V28h26.4V13.6H14.4V10.4z M6.4,15.2h6.4v1.6H6.4V15.2z M6.4,18.4h6.4V20H6.4V18.4z M6.4,21.6
		h6.4v1.6H6.4V21.6z M12.8,26.4H6.4v-1.6h6.4V26.4z M29.6,26.4H14.4v-1.6h15.2V26.4z M29.6,23.2H14.4v-1.6h15.2V23.2z M29.6,20H14.4
		v-1.6h15.2V20z M29.6,15.2v1.6H14.4v-1.6H29.6z M6.4,13.6V12h6.4v1.6H6.4z M6.4,13.6"/>
</g>
</svg>
